<svg width="234" height="50" viewBox="0 0 234 50" fill="none" xmlns="http://www.w3.org/2000/svg">
<g clip-path="url(#clip0)">
<path d="M26.4914 6.09882C29.0528 6.09882 31.1293 4.73358 31.1293 3.04942C31.1293 1.36527 29.0528 0 26.4914 0C23.9299 0 21.8535 1.36527 21.8535 3.04942C21.8535 4.73358 23.9299 6.09882 26.4914 6.09882Z" fill="#48CDD6"/>
<path d="M26.509 46.0002C29.0704 46.0002 31.1468 44.635 31.1468 42.9508C31.1468 41.2666 29.0704 39.9014 26.509 39.9014C23.9476 39.9014 21.8711 41.2666 21.8711 42.9508C21.8711 44.635 23.9476 46.0002 26.509 46.0002Z" fill="#48CDD6"/>
<path d="M4.63786 37.5265C7.19926 37.5265 9.27569 36.1613 9.27569 34.4772C9.27569 32.793 7.19926 31.4277 4.63786 31.4277C2.07644 31.4277 0 32.793 0 34.4772C0 36.1613 2.07644 37.5265 4.63786 37.5265Z" fill="#48CDD6"/>
<path d="M10.0896 17.8756C12.3526 17.8756 14.1871 16.484 14.1871 14.7674C14.1871 13.0508 12.3526 11.6592 10.0896 11.6592C7.82668 11.6592 5.99219 13.0508 5.99219 14.7674C5.99219 16.484 7.82668 17.8756 10.0896 17.8756Z" fill="#48CDD6"/>
<path d="M13.5469 12.5588L20.5233 4.70508L22.4452 6.90696L13.5469 12.5588Z" fill="#4A5568"/>
<path d="M5.36719 30.9097L6.34276 18.2178L8.78171 18.9085L5.36719 30.9097Z" fill="#4A5568"/>
<path d="M23.9991 38.1625L11.4141 19.1678L13.5603 17.959L23.9991 38.1625Z" fill="#4A5568"/>
<path d="M9.36719 36.2627L21.2693 40.0617L20.0986 42.1338L9.36719 36.2627Z" fill="#4A5568"/>
<path d="M48.3782 37.4396C45.8254 37.4396 43.7559 36.0744 43.7559 34.3903C43.7559 32.7061 45.8254 31.3408 48.3782 31.3408C50.931 31.3408 53.0004 32.7061 53.0004 34.3903C53.0004 36.0744 50.931 37.4396 48.3782 37.4396Z" fill="#48CDD6"/>
<path d="M42.8825 17.8756C40.6272 17.8756 38.7988 16.484 38.7988 14.7674C38.7988 13.0508 40.6272 11.6592 42.8825 11.6592C45.1379 11.6592 46.9662 13.0508 46.9662 14.7674C46.9662 16.484 45.1379 17.8756 42.8825 17.8756Z" fill="#48CDD6"/>
<path d="M39.0586 12.6113L32.0539 4.80469L30.248 6.90693L39.0586 12.6113Z" fill="#4A5568"/>
<path d="M47.6531 30.8238L46.6807 18.1318L44.25 18.8225L47.6531 30.8238Z" fill="#4A5568"/>
<path d="M29.082 38.0755L41.6248 19.0809L39.4857 17.8721L29.082 38.0755Z" fill="#4A5568"/>
<path d="M43.6669 36.1758L31.8047 39.9748L32.9714 42.0469L43.6669 36.1758Z" fill="#4A5568"/>
</g>
<path d="M64.796 24.18C63.968 24.18 63.206 24.054 62.51 23.802C61.814 23.538 61.262 23.184 60.854 22.74C60.446 22.296 60.242 21.81 60.242 21.282C60.242 21.042 60.326 20.85 60.494 20.706C60.674 20.55 60.908 20.466 61.196 20.454C61.388 21.306 61.796 21.954 62.42 22.398C63.044 22.842 63.848 23.064 64.832 23.064C65.84 23.064 66.65 22.83 67.262 22.362C67.886 21.894 68.198 21.282 68.198 20.526C68.198 20.082 68.084 19.704 67.856 19.392C67.64 19.08 67.28 18.804 66.776 18.564C66.272 18.312 65.576 18.072 64.688 17.844C63.656 17.568 62.846 17.28 62.258 16.98C61.67 16.668 61.244 16.32 60.98 15.936C60.728 15.54 60.602 15.054 60.602 14.478C60.602 13.47 60.974 12.678 61.718 12.102C62.462 11.514 63.488 11.22 64.796 11.22C65.936 11.22 66.884 11.49 67.64 12.03C68.408 12.558 68.924 13.308 69.188 14.28C69.032 14.436 68.792 14.514 68.468 14.514C68.132 14.514 67.886 14.352 67.73 14.028C67.466 13.5 67.064 13.08 66.524 12.768C65.996 12.456 65.42 12.3 64.796 12.3C63.848 12.3 63.128 12.486 62.636 12.858C62.144 13.23 61.898 13.77 61.898 14.478C61.898 14.838 61.988 15.144 62.168 15.396C62.348 15.636 62.648 15.858 63.068 16.062C63.488 16.266 64.082 16.476 64.85 16.692C66.134 17.052 67.1 17.394 67.748 17.718C68.408 18.042 68.87 18.408 69.134 18.816C69.398 19.224 69.53 19.758 69.53 20.418C69.53 21.174 69.338 21.84 68.954 22.416C68.57 22.98 68.018 23.418 67.298 23.73C66.59 24.03 65.756 24.18 64.796 24.18ZM82.4468 13.92C83.2988 13.92 83.9888 14.196 84.5168 14.748C85.0568 15.3 85.3268 16.014 85.3268 16.89V24H84.0848V16.944C84.0848 16.248 83.9288 15.732 83.6168 15.396C83.3048 15.06 82.8308 14.892 82.1948 14.892C81.1748 14.892 80.2268 15.36 79.3508 16.296C79.3748 16.488 79.3868 16.632 79.3868 16.728V24H78.1628V16.764C78.1628 16.2 77.9888 15.75 77.6408 15.414C77.3048 15.066 76.8548 14.892 76.2908 14.892C75.7748 14.892 75.2828 15.006 74.8148 15.234C74.3588 15.462 73.8968 15.828 73.4288 16.332V24H72.2048V17.466C72.2048 15.69 72.1328 14.634 71.9888 14.298C72.3728 14.118 72.6788 14.028 72.9068 14.028C73.2548 14.028 73.4288 14.376 73.4288 15.072V15.144C73.8848 14.712 74.3528 14.4 74.8328 14.208C75.3248 14.016 75.8828 13.92 76.5068 13.92C77.0708 13.92 77.5748 14.052 78.0188 14.316C78.4628 14.568 78.8048 14.916 79.0448 15.36C79.5608 14.856 80.0828 14.49 80.6108 14.262C81.1508 14.034 81.7628 13.92 82.4468 13.92ZM95.5348 21.534C95.5348 22.086 95.5768 22.524 95.6608 22.848C95.7568 23.16 95.9188 23.442 96.1468 23.694C96.0268 23.814 95.8828 23.91 95.7148 23.982C95.5588 24.054 95.4088 24.09 95.2648 24.09C95.0248 24.09 94.8208 23.952 94.6528 23.676C94.4968 23.4 94.3948 23.022 94.3468 22.542C93.9748 23.046 93.4768 23.448 92.8528 23.748C92.2288 24.036 91.5748 24.18 90.8908 24.18C89.9788 24.18 89.2468 23.946 88.6948 23.478C88.1428 22.998 87.8668 22.374 87.8668 21.606C87.8668 20.478 88.4128 19.596 89.5048 18.96C90.6088 18.324 92.2108 17.958 94.3108 17.862V17.286C94.3108 16.494 94.1068 15.906 93.6988 15.522C93.3028 15.126 92.6968 14.928 91.8808 14.928C91.3528 14.928 90.8608 15.042 90.4048 15.27C89.9608 15.486 89.4808 15.852 88.9648 16.368C88.8928 16.44 88.8028 16.476 88.6948 16.476C88.5748 16.476 88.4428 16.428 88.2988 16.332C88.1548 16.224 88.0168 16.074 87.8848 15.882C88.4248 15.246 89.0368 14.76 89.7208 14.424C90.4168 14.088 91.1548 13.92 91.9348 13.92C93.0508 13.92 93.9268 14.22 94.5628 14.82C95.2108 15.42 95.5348 16.242 95.5348 17.286V21.534ZM90.9808 23.172C91.6288 23.172 92.2408 22.992 92.8168 22.632C93.3928 22.272 93.8908 21.762 94.3108 21.102V18.87C90.8548 19.014 89.1268 19.92 89.1268 21.588C89.1268 22.644 89.7448 23.172 90.9808 23.172ZM102.512 13.974C102.932 13.974 103.25 14.046 103.466 14.19C103.694 14.322 103.808 14.526 103.808 14.802C103.808 14.994 103.742 15.168 103.61 15.324C103.322 15.168 102.926 15.09 102.422 15.09C101.618 15.09 100.97 15.408 100.478 16.044C99.9979 16.68 99.7579 17.514 99.7579 18.546V24H98.5339V14.1H99.7579V15.882C100.034 15.33 100.424 14.874 100.928 14.514C101.432 14.154 101.96 13.974 102.512 13.974ZM110.367 22.794C110.451 22.854 110.517 22.944 110.565 23.064C110.625 23.172 110.655 23.286 110.655 23.406C110.655 23.634 110.559 23.796 110.367 23.892C109.983 24.084 109.485 24.18 108.873 24.18C108.093 24.18 107.469 23.97 107.001 23.55C106.533 23.118 106.299 22.542 106.299 21.822V15.072H104.427V14.1H106.299V11.4H107.523V14.1H110.115V15.072H107.523V21.588C107.523 22.596 107.955 23.1 108.819 23.1C109.371 23.1 109.887 22.998 110.367 22.794ZM142.843 24.18C142.015 24.18 141.253 24.054 140.557 23.802C139.861 23.538 139.309 23.184 138.901 22.74C138.493 22.296 138.289 21.81 138.289 21.282C138.289 21.042 138.373 20.85 138.541 20.706C138.721 20.55 138.955 20.466 139.243 20.454C139.435 21.306 139.843 21.954 140.467 22.398C141.091 22.842 141.895 23.064 142.879 23.064C143.887 23.064 144.697 22.83 145.309 22.362C145.933 21.894 146.245 21.282 146.245 20.526C146.245 20.082 146.131 19.704 145.903 19.392C145.687 19.08 145.327 18.804 144.823 18.564C144.319 18.312 143.623 18.072 142.735 17.844C141.703 17.568 140.893 17.28 140.305 16.98C139.717 16.668 139.291 16.32 139.027 15.936C138.775 15.54 138.649 15.054 138.649 14.478C138.649 13.47 139.021 12.678 139.765 12.102C140.509 11.514 141.535 11.22 142.843 11.22C143.983 11.22 144.931 11.49 145.687 12.03C146.455 12.558 146.971 13.308 147.235 14.28C147.079 14.436 146.839 14.514 146.515 14.514C146.179 14.514 145.933 14.352 145.777 14.028C145.513 13.5 145.111 13.08 144.571 12.768C144.043 12.456 143.467 12.3 142.843 12.3C141.895 12.3 141.175 12.486 140.683 12.858C140.191 13.23 139.945 13.77 139.945 14.478C139.945 14.838 140.035 15.144 140.215 15.396C140.395 15.636 140.695 15.858 141.115 16.062C141.535 16.266 142.129 16.476 142.897 16.692C144.181 17.052 145.147 17.394 145.795 17.718C146.455 18.042 146.917 18.408 147.181 18.816C147.445 19.224 147.577 19.758 147.577 20.418C147.577 21.174 147.385 21.84 147.001 22.416C146.617 22.98 146.065 23.418 145.345 23.73C144.637 24.03 143.803 24.18 142.843 24.18ZM150.576 14.1H151.8V24H150.576V14.1ZM151.116 12.282C150.576 12.282 150.306 12.012 150.306 11.472V11.31C150.306 10.77 150.576 10.5 151.116 10.5H151.26C151.8 10.5 152.07 10.77 152.07 11.31V11.472C152.07 12.012 151.8 12.282 151.26 12.282H151.116ZM163.321 13.578C163.537 13.578 163.693 13.638 163.789 13.758C163.897 13.866 163.951 14.046 163.951 14.298C163.951 14.37 163.939 14.514 163.915 14.73C163.027 14.73 162.409 14.85 162.061 15.09C162.541 15.666 162.781 16.38 162.781 17.232C162.781 19.536 161.455 20.688 158.803 20.688C157.987 20.688 157.387 20.748 157.003 20.868C156.631 20.976 156.445 21.15 156.445 21.39C156.445 21.93 157.411 22.2 159.343 22.2C160.699 22.2 161.749 22.428 162.493 22.884C163.237 23.34 163.609 23.988 163.609 24.828C163.609 25.728 163.207 26.418 162.403 26.898C161.611 27.39 160.471 27.636 158.983 27.636C157.579 27.636 156.511 27.42 155.779 26.988C155.047 26.556 154.681 25.92 154.681 25.08C154.681 24.6 154.843 24.174 155.167 23.802C155.503 23.43 155.965 23.154 156.553 22.974V22.92C156.193 22.824 155.905 22.65 155.689 22.398C155.473 22.134 155.365 21.822 155.365 21.462C155.365 21.162 155.485 20.898 155.725 20.67C155.965 20.43 156.289 20.268 156.697 20.184C156.181 19.896 155.779 19.518 155.491 19.05C155.215 18.57 155.077 18.036 155.077 17.448C155.077 15.096 156.433 13.92 159.145 13.92C159.997 13.92 160.723 14.106 161.323 14.478C161.623 14.202 161.947 13.986 162.295 13.83C162.655 13.662 162.997 13.578 163.321 13.578ZM158.911 19.68C159.835 19.68 160.495 19.5 160.891 19.14C161.299 18.768 161.503 18.156 161.503 17.304C161.503 16.464 161.299 15.852 160.891 15.468C160.483 15.084 159.823 14.892 158.911 14.892C158.023 14.892 157.369 15.09 156.949 15.486C156.541 15.87 156.337 16.476 156.337 17.304C156.337 18.888 157.195 19.68 158.911 19.68ZM159.055 23.316C158.035 23.316 157.261 23.454 156.733 23.73C156.217 24.006 155.959 24.408 155.959 24.936C155.959 25.488 156.217 25.908 156.733 26.196C157.249 26.484 157.999 26.628 158.983 26.628C160.087 26.628 160.921 26.484 161.485 26.196C162.049 25.92 162.331 25.5 162.331 24.936C162.331 24.36 162.073 23.946 161.557 23.694C161.053 23.442 160.219 23.316 159.055 23.316ZM173.671 21.696C173.671 22.428 173.677 22.926 173.689 23.19C173.713 23.442 173.761 23.67 173.833 23.874C173.545 24.018 173.233 24.09 172.897 24.09C172.717 24.09 172.597 23.964 172.537 23.712C172.477 23.448 172.447 22.932 172.447 22.164V17.286C172.447 16.446 172.291 15.84 171.979 15.468C171.667 15.084 171.163 14.892 170.467 14.892C169.387 14.892 168.283 15.426 167.155 16.494V24H165.931V17.466C165.931 15.69 165.859 14.634 165.715 14.298C166.099 14.118 166.405 14.028 166.633 14.028C166.981 14.028 167.155 14.376 167.155 15.072V15.234C167.707 14.778 168.259 14.448 168.811 14.244C169.375 14.028 169.969 13.92 170.593 13.92C171.625 13.92 172.393 14.202 172.897 14.766C173.413 15.318 173.671 16.164 173.671 17.304V21.696ZM183.865 21.534C183.865 22.086 183.907 22.524 183.991 22.848C184.087 23.16 184.249 23.442 184.477 23.694C184.357 23.814 184.213 23.91 184.045 23.982C183.889 24.054 183.739 24.09 183.595 24.09C183.355 24.09 183.151 23.952 182.983 23.676C182.827 23.4 182.725 23.022 182.677 22.542C182.305 23.046 181.807 23.448 181.183 23.748C180.559 24.036 179.905 24.18 179.221 24.18C178.309 24.18 177.577 23.946 177.025 23.478C176.473 22.998 176.197 22.374 176.197 21.606C176.197 20.478 176.743 19.596 177.835 18.96C178.939 18.324 180.541 17.958 182.641 17.862V17.286C182.641 16.494 182.437 15.906 182.029 15.522C181.633 15.126 181.027 14.928 180.211 14.928C179.683 14.928 179.191 15.042 178.735 15.27C178.291 15.486 177.811 15.852 177.295 16.368C177.223 16.44 177.133 16.476 177.025 16.476C176.905 16.476 176.773 16.428 176.629 16.332C176.485 16.224 176.347 16.074 176.215 15.882C176.755 15.246 177.367 14.76 178.051 14.424C178.747 14.088 179.485 13.92 180.265 13.92C181.381 13.92 182.257 14.22 182.893 14.82C183.541 15.42 183.865 16.242 183.865 17.286V21.534ZM179.311 23.172C179.959 23.172 180.571 22.992 181.147 22.632C181.723 22.272 182.221 21.762 182.641 21.102V18.87C179.185 19.014 177.457 19.92 177.457 21.588C177.457 22.644 178.075 23.172 179.311 23.172ZM191.49 22.794C191.574 22.854 191.64 22.944 191.688 23.064C191.748 23.172 191.778 23.286 191.778 23.406C191.778 23.634 191.682 23.796 191.49 23.892C191.106 24.084 190.608 24.18 189.996 24.18C189.216 24.18 188.592 23.97 188.124 23.55C187.656 23.118 187.422 22.542 187.422 21.822V15.072H185.55V14.1H187.422V11.4H188.646V14.1H191.238V15.072H188.646V21.588C188.646 22.596 189.078 23.1 189.942 23.1C190.494 23.1 191.01 22.998 191.49 22.794ZM201.372 21.966C201.372 22.662 201.462 23.298 201.642 23.874C201.39 24.018 201.132 24.09 200.868 24.09C200.616 24.09 200.43 23.988 200.31 23.784C200.202 23.568 200.142 23.184 200.13 22.632C199.794 23.1 199.32 23.478 198.708 23.766C198.096 24.042 197.436 24.18 196.728 24.18C194.7 24.18 193.686 23.07 193.686 20.85V14.1H194.91V20.724C194.91 21.6 195.072 22.236 195.396 22.632C195.72 23.016 196.236 23.208 196.944 23.208C197.58 23.208 198.174 23.046 198.726 22.722C199.29 22.398 199.758 21.942 200.13 21.354V14.1H201.372V21.966ZM208.561 13.974C208.981 13.974 209.299 14.046 209.515 14.19C209.743 14.322 209.857 14.526 209.857 14.802C209.857 14.994 209.791 15.168 209.659 15.324C209.371 15.168 208.975 15.09 208.471 15.09C207.667 15.09 207.019 15.408 206.527 16.044C206.047 16.68 205.807 17.514 205.807 18.546V24H204.583V14.1H205.807V15.882C206.083 15.33 206.473 14.874 206.977 14.514C207.481 14.154 208.009 13.974 208.561 13.974ZM219.62 18.348C219.62 18.624 219.608 18.9 219.584 19.176H212.42C212.444 20.424 212.72 21.396 213.248 22.092C213.788 22.788 214.532 23.136 215.48 23.136C216.128 23.136 216.674 23.01 217.118 22.758C217.574 22.506 217.952 22.104 218.252 21.552C218.336 21.396 218.462 21.318 218.63 21.318C218.822 21.318 219.086 21.432 219.422 21.66C219.158 22.44 218.672 23.058 217.964 23.514C217.256 23.958 216.428 24.18 215.48 24.18C214.604 24.18 213.836 23.976 213.176 23.568C212.528 23.148 212.03 22.554 211.682 21.786C211.334 21.006 211.16 20.088 211.16 19.032C211.16 17.436 211.556 16.188 212.348 15.288C213.14 14.376 214.226 13.92 215.606 13.92C216.866 13.92 217.85 14.31 218.558 15.09C219.266 15.87 219.62 16.956 219.62 18.348ZM218.36 18.204C218.36 16.044 217.424 14.964 215.552 14.964C214.64 14.964 213.92 15.24 213.392 15.792C212.864 16.344 212.552 17.148 212.456 18.204H218.36Z" fill="#4A5568"/>
<path d="M122.319 17.628C122.319 19.128 122.079 20.388 121.599 21.408C121.131 22.428 120.447 23.172 119.547 23.64C119.739 23.892 120.111 24.354 120.663 25.026C120.543 25.158 120.393 25.266 120.213 25.35C120.045 25.434 119.865 25.476 119.673 25.476C119.361 25.476 119.091 25.302 118.863 24.954L118.287 24.072C117.915 24.144 117.507 24.18 117.063 24.18C115.371 24.18 114.069 23.616 113.157 22.488C112.257 21.36 111.807 19.74 111.807 17.628C111.807 15.564 112.257 13.98 113.157 12.876C114.069 11.772 115.371 11.22 117.063 11.22C118.755 11.22 120.051 11.772 120.951 12.876C121.863 13.98 122.319 15.564 122.319 17.628ZM117.063 23.028C117.195 23.028 117.381 23.016 117.621 22.992L116.595 21.318H117.963C118.239 21.774 118.533 22.218 118.845 22.65C120.273 21.942 120.987 20.268 120.987 17.628C120.987 14.124 119.679 12.372 117.063 12.372C114.447 12.372 113.139 14.124 113.139 17.628C113.139 19.416 113.469 20.766 114.129 21.678C114.789 22.578 115.767 23.028 117.063 23.028ZM132.142 22.92V24H124.726V11.4H126.022V22.92H132.142Z" fill="#48CDD6"/>
<path d="M61.3047 40.5049C61.3047 40.4795 61.3089 40.4287 61.3174 40.3525C61.3258 40.2679 61.3343 40.2087 61.3428 40.1748C61.8337 39.7601 62.2526 39.3708 62.5996 39.0068C62.9551 38.6429 63.2809 38.2747 63.5771 37.9023C63.8734 37.5215 64.1654 37.1195 64.4531 36.6963C64.7409 36.2646 65.071 35.778 65.4434 35.2363C65.6465 34.8301 65.7396 34.5592 65.7227 34.4238C65.7142 34.2799 65.6338 34.2249 65.4814 34.2588C65.3291 34.2926 65.1217 34.3857 64.8594 34.5381C64.6055 34.6904 64.3304 34.8512 64.0342 35.0205C63.7464 35.1813 63.4587 35.3294 63.1709 35.4648C62.8831 35.5918 62.6377 35.6468 62.4346 35.6299C62.4346 35.5029 62.498 35.3633 62.625 35.2109C62.7604 35.0501 62.9297 34.8893 63.1328 34.7285C63.3444 34.5677 63.5771 34.4111 63.8311 34.2588C64.085 34.098 64.3346 33.9583 64.5801 33.8398C64.834 33.7129 65.0667 33.6113 65.2783 33.5352C65.4899 33.459 65.6592 33.4209 65.7861 33.4209C65.8877 33.4209 65.985 33.4421 66.0781 33.4844C66.1797 33.5182 66.2686 33.569 66.3447 33.6367C66.4209 33.7044 66.4844 33.7848 66.5352 33.8779C66.5859 33.9626 66.6113 34.0557 66.6113 34.1572C66.6113 34.4535 66.5352 34.7666 66.3828 35.0967C66.2389 35.4268 66.057 35.7526 65.8369 36.0742C65.6169 36.3958 65.3757 36.7132 65.1133 37.0264C64.8594 37.3311 64.6224 37.6104 64.4023 37.8643C64.1823 38.1182 63.9961 38.3424 63.8438 38.5371C63.6999 38.7233 63.6279 38.8587 63.6279 38.9434C63.9411 39.1549 64.2373 39.3411 64.5166 39.502C64.7536 39.6458 64.9821 39.7728 65.2021 39.8828C65.4222 39.9928 65.5788 40.0479 65.6719 40.0479C65.8411 40.0479 65.9935 40.0225 66.1289 39.9717C66.2728 39.9124 66.4082 39.8659 66.5352 39.832C66.6706 39.7897 66.806 39.777 66.9414 39.7939C67.0853 39.8024 67.2461 39.8743 67.4238 40.0098C67.4238 40.0182 67.39 40.0479 67.3223 40.0986C67.263 40.1494 67.1911 40.2129 67.1064 40.2891C67.0218 40.3568 66.9287 40.4287 66.8271 40.5049C66.734 40.5726 66.6579 40.6276 66.5986 40.6699C66.2686 40.8815 65.9596 40.9746 65.6719 40.9492C65.3841 40.9154 65.1048 40.8307 64.834 40.6953C64.5632 40.5599 64.2923 40.4033 64.0215 40.2256C63.7591 40.0479 63.4883 39.9167 63.209 39.832C62.9805 39.832 62.8112 39.8955 62.7012 40.0225C62.5996 40.141 62.5065 40.2764 62.4219 40.4287C62.3457 40.5726 62.2611 40.708 62.168 40.835C62.0749 40.9535 61.931 41.0127 61.7363 41.0127C61.5501 41.0127 61.4316 40.9704 61.3809 40.8857C61.3301 40.8011 61.3047 40.6742 61.3047 40.5049ZM67.8936 39.8955C67.8936 39.8532 67.8936 39.777 67.8936 39.667C67.902 39.5485 67.9105 39.43 67.9189 39.3115C67.9359 39.193 67.957 39.0872 67.9824 38.9941C68.0078 38.901 68.0417 38.8545 68.084 38.8545H68.4014C68.4437 39.1084 68.4945 39.32 68.5537 39.4893C68.6214 39.6585 68.7103 39.7982 68.8203 39.9082C68.9303 40.0098 69.07 40.0859 69.2393 40.1367C69.4085 40.179 69.6201 40.2002 69.874 40.2002C70.2718 40.2002 70.6527 40.1325 71.0166 39.9971C71.3805 39.8532 71.6979 39.6585 71.9688 39.4131C72.248 39.1592 72.4681 38.863 72.6289 38.5244C72.7897 38.1774 72.8701 37.7965 72.8701 37.3818C72.8701 37.2126 72.8574 37.0433 72.832 36.874C72.8151 36.6963 72.7728 36.5355 72.7051 36.3916C72.6458 36.2477 72.5527 36.1292 72.4258 36.0361C72.3073 35.943 72.1465 35.8965 71.9434 35.8965C71.7233 35.8965 71.554 35.96 71.4355 36.0869C71.3171 36.2054 71.207 36.3366 71.1055 36.4805C71.0124 36.6243 70.915 36.7598 70.8135 36.8867C70.7119 37.0052 70.568 37.0645 70.3818 37.0645C70.238 37.0645 70.1152 37.0179 70.0137 36.9248C69.9206 36.8232 69.874 36.7005 69.874 36.5566C69.874 36.5397 69.874 36.5101 69.874 36.4678C69.874 36.4255 69.8783 36.4043 69.8867 36.4043L71.6006 33.3066L75.4727 31.7832C75.7096 31.6901 75.8874 31.6943 76.0059 31.7959C76.1328 31.8975 76.1963 32.0329 76.1963 32.2021C76.1963 32.2952 76.099 32.3883 75.9043 32.4814C75.7096 32.5661 75.46 32.6634 75.1553 32.7734C74.859 32.875 74.5247 32.9935 74.1523 33.1289C73.7884 33.2643 73.4329 33.4251 73.0859 33.6113C72.7389 33.7891 72.4215 34.0007 72.1338 34.2461C71.8545 34.4831 71.6514 34.7581 71.5244 35.0713C71.736 35.0544 71.9603 35.0501 72.1973 35.0586C72.4342 35.0671 72.6501 35.1263 72.8447 35.2363C73.0309 35.4056 73.1706 35.5664 73.2637 35.7188C73.3568 35.8626 73.4202 36.0107 73.4541 36.1631C73.4964 36.3154 73.5176 36.4762 73.5176 36.6455C73.526 36.8063 73.5303 36.9883 73.5303 37.1914C73.5303 37.75 73.4456 38.262 73.2764 38.7275C73.1156 39.193 72.8743 39.5951 72.5527 39.9336C72.2311 40.2721 71.8376 40.5387 71.3721 40.7334C70.9066 40.9196 70.3734 41.0127 69.7725 41.0127C69.5863 41.0127 69.3831 41.0042 69.1631 40.9873C68.9515 40.9619 68.7484 40.9111 68.5537 40.835C68.3675 40.7588 68.2109 40.6488 68.084 40.5049C67.957 40.3525 67.8936 40.1494 67.8936 39.8955ZM76.7676 40.3652C76.7676 40.2383 76.8057 40.0605 76.8818 39.832C76.958 39.5951 77.0553 39.3411 77.1738 39.0703C77.3008 38.7995 77.4404 38.5244 77.5928 38.2451C77.7536 37.9658 77.9144 37.7119 78.0752 37.4834C78.236 37.2549 78.3883 37.0687 78.5322 36.9248C78.6761 36.7809 78.8031 36.709 78.9131 36.709C79.1501 36.709 79.2686 36.8232 79.2686 37.0518C79.2686 37.1533 79.2474 37.238 79.2051 37.3057C79.1712 37.3734 79.1289 37.4368 79.0781 37.4961C79.0273 37.5553 78.9723 37.6146 78.9131 37.6738C78.8538 37.7246 78.8031 37.7881 78.7607 37.8643C78.6846 37.9912 78.5915 38.1647 78.4814 38.3848C78.3714 38.6048 78.2614 38.8206 78.1514 39.0322C78.0498 39.2354 77.9609 39.4173 77.8848 39.5781C77.8086 39.7389 77.7705 39.8278 77.7705 39.8447V40.0098C78.1006 39.9505 78.418 39.8109 78.7227 39.5908C79.0273 39.3623 79.3151 39.0957 79.5859 38.791C79.8652 38.4863 80.1276 38.1689 80.373 37.8389C80.627 37.5003 80.8639 37.1914 81.084 36.9121C81.304 36.6243 81.5114 36.3874 81.7061 36.2012C81.9007 36.015 82.0827 35.9219 82.252 35.9219C82.252 36.235 82.1885 36.5186 82.0615 36.7725C81.9346 37.0264 81.7949 37.276 81.6426 37.5215C81.4987 37.7669 81.3633 38.0208 81.2363 38.2832C81.1094 38.5371 81.0459 38.8249 81.0459 39.1465C81.0459 39.2819 81.1263 39.4046 81.2871 39.5146C81.4564 39.6162 81.6468 39.7051 81.8584 39.7812C82.0785 39.849 82.29 39.904 82.4932 39.9463C82.6963 39.9886 82.8359 40.014 82.9121 40.0225V40.3525C82.7174 40.361 82.4762 40.3652 82.1885 40.3652C81.9007 40.3568 81.613 40.3229 81.3252 40.2637C81.0374 40.2044 80.7751 40.1071 80.5381 39.9717C80.3096 39.8278 80.1572 39.6204 80.0811 39.3496C79.861 39.4935 79.6494 39.6628 79.4463 39.8574C79.2432 40.0521 79.0316 40.234 78.8115 40.4033C78.5999 40.5726 78.3757 40.7165 78.1387 40.835C77.9017 40.9535 77.6436 41.0127 77.3643 41.0127C77.195 41.0127 77.0511 40.9408 76.9326 40.7969C76.8226 40.653 76.7676 40.5091 76.7676 40.3652ZM82.7852 39.7686C82.7852 39.5231 82.8317 39.2777 82.9248 39.0322C83.0179 38.7868 83.1279 38.5456 83.2549 38.3086C83.3818 38.0632 83.5088 37.8219 83.6357 37.585C83.7712 37.348 83.8727 37.1152 83.9404 36.8867C83.7796 36.9798 83.64 37.0348 83.5215 37.0518C83.4115 37.0602 83.276 37.0645 83.1152 37.0645C83.0983 37.0645 83.0433 37.0645 82.9502 37.0645C82.8656 37.056 82.8105 37.0518 82.7852 37.0518C82.8359 36.8656 82.929 36.7005 83.0645 36.5566C83.1999 36.4043 83.3522 36.2773 83.5215 36.1758C83.6992 36.0658 83.8812 35.9769 84.0674 35.9092C84.262 35.833 84.4355 35.7738 84.5879 35.7314C84.8418 35.3337 85.0492 34.9359 85.21 34.5381C85.3708 34.1318 85.5316 33.7383 85.6924 33.3574C85.8617 32.9681 86.0563 32.5999 86.2764 32.2529C86.5049 31.8975 86.8096 31.5716 87.1904 31.2754L87.2539 31.7578L85.667 35.4775C85.7601 35.4521 85.8743 35.4268 86.0098 35.4014C86.1452 35.376 86.2806 35.3506 86.416 35.3252C86.5599 35.2998 86.6953 35.2786 86.8223 35.2617C86.9577 35.2363 87.0719 35.2109 87.165 35.1855C87.1735 35.1855 87.1989 35.1855 87.2412 35.1855C87.2835 35.1771 87.3174 35.1729 87.3428 35.1729C87.4613 35.1729 87.5586 35.194 87.6348 35.2363C87.7109 35.2786 87.7744 35.3717 87.8252 35.5156C87.2497 35.6849 86.7292 35.8626 86.2637 36.0488C85.7982 36.235 85.3919 36.4805 85.0449 36.7852C84.7064 37.0814 84.4271 37.4622 84.207 37.9277C83.9954 38.3848 83.8473 38.973 83.7627 39.6924C83.7627 39.8447 83.7712 39.9844 83.7881 40.1113C83.805 40.2383 83.9108 40.3145 84.1055 40.3398C84.3001 40.3398 84.4821 40.3018 84.6514 40.2256C84.8206 40.1494 84.9857 40.069 85.1465 39.9844C85.3073 39.8913 85.4681 39.8066 85.6289 39.7305C85.7982 39.6543 85.9801 39.6162 86.1748 39.6162C86.1748 39.8193 86.0859 40.0055 85.9082 40.1748C85.7305 40.3441 85.5146 40.4922 85.2607 40.6191C85.0153 40.7461 84.7614 40.8434 84.499 40.9111C84.2367 40.9788 84.0208 41.0127 83.8516 41.0127C83.6823 41.0127 83.5299 40.9788 83.3945 40.9111C83.2591 40.8434 83.1449 40.7546 83.0518 40.6445C82.9671 40.526 82.8994 40.3906 82.8486 40.2383C82.8063 40.0859 82.7852 39.9294 82.7852 39.7686ZM86.2129 39.8447C86.2129 39.7939 86.2129 39.7305 86.2129 39.6543C86.2129 39.5781 86.2214 39.5062 86.2383 39.4385C86.2552 39.3623 86.2806 39.2988 86.3145 39.248C86.3483 39.1973 86.3991 39.1719 86.4668 39.1719C86.5345 39.1719 86.6064 39.2354 86.6826 39.3623C86.7673 39.4808 86.873 39.6162 87 39.7686C87.127 39.9124 87.2835 40.0479 87.4697 40.1748C87.6644 40.2933 87.9056 40.3525 88.1934 40.3525C88.4134 40.3525 88.6758 40.3187 88.9805 40.251C89.2852 40.1833 89.5983 40.0902 89.9199 39.9717C90.25 39.8447 90.5716 39.6966 90.8848 39.5273C91.2064 39.3496 91.4941 39.1592 91.748 38.9561C92.002 38.7445 92.2051 38.5244 92.3574 38.2959C92.5182 38.0589 92.5986 37.8135 92.5986 37.5596C92.2939 37.5596 92.002 37.5934 91.7227 37.6611C91.4434 37.7288 91.1344 37.7627 90.7959 37.7627C90.7959 37.6865 90.8086 37.6146 90.834 37.5469C90.8594 37.4707 90.9144 37.4157 90.999 37.3818L93.2969 36.4043L93.6396 36.0615C93.6735 35.9769 93.737 35.833 93.8301 35.6299C93.9232 35.4268 94.0205 35.2152 94.1221 34.9951C94.2321 34.7666 94.3337 34.5508 94.4268 34.3477C94.5199 34.1445 94.5876 34.0049 94.6299 33.9287C94.6299 33.9202 94.6468 33.8906 94.6807 33.8398C94.7145 33.7891 94.7484 33.7383 94.7822 33.6875C94.8245 33.6283 94.8584 33.5775 94.8838 33.5352C94.9176 33.4844 94.9388 33.4505 94.9473 33.4336C94.9473 33.3659 94.943 33.3066 94.9346 33.2559C94.9261 33.2051 94.8753 33.1501 94.7822 33.0908C93.9782 33.387 93.2038 33.6621 92.459 33.916C91.7142 34.1615 90.9567 34.4365 90.1865 34.7412C90.1781 34.7412 90.1611 34.7454 90.1357 34.7539C90.1188 34.7539 90.1019 34.7539 90.085 34.7539C90.0173 34.7539 89.958 34.7285 89.9072 34.6777C89.8649 34.627 89.8438 34.5677 89.8438 34.5C89.8438 34.4154 89.9834 34.2884 90.2627 34.1191C90.5505 33.9414 90.9102 33.7552 91.3418 33.5605C91.7734 33.3574 92.2474 33.1501 92.7637 32.9385C93.2884 32.7269 93.7878 32.5365 94.2617 32.3672C94.7357 32.1895 95.1546 32.0456 95.5186 31.9355C95.8825 31.8255 96.1279 31.7705 96.2549 31.7705C96.4326 31.7705 96.5892 31.8128 96.7246 31.8975C96.86 31.9821 96.9277 32.1344 96.9277 32.3545C96.9277 32.4222 96.9066 32.4772 96.8643 32.5195C96.8304 32.5618 96.7839 32.5999 96.7246 32.6338C96.6738 32.6592 96.6188 32.6846 96.5596 32.71C96.5088 32.7269 96.4665 32.748 96.4326 32.7734C96.3818 32.8158 96.3141 32.8792 96.2295 32.9639C96.1449 33.0485 96.056 33.1331 95.9629 33.2178C95.8783 33.3024 95.8021 33.3828 95.7344 33.459C95.6667 33.5267 95.6286 33.569 95.6201 33.5859C95.5439 33.7129 95.4466 33.8906 95.3281 34.1191C95.2181 34.3392 95.1123 34.5635 95.0107 34.792C94.9092 35.0205 94.8203 35.2279 94.7441 35.4141C94.668 35.5918 94.6299 35.6976 94.6299 35.7314V35.9727C94.6637 35.9727 94.723 35.9642 94.8076 35.9473C94.9007 35.9219 94.9938 35.9049 95.0869 35.8965C95.18 35.888 95.2604 35.9007 95.3281 35.9346C95.4043 35.9684 95.4424 36.0404 95.4424 36.1504C95.4424 36.252 95.3874 36.3366 95.2773 36.4043C95.235 36.4212 95.1589 36.4551 95.0488 36.5059C94.9473 36.5482 94.833 36.5947 94.7061 36.6455C94.5876 36.6963 94.4733 36.7471 94.3633 36.7979C94.2533 36.8402 94.1771 36.8698 94.1348 36.8867C93.7624 37.4961 93.3688 38.0547 92.9541 38.5625C92.5479 39.0703 92.0951 39.5062 91.5957 39.8701C91.1048 40.2256 90.5547 40.5049 89.9453 40.708C89.3444 40.9111 88.6715 41.0127 87.9268 41.0127C87.766 41.0127 87.584 40.9915 87.3809 40.9492C87.1862 40.9069 87 40.8392 86.8223 40.7461C86.653 40.6445 86.5091 40.5218 86.3906 40.3779C86.2721 40.2256 86.2129 40.0479 86.2129 39.8447ZM95.2139 39.3496C95.2139 39.1888 95.2223 39.0534 95.2393 38.9434C95.2562 38.8249 95.3112 38.6852 95.4043 38.5244L98.6924 32.5957H98.7432C98.7601 32.5957 98.7728 32.5957 98.7812 32.5957C98.7982 32.5872 98.8151 32.583 98.832 32.583C98.9505 32.583 99.069 32.6042 99.1875 32.6465C99.306 32.6888 99.3652 32.7819 99.3652 32.9258C99.3652 33.0104 99.3568 33.0739 99.3398 33.1162C99.3314 33.1585 99.3102 33.2008 99.2764 33.2432C99.251 33.277 99.2129 33.3193 99.1621 33.3701C99.1198 33.4124 99.069 33.4844 99.0098 33.5859C98.5951 34.3477 98.193 35.0967 97.8037 35.833C97.4229 36.5609 97.0039 37.2972 96.5469 38.042C96.4199 38.2367 96.3057 38.4271 96.2041 38.6133C96.1025 38.7995 96.0518 39.0238 96.0518 39.2861C96.0518 39.4808 96.0856 39.6374 96.1533 39.7559C96.221 39.8659 96.3141 39.9505 96.4326 40.0098C96.5596 40.069 96.7035 40.1113 96.8643 40.1367C97.0251 40.1536 97.1943 40.1663 97.3721 40.1748C97.3382 40.1156 97.3128 40.0309 97.2959 39.9209C97.279 39.8024 97.2917 39.6162 97.334 39.3623C97.3763 39.1084 97.4567 38.8333 97.5752 38.5371C97.6937 38.2324 97.8587 37.9489 98.0703 37.6865C98.2904 37.4157 98.5612 37.1872 98.8828 37.001C99.2129 36.8148 99.6107 36.7132 100.076 36.6963C100.381 36.6963 100.584 36.7598 100.686 36.8867C100.796 37.0052 100.851 37.2126 100.851 37.5088C100.851 37.932 100.741 38.3509 100.521 38.7656C100.3 39.1803 100.017 39.5527 99.6699 39.8828C99.3229 40.2129 98.9336 40.4837 98.502 40.6953C98.0703 40.8984 97.6387 41 97.207 41C96.9108 41 96.64 40.9746 96.3945 40.9238C96.1491 40.8646 95.9375 40.7715 95.7598 40.6445C95.5905 40.5176 95.4551 40.3483 95.3535 40.1367C95.2604 39.9251 95.2139 39.6628 95.2139 39.3496ZM99.6826 37.3818C99.488 37.4157 99.2975 37.5173 99.1113 37.6865C98.9336 37.8558 98.7728 38.0547 98.6289 38.2832C98.4935 38.5033 98.3835 38.7275 98.2988 38.9561C98.2142 39.1761 98.1719 39.3623 98.1719 39.5146C98.1719 39.54 98.1719 39.5993 98.1719 39.6924C98.1803 39.777 98.1888 39.8278 98.1973 39.8447C98.4004 39.7686 98.6162 39.6628 98.8447 39.5273C99.0817 39.3919 99.2975 39.2354 99.4922 39.0576C99.6953 38.8799 99.8604 38.681 99.9873 38.4609C100.123 38.2409 100.19 38.0081 100.19 37.7627C100.19 37.6188 100.165 37.5088 100.114 37.4326C100.063 37.3564 99.9196 37.3395 99.6826 37.3818ZM101.066 40.6699C101.066 40.543 101.109 40.4033 101.193 40.251C101.278 40.0902 101.375 39.9421 101.485 39.8066C101.604 39.6628 101.714 39.5358 101.815 39.4258C101.925 39.3158 102.006 39.2396 102.057 39.1973L104.85 34.0811C104.934 34.0133 105.01 33.9287 105.078 33.8271C105.146 33.7171 105.214 33.6156 105.281 33.5225C105.357 33.4209 105.438 33.3363 105.522 33.2686C105.616 33.2008 105.726 33.167 105.853 33.167C105.853 33.3024 105.836 33.4674 105.802 33.6621C105.776 33.8483 105.734 33.988 105.675 34.0811L103.275 38.3594C103.529 38.2578 103.762 38.2282 103.974 38.2705C104.194 38.3044 104.397 38.3763 104.583 38.4863C104.769 38.5964 104.943 38.7318 105.104 38.8926C105.273 39.0449 105.429 39.193 105.573 39.3369C105.726 39.4808 105.869 39.6035 106.005 39.7051C106.14 39.8066 106.276 39.8574 106.411 39.8574C106.707 39.8574 106.995 39.7093 107.274 39.4131C107.554 39.1169 107.82 38.736 108.074 38.2705C108.328 37.805 108.561 37.2887 108.772 36.7217C108.984 36.1546 109.166 35.6045 109.318 35.0713C109.471 34.5296 109.589 34.0387 109.674 33.5986C109.758 33.1501 109.801 32.8158 109.801 32.5957C109.801 32.4772 109.788 32.3503 109.763 32.2148C109.746 32.071 109.708 31.944 109.648 31.834C109.589 31.7155 109.509 31.6182 109.407 31.542C109.314 31.4658 109.191 31.4277 109.039 31.4277C108.811 31.4277 108.603 31.5251 108.417 31.7197C108.231 31.9144 108.062 32.1641 107.909 32.4688C107.757 32.7734 107.621 33.1162 107.503 33.4971C107.393 33.8695 107.296 34.2334 107.211 34.5889C107.135 34.9443 107.076 35.2702 107.033 35.5664C106.999 35.8626 106.982 36.0869 106.982 36.2393C106.982 36.4085 106.999 36.5693 107.033 36.7217C107.076 36.874 107.122 37.0221 107.173 37.166C107.224 37.3099 107.266 37.458 107.3 37.6104C107.342 37.7542 107.363 37.9066 107.363 38.0674C107.126 38.0674 106.936 38.0081 106.792 37.8896C106.657 37.7712 106.555 37.623 106.487 37.4453C106.42 37.2676 106.373 37.0771 106.348 36.874C106.331 36.6624 106.322 36.4678 106.322 36.29C106.322 36.0869 106.348 35.8034 106.398 35.4395C106.458 35.0755 106.538 34.6862 106.64 34.2715C106.75 33.8483 106.881 33.4209 107.033 32.9893C107.194 32.5576 107.376 32.1683 107.579 31.8213C107.791 31.4658 108.023 31.1781 108.277 30.958C108.54 30.7295 108.823 30.6152 109.128 30.6152C109.153 30.6152 109.208 30.6195 109.293 30.6279C109.386 30.6364 109.445 30.6406 109.471 30.6406C109.606 30.8099 109.725 30.9707 109.826 31.123C109.928 31.2754 110.012 31.4277 110.08 31.5801C110.156 31.7324 110.211 31.8932 110.245 32.0625C110.279 32.2318 110.296 32.4222 110.296 32.6338C110.296 32.8962 110.254 33.277 110.169 33.7764C110.093 34.2757 109.979 34.8258 109.826 35.4268C109.674 36.0192 109.488 36.6286 109.268 37.2549C109.048 37.8727 108.794 38.4355 108.506 38.9434C108.218 39.4512 107.901 39.8701 107.554 40.2002C107.207 40.5218 106.834 40.6826 106.437 40.6826C106.166 40.6826 105.933 40.6403 105.738 40.5557C105.552 40.471 105.387 40.3695 105.243 40.251C105.099 40.124 104.968 39.9886 104.85 39.8447C104.731 39.6924 104.608 39.557 104.481 39.4385C104.354 39.3115 104.215 39.2057 104.062 39.1211C103.91 39.0365 103.724 38.9941 103.504 38.9941C103.275 38.9941 103.076 39.0661 102.907 39.21C102.738 39.3538 102.59 39.5316 102.463 39.7432C102.336 39.9548 102.226 40.1748 102.133 40.4033C102.04 40.6318 101.959 40.8307 101.892 41C101.875 41 101.845 41 101.803 41C101.769 41.0085 101.743 41.0127 101.727 41.0127C101.684 41.0127 101.625 41.0042 101.549 40.9873C101.481 40.9704 101.409 40.9492 101.333 40.9238C101.265 40.89 101.202 40.8519 101.143 40.8096C101.092 40.7673 101.066 40.7207 101.066 40.6699ZM110.689 39.8447C110.689 39.7939 110.689 39.7305 110.689 39.6543C110.689 39.5781 110.698 39.5062 110.715 39.4385C110.732 39.3623 110.757 39.2988 110.791 39.248C110.825 39.1973 110.876 39.1719 110.943 39.1719C111.011 39.1719 111.083 39.2354 111.159 39.3623C111.244 39.4808 111.35 39.6162 111.477 39.7686C111.604 39.9124 111.76 40.0479 111.946 40.1748C112.141 40.2933 112.382 40.3525 112.67 40.3525C112.89 40.3525 113.152 40.3187 113.457 40.251C113.762 40.1833 114.075 40.0902 114.396 39.9717C114.727 39.8447 115.048 39.6966 115.361 39.5273C115.683 39.3496 115.971 39.1592 116.225 38.9561C116.479 38.7445 116.682 38.5244 116.834 38.2959C116.995 38.0589 117.075 37.8135 117.075 37.5596C116.771 37.5596 116.479 37.5934 116.199 37.6611C115.92 37.7288 115.611 37.7627 115.272 37.7627C115.272 37.6865 115.285 37.6146 115.311 37.5469C115.336 37.4707 115.391 37.4157 115.476 37.3818L117.773 36.4043L118.116 36.0615C118.15 35.9769 118.214 35.833 118.307 35.6299C118.4 35.4268 118.497 35.2152 118.599 34.9951C118.709 34.7666 118.81 34.5508 118.903 34.3477C118.996 34.1445 119.064 34.0049 119.106 33.9287C119.106 33.9202 119.123 33.8906 119.157 33.8398C119.191 33.7891 119.225 33.7383 119.259 33.6875C119.301 33.6283 119.335 33.5775 119.36 33.5352C119.394 33.4844 119.415 33.4505 119.424 33.4336C119.424 33.3659 119.42 33.3066 119.411 33.2559C119.403 33.2051 119.352 33.1501 119.259 33.0908C118.455 33.387 117.68 33.6621 116.936 33.916C116.191 34.1615 115.433 34.4365 114.663 34.7412C114.655 34.7412 114.638 34.7454 114.612 34.7539C114.595 34.7539 114.578 34.7539 114.562 34.7539C114.494 34.7539 114.435 34.7285 114.384 34.6777C114.341 34.627 114.32 34.5677 114.32 34.5C114.32 34.4154 114.46 34.2884 114.739 34.1191C115.027 33.9414 115.387 33.7552 115.818 33.5605C116.25 33.3574 116.724 33.1501 117.24 32.9385C117.765 32.7269 118.264 32.5365 118.738 32.3672C119.212 32.1895 119.631 32.0456 119.995 31.9355C120.359 31.8255 120.604 31.7705 120.731 31.7705C120.909 31.7705 121.066 31.8128 121.201 31.8975C121.337 31.9821 121.404 32.1344 121.404 32.3545C121.404 32.4222 121.383 32.4772 121.341 32.5195C121.307 32.5618 121.26 32.5999 121.201 32.6338C121.15 32.6592 121.095 32.6846 121.036 32.71C120.985 32.7269 120.943 32.748 120.909 32.7734C120.858 32.8158 120.791 32.8792 120.706 32.9639C120.621 33.0485 120.533 33.1331 120.439 33.2178C120.355 33.3024 120.279 33.3828 120.211 33.459C120.143 33.5267 120.105 33.569 120.097 33.5859C120.021 33.7129 119.923 33.8906 119.805 34.1191C119.695 34.3392 119.589 34.5635 119.487 34.792C119.386 35.0205 119.297 35.2279 119.221 35.4141C119.145 35.5918 119.106 35.6976 119.106 35.7314V35.9727C119.14 35.9727 119.2 35.9642 119.284 35.9473C119.377 35.9219 119.47 35.9049 119.563 35.8965C119.657 35.888 119.737 35.9007 119.805 35.9346C119.881 35.9684 119.919 36.0404 119.919 36.1504C119.919 36.252 119.864 36.3366 119.754 36.4043C119.712 36.4212 119.635 36.4551 119.525 36.5059C119.424 36.5482 119.31 36.5947 119.183 36.6455C119.064 36.6963 118.95 36.7471 118.84 36.7979C118.73 36.8402 118.654 36.8698 118.611 36.8867C118.239 37.4961 117.845 38.0547 117.431 38.5625C117.024 39.0703 116.572 39.5062 116.072 39.8701C115.581 40.2256 115.031 40.5049 114.422 40.708C113.821 40.9111 113.148 41.0127 112.403 41.0127C112.243 41.0127 112.061 40.9915 111.857 40.9492C111.663 40.9069 111.477 40.8392 111.299 40.7461C111.13 40.6445 110.986 40.5218 110.867 40.3779C110.749 40.2256 110.689 40.0479 110.689 39.8447ZM119.614 48.7568C119.614 48.2913 119.665 47.8216 119.767 47.3477C119.868 46.8822 119.995 46.4167 120.147 45.9512C120.308 45.4857 120.486 45.0286 120.681 44.5801C120.884 44.14 121.083 43.7168 121.277 43.3105V42.9805H120.592C120.592 42.8197 120.63 42.6885 120.706 42.5869C120.782 42.4938 120.88 42.4176 120.998 42.3584C121.117 42.2992 121.243 42.2526 121.379 42.2188C121.523 42.1934 121.654 42.1722 121.772 42.1553L122.598 40.6699V40.543C122.454 40.543 122.31 40.5684 122.166 40.6191C122.031 40.6699 121.891 40.7249 121.747 40.7842C121.612 40.835 121.468 40.8857 121.315 40.9365C121.172 40.9873 121.019 41.0127 120.858 41.0127C120.478 41.0127 120.202 40.9238 120.033 40.7461C119.864 40.5599 119.779 40.2848 119.779 39.9209C119.83 39.5908 119.965 39.2438 120.186 38.8799C120.406 38.516 120.676 38.1774 120.998 37.8643C121.328 37.5426 121.684 37.2718 122.064 37.0518C122.454 36.8317 122.835 36.7005 123.207 36.6582C123.588 36.6159 123.939 36.6878 124.261 36.874C124.591 37.0518 124.862 37.3903 125.073 37.8896C125.073 38.0843 125.039 38.2747 124.972 38.4609C124.904 38.6471 124.815 38.8291 124.705 39.0068C124.604 39.1761 124.481 39.3369 124.337 39.4893C124.201 39.6331 124.058 39.7559 123.905 39.8574L122.598 42.4854C122.598 42.4938 122.593 42.5065 122.585 42.5234C122.585 42.5404 122.585 42.5573 122.585 42.5742C122.585 42.6842 122.61 42.79 122.661 42.8916C122.72 42.9932 122.784 43.0947 122.852 43.1963C122.928 43.2979 123 43.3994 123.067 43.501C123.144 43.6025 123.203 43.7041 123.245 43.8057C123.44 44.3643 123.516 44.9229 123.474 45.4814C123.431 46.04 123.3 46.5775 123.08 47.0938C122.86 47.6185 122.564 48.1051 122.191 48.5537C121.819 49.0023 121.404 49.3916 120.947 49.7217C120.863 49.7979 120.782 49.8444 120.706 49.8613C120.63 49.8867 120.545 49.8994 120.452 49.8994C120.291 49.8994 120.156 49.8656 120.046 49.7979C119.944 49.7301 119.86 49.6413 119.792 49.5312C119.733 49.4212 119.686 49.2985 119.652 49.1631C119.627 49.0277 119.614 48.8923 119.614 48.7568ZM120.452 48.9727C120.689 48.9727 120.913 48.9007 121.125 48.7568C121.337 48.613 121.535 48.4225 121.722 48.1855C121.908 47.9486 122.073 47.682 122.217 47.3857C122.369 47.098 122.496 46.8018 122.598 46.4971C122.708 46.2008 122.788 45.9173 122.839 45.6465C122.898 45.3757 122.928 45.1429 122.928 44.9482C122.928 44.6266 122.852 44.3219 122.699 44.0342C122.547 43.7549 122.348 43.5137 122.103 43.3105L120.452 48.9727ZM120.604 39.7812C120.604 39.9421 120.634 40.0521 120.693 40.1113C120.753 40.1706 120.867 40.2002 121.036 40.2002C121.231 40.2002 121.497 40.1283 121.836 39.9844C122.183 39.832 122.521 39.6458 122.852 39.4258C123.19 39.1973 123.482 38.9476 123.728 38.6768C123.973 38.4059 124.096 38.1478 124.096 37.9023C124.096 37.6569 124.032 37.4834 123.905 37.3818C123.787 37.2718 123.592 37.2168 123.321 37.2168C123.186 37.2168 123.025 37.2591 122.839 37.3438C122.661 37.4284 122.471 37.5426 122.268 37.6865C122.064 37.8304 121.861 37.9954 121.658 38.1816C121.464 38.3594 121.286 38.5456 121.125 38.7402C120.973 38.9264 120.846 39.1126 120.744 39.2988C120.651 39.4766 120.604 39.6374 120.604 39.7812ZM125.619 40.6699C125.619 40.653 125.619 40.6276 125.619 40.5938C125.628 40.5514 125.632 40.5218 125.632 40.5049C125.818 39.9971 126.017 39.4342 126.229 38.8164C126.44 38.1986 126.656 37.568 126.876 36.9248C127.096 36.2816 127.312 35.6553 127.523 35.0459C127.735 34.4281 127.938 33.8652 128.133 33.3574C128.201 33.2135 128.268 33.1204 128.336 33.0781C128.412 33.0358 128.509 33.0146 128.628 33.0146C128.856 33.0146 128.971 33.1289 128.971 33.3574C128.954 33.5521 128.895 33.861 128.793 34.2842C128.691 34.7074 128.539 35.2321 128.336 35.8584C128.133 36.4847 127.875 37.2041 127.562 38.0166C127.257 38.8206 126.889 39.7051 126.457 40.6699C126.423 40.763 126.339 40.8434 126.203 40.9111C126.076 40.9788 125.97 41.0127 125.886 41.0127C125.793 41.0127 125.725 40.9788 125.683 40.9111C125.64 40.835 125.619 40.7546 125.619 40.6699ZM134.315 38.3975C134.197 38.3975 134.078 38.4652 133.96 38.6006C133.841 38.7275 133.71 38.8883 133.566 39.083C133.431 39.2777 133.279 39.4935 133.109 39.7305C132.94 39.959 132.745 40.1706 132.525 40.3652C132.314 40.5599 132.073 40.7249 131.802 40.8604C131.531 40.9873 131.222 41.0508 130.875 41.0508C130.714 41.0508 130.528 41.0423 130.316 41.0254C130.113 41.0169 129.919 40.9873 129.732 40.9365C129.555 40.8773 129.402 40.7884 129.275 40.6699C129.157 40.543 129.098 40.3695 129.098 40.1494C129.098 39.8532 129.187 39.5866 129.364 39.3496C129.55 39.1042 129.787 38.8841 130.075 38.6895C130.371 38.4948 130.697 38.3255 131.053 38.1816C131.417 38.0378 131.776 37.915 132.132 37.8135C132.487 37.7119 132.822 37.6315 133.135 37.5723C133.448 37.5046 133.702 37.4538 133.896 37.4199L136.372 33.4717C136.482 33.2939 136.63 33.1077 136.816 32.9131C137.003 32.7184 137.206 32.5407 137.426 32.3799C137.646 32.2106 137.874 32.071 138.111 31.9609C138.357 31.8509 138.59 31.7959 138.81 31.7959C138.852 31.7959 138.928 31.8044 139.038 31.8213C139.157 31.8382 139.271 31.8975 139.381 31.999C139.499 32.1006 139.601 32.2656 139.686 32.4941C139.779 32.7227 139.825 33.0485 139.825 33.4717C139.766 33.4886 139.711 33.5182 139.66 33.5605C139.609 33.5944 139.55 33.6325 139.482 33.6748C139.423 33.7087 139.351 33.7425 139.267 33.7764C139.19 33.8018 139.102 33.8145 139 33.8145C139.135 33.5352 139.182 33.3151 139.14 33.1543C139.106 32.985 139.021 32.8708 138.886 32.8115C138.75 32.7523 138.581 32.7396 138.378 32.7734C138.175 32.8073 137.972 32.8792 137.769 32.9893C137.565 33.0908 137.379 33.2262 137.21 33.3955C137.049 33.5648 136.935 33.7552 136.867 33.9668L134.722 37.5977V37.7627C135.069 38.0081 135.331 38.2747 135.509 38.5625C135.695 38.8503 135.835 39.1423 135.928 39.4385C136.029 39.7262 136.105 40.0098 136.156 40.2891C136.207 40.5684 136.271 40.818 136.347 41.0381C136.431 41.2666 136.546 41.4528 136.689 41.5967C136.842 41.749 137.066 41.8421 137.362 41.876C137.362 41.8844 137.362 41.8971 137.362 41.9141C137.371 41.931 137.375 41.9437 137.375 41.9521C137.375 42.0537 137.333 42.1299 137.248 42.1807C137.172 42.2399 137.079 42.2822 136.969 42.3076C136.859 42.3415 136.744 42.3626 136.626 42.3711C136.516 42.3796 136.427 42.3838 136.359 42.3838C136.182 42.2314 136.034 42.0283 135.915 41.7744C135.805 41.5205 135.708 41.2497 135.623 40.9619C135.538 40.6657 135.458 40.3695 135.382 40.0732C135.314 39.7686 135.234 39.4977 135.141 39.2607C135.048 39.0153 134.938 38.8122 134.811 38.6514C134.684 38.4906 134.519 38.4059 134.315 38.3975ZM129.783 39.9717C129.783 40.0732 129.817 40.1536 129.885 40.2129C129.961 40.2721 130.05 40.3145 130.151 40.3398C130.253 40.3652 130.354 40.3822 130.456 40.3906C130.566 40.3991 130.651 40.4033 130.71 40.4033C130.938 40.4033 131.192 40.3441 131.472 40.2256C131.751 40.0986 132.009 39.9378 132.246 39.7432C132.492 39.5485 132.695 39.3327 132.855 39.0957C133.025 38.8503 133.109 38.6048 133.109 38.3594C132.449 38.3594 131.831 38.4779 131.256 38.7148C130.689 38.9434 130.202 39.3369 129.796 39.8955C129.796 39.904 129.792 39.9167 129.783 39.9336C129.783 39.9505 129.783 39.9632 129.783 39.9717ZM139.901 38.3594C139.994 38.2663 140.045 38.1647 140.054 38.0547C140.062 37.9447 140.066 37.8304 140.066 37.7119C140.066 37.1872 139.961 36.8275 139.749 36.6328C139.546 36.4297 139.19 36.3281 138.683 36.3281C138.683 36.252 138.721 36.1927 138.797 36.1504C138.882 36.1081 138.975 36.0827 139.076 36.0742C139.186 36.0573 139.288 36.0488 139.381 36.0488C139.474 36.0488 139.533 36.0488 139.559 36.0488C139.762 36.0488 139.944 36.0954 140.104 36.1885C140.265 36.2731 140.401 36.3662 140.511 36.4678C140.629 36.5693 140.722 36.6667 140.79 36.7598C140.866 36.8444 140.921 36.8867 140.955 36.8867C141.031 36.8867 141.103 36.8698 141.171 36.8359C141.247 36.8021 141.315 36.764 141.374 36.7217C141.433 36.6709 141.543 36.5863 141.704 36.4678C141.865 36.3408 142.03 36.2096 142.199 36.0742C142.377 35.9303 142.542 35.7992 142.694 35.6807C142.855 35.5537 142.965 35.4648 143.024 35.4141C143.05 35.4056 143.092 35.3929 143.151 35.376C143.219 35.359 143.287 35.3421 143.354 35.3252C143.422 35.2998 143.486 35.2786 143.545 35.2617C143.613 35.2448 143.659 35.2363 143.685 35.2363H143.723C143.731 35.2363 143.74 35.2363 143.748 35.2363C143.757 35.2279 143.765 35.2236 143.773 35.2236C143.841 35.2236 143.9 35.2533 143.951 35.3125C144.002 35.3717 144.027 35.4352 144.027 35.5029C144.027 35.5876 143.985 35.6468 143.9 35.6807C143.816 35.7061 143.714 35.7272 143.596 35.7441C143.486 35.7611 143.376 35.778 143.266 35.7949C143.156 35.8118 143.075 35.8499 143.024 35.9092L141.222 38.042V39.6924H142.91C142.91 39.8701 142.864 40.0055 142.771 40.0986C142.677 40.1917 142.563 40.2594 142.428 40.3018C142.292 40.3356 142.144 40.3568 141.983 40.3652C141.823 40.3652 141.679 40.3652 141.552 40.3652C141.162 40.3652 140.845 40.234 140.6 39.9717C140.354 39.7093 140.172 39.3919 140.054 39.0195C139.961 39.1719 139.834 39.3581 139.673 39.5781C139.521 39.7897 139.347 39.9971 139.152 40.2002C138.966 40.3949 138.763 40.5641 138.543 40.708C138.331 40.8434 138.124 40.9111 137.921 40.9111V40.3398L139.901 38.3594ZM148.115 44.123C148.115 43.4629 148.124 42.8366 148.141 42.2441C148.166 41.6517 148.217 41.0169 148.293 40.3398C148.268 40.0859 148.238 39.8109 148.204 39.5146C148.17 39.21 148.115 38.9137 148.039 38.626C147.971 38.3298 147.874 38.0589 147.747 37.8135C147.629 37.568 147.472 37.3776 147.277 37.2422C146.888 37.7077 146.566 38.1351 146.312 38.5244C146.067 38.9053 145.864 39.2438 145.703 39.54C145.551 39.8278 145.428 40.069 145.335 40.2637C145.242 40.4499 145.157 40.5811 145.081 40.6572C145.005 40.7334 144.924 40.7461 144.84 40.6953C144.755 40.6445 144.645 40.526 144.51 40.3398C144.662 40.0944 144.857 39.777 145.094 39.3877C145.331 38.9899 145.589 38.5498 145.868 38.0674C146.156 37.585 146.456 37.0771 146.77 36.5439C147.083 36.0023 147.392 35.4733 147.696 34.957C148.009 34.4323 148.306 33.9329 148.585 33.459C148.864 32.985 149.114 32.5703 149.334 32.2148C149.41 32.181 149.469 32.1641 149.512 32.1641C149.562 32.1641 149.596 32.1725 149.613 32.1895C149.639 32.2064 149.651 32.2275 149.651 32.2529C149.66 32.2699 149.664 32.2826 149.664 32.291C149.664 32.5195 149.605 32.7946 149.486 33.1162C149.376 33.4378 149.237 33.7679 149.067 34.1064C148.907 34.4365 148.737 34.7497 148.56 35.0459C148.39 35.3337 148.242 35.5579 148.115 35.7188C148.369 35.6595 148.64 35.5495 148.928 35.3887C149.224 35.2279 149.516 35.0459 149.804 34.8428C150.1 34.6396 150.388 34.4238 150.667 34.1953C150.955 33.9668 151.221 33.7594 151.467 33.5732C151.721 33.387 151.949 33.2347 152.152 33.1162C152.355 32.9893 152.525 32.9258 152.66 32.9258C152.702 32.9258 152.745 32.9469 152.787 32.9893C152.829 33.0316 152.868 33.0866 152.901 33.1543C152.935 33.2135 152.961 33.277 152.978 33.3447C153.003 33.404 153.016 33.4505 153.016 33.4844C152.872 33.4844 152.677 33.5605 152.432 33.7129C152.186 33.8568 151.865 34.0684 151.467 34.3477C151.069 34.627 150.582 34.9655 150.007 35.3633C149.44 35.7526 148.763 36.1885 147.976 36.6709C148.069 36.7979 148.17 36.9502 148.28 37.1279C148.399 37.3057 148.505 37.4919 148.598 37.6865C148.699 37.8812 148.784 38.0801 148.852 38.2832C148.919 38.4863 148.953 38.6768 148.953 38.8545C148.995 39.7178 148.983 40.5768 148.915 41.4316C148.847 42.2865 148.801 43.1243 148.775 43.9453C149.122 44.0215 149.364 44.1019 149.499 44.1865C149.643 44.2796 149.711 44.36 149.702 44.4277C149.694 44.5039 149.626 44.5632 149.499 44.6055C149.381 44.6478 149.237 44.6605 149.067 44.6436C148.907 44.6351 148.737 44.5885 148.56 44.5039C148.382 44.4277 148.234 44.3008 148.115 44.123ZM158.779 40.4287C158.779 40.2171 158.792 40.0055 158.817 39.7939C158.851 39.5824 158.885 39.375 158.919 39.1719C158.961 38.9603 158.995 38.7487 159.021 38.5371C159.054 38.3171 159.071 38.097 159.071 37.877C158.792 37.877 158.551 37.8896 158.348 37.915C158.145 37.9404 157.946 37.9658 157.751 37.9912C157.556 38.0166 157.349 38.0378 157.129 38.0547C156.909 38.0632 156.642 38.0589 156.329 38.042C156.101 38.2959 155.838 38.5667 155.542 38.8545C155.254 39.1423 154.945 39.4089 154.615 39.6543C154.285 39.8997 153.938 40.1071 153.574 40.2764C153.21 40.4372 152.842 40.5176 152.47 40.5176C152.216 40.5176 151.97 40.4753 151.733 40.3906C151.505 40.306 151.302 40.1875 151.124 40.0352C150.946 39.8828 150.807 39.7008 150.705 39.4893C150.604 39.2692 150.553 39.028 150.553 38.7656C150.553 38.6302 150.574 38.5286 150.616 38.4609C150.667 38.3848 150.769 38.3467 150.921 38.3467C150.997 38.3467 151.065 38.4186 151.124 38.5625C151.183 38.6979 151.259 38.8545 151.353 39.0322C151.454 39.2015 151.581 39.3581 151.733 39.502C151.886 39.6374 152.093 39.7051 152.355 39.7051C152.677 39.7051 152.99 39.6458 153.295 39.5273C153.608 39.4004 153.904 39.2438 154.184 39.0576C154.471 38.863 154.738 38.6471 154.983 38.4102C155.237 38.1732 155.466 37.9404 155.669 37.7119C155.644 37.5003 155.567 37.3438 155.44 37.2422C155.313 37.1406 155.178 37.0391 155.034 36.9375C154.899 36.8359 154.776 36.7005 154.666 36.5312C154.556 36.362 154.501 36.0954 154.501 35.7314C154.501 35.2152 154.658 34.8132 154.971 34.5254C155.284 34.2292 155.711 34.0811 156.253 34.0811C156.414 34.0811 156.57 34.098 156.723 34.1318C156.883 34.1657 157.044 34.208 157.205 34.2588C157.366 34.3011 157.522 34.3392 157.675 34.373C157.836 34.4069 157.996 34.4238 158.157 34.4238C158.259 34.4238 158.339 34.4111 158.398 34.3857C158.466 34.3604 158.525 34.3223 158.576 34.2715C158.627 34.2207 158.682 34.153 158.741 34.0684C158.8 33.9837 158.877 33.8822 158.97 33.7637C159.021 33.696 159.097 33.5902 159.198 33.4463C159.308 33.2939 159.427 33.1289 159.554 32.9512C159.681 32.765 159.816 32.5703 159.96 32.3672C160.104 32.1641 160.239 31.9694 160.366 31.7832C160.493 31.597 160.607 31.432 160.709 31.2881C160.811 31.1442 160.882 31.0342 160.925 30.958C161.018 30.8818 161.103 30.8353 161.179 30.8184C161.255 30.793 161.344 30.7803 161.445 30.7803C161.547 30.7803 161.623 30.8184 161.674 30.8945C161.725 30.9622 161.754 31.0469 161.763 31.1484C161.78 31.25 161.784 31.3558 161.775 31.4658C161.775 31.5674 161.775 31.6478 161.775 31.707C161.775 31.7324 161.775 31.7747 161.775 31.834C161.775 31.8848 161.771 31.9398 161.763 31.999C161.763 32.0583 161.763 32.1175 161.763 32.1768C161.763 32.2275 161.763 32.2614 161.763 32.2783C161.737 32.363 161.695 32.4899 161.636 32.6592C161.585 32.8285 161.526 33.0231 161.458 33.2432C161.39 33.4548 161.318 33.679 161.242 33.916C161.174 34.153 161.107 34.3815 161.039 34.6016C160.98 34.8216 160.925 35.0163 160.874 35.1855C160.823 35.3548 160.789 35.4818 160.772 35.5664C160.764 35.6087 160.751 35.6764 160.734 35.7695C160.717 35.8626 160.701 35.9642 160.684 36.0742C160.667 36.1758 160.65 36.2731 160.633 36.3662C160.616 36.4593 160.607 36.5228 160.607 36.5566C160.684 36.5736 160.76 36.599 160.836 36.6328C160.912 36.6667 160.95 36.7217 160.95 36.7979C160.95 36.8825 160.916 36.9502 160.849 37.001C160.789 37.0518 160.717 37.0983 160.633 37.1406C160.548 37.1829 160.468 37.2337 160.392 37.293C160.324 37.3522 160.286 37.4368 160.277 37.5469C160.26 37.6484 160.231 37.8346 160.188 38.1055C160.146 38.3678 160.095 38.6514 160.036 38.9561C159.985 39.2523 159.935 39.5316 159.884 39.7939C159.841 40.0563 159.808 40.2383 159.782 40.3398C159.774 40.3652 159.757 40.4118 159.731 40.4795C159.706 40.5472 159.676 40.6149 159.643 40.6826C159.609 40.7503 159.575 40.8138 159.541 40.873C159.507 40.9323 159.482 40.9746 159.465 41C159.262 40.9577 159.097 40.9069 158.97 40.8477C158.843 40.7799 158.779 40.6403 158.779 40.4287ZM158.563 35.5537C158.462 35.5537 158.318 35.6257 158.132 35.7695C157.954 35.9134 157.776 36.0827 157.599 36.2773C157.421 36.4635 157.264 36.654 157.129 36.8486C156.993 37.0348 156.926 37.1745 156.926 37.2676C156.977 37.2676 157.074 37.2676 157.218 37.2676C157.37 37.2591 157.527 37.2549 157.688 37.2549C157.857 37.2464 158.013 37.238 158.157 37.2295C158.31 37.221 158.415 37.2168 158.475 37.2168C158.508 37.2168 158.559 37.2083 158.627 37.1914C158.703 37.1745 158.775 37.1576 158.843 37.1406C158.91 37.1237 158.97 37.1068 159.021 37.0898C159.08 37.0729 159.114 37.0602 159.122 37.0518C159.131 37.0518 159.135 37.0264 159.135 36.9756C159.135 36.9163 159.135 36.8698 159.135 36.8359C159.135 36.7682 159.122 36.6624 159.097 36.5186C159.08 36.3747 159.046 36.2308 158.995 36.0869C158.953 35.943 158.894 35.8203 158.817 35.7188C158.75 35.6087 158.665 35.5537 158.563 35.5537ZM154.996 35.5664C154.996 35.6849 155.038 35.8203 155.123 35.9727C155.208 36.125 155.313 36.2689 155.44 36.4043C155.567 36.5397 155.703 36.654 155.847 36.7471C155.991 36.8402 156.126 36.8867 156.253 36.8867C156.371 36.8867 156.511 36.8148 156.672 36.6709C156.833 36.527 156.985 36.362 157.129 36.1758C157.281 35.9811 157.408 35.7949 157.51 35.6172C157.611 35.4395 157.662 35.3167 157.662 35.249C157.662 35.1051 157.611 34.9993 157.51 34.9316C157.417 34.8555 157.302 34.8047 157.167 34.7793C157.04 34.7454 156.905 34.7285 156.761 34.7285C156.617 34.7285 156.498 34.7285 156.405 34.7285C156.287 34.7285 156.143 34.7412 155.974 34.7666C155.813 34.7835 155.66 34.8216 155.517 34.8809C155.373 34.9401 155.25 35.0247 155.148 35.1348C155.047 35.2448 154.996 35.3887 154.996 35.5664ZM158.805 34.9189C158.991 35.139 159.164 35.376 159.325 35.6299C159.486 35.8838 159.638 36.1419 159.782 36.4043L160.912 32.3418L158.805 34.9189ZM161.61 40.6699C161.61 40.3568 161.695 40.0182 161.864 39.6543C162.042 39.2904 162.232 38.9264 162.436 38.5625C162.647 38.1901 162.838 37.8262 163.007 37.4707C163.185 37.1152 163.273 36.7852 163.273 36.4805C163.273 36.362 163.244 36.252 163.185 36.1504C163.134 36.0404 163.075 35.9346 163.007 35.833C162.948 35.723 162.893 35.6172 162.842 35.5156C162.791 35.4056 162.766 35.2871 162.766 35.1602C162.766 35.0163 162.821 34.8766 162.931 34.7412C163.049 34.6058 163.18 34.5381 163.324 34.5381C163.324 34.6143 163.328 34.7074 163.337 34.8174C163.345 34.9189 163.362 35.0205 163.388 35.1221C163.422 35.2236 163.468 35.3167 163.527 35.4014C163.587 35.4775 163.667 35.5326 163.769 35.5664C163.853 35.3379 163.98 35.0417 164.149 34.6777C164.327 34.3053 164.535 33.9118 164.771 33.4971C165.017 33.0739 165.279 32.6549 165.559 32.2402C165.846 31.8171 166.138 31.4362 166.435 31.0977C166.739 30.7591 167.044 30.484 167.349 30.2725C167.653 30.0609 167.941 29.9551 168.212 29.9551C168.415 29.9551 168.589 29.9974 168.732 30.082C168.885 30.1667 169.007 30.2809 169.101 30.4248C169.194 30.5602 169.261 30.7168 169.304 30.8945C169.346 31.0723 169.367 31.2542 169.367 31.4404C169.367 32.126 169.219 32.7692 168.923 33.3701C168.635 33.9626 168.25 34.4873 167.768 34.9443C167.294 35.3929 166.752 35.7611 166.143 36.0488C165.533 36.3281 164.907 36.4974 164.264 36.5566L163.921 37.0518L162.448 40.6699C162.381 40.8138 162.309 40.9069 162.232 40.9492C162.165 40.9915 162.076 41.0127 161.966 41.0127C161.729 41.0127 161.61 40.8984 161.61 40.6699ZM168.047 30.7803C167.81 30.7803 167.564 30.8691 167.311 31.0469C167.065 31.2161 166.82 31.4404 166.574 31.7197C166.329 31.999 166.096 32.3122 165.876 32.6592C165.656 33.0062 165.461 33.3532 165.292 33.7002C165.123 34.0387 164.987 34.3604 164.886 34.665C164.793 34.9697 164.746 35.2194 164.746 35.4141C164.746 35.431 164.746 35.4818 164.746 35.5664C164.755 35.651 164.759 35.7061 164.759 35.7314C165.292 35.7061 165.791 35.5622 166.257 35.2998C166.722 35.029 167.124 34.6862 167.463 34.2715C167.801 33.8568 168.068 33.3955 168.263 32.8877C168.457 32.3714 168.555 31.8594 168.555 31.3516C168.555 31.1146 168.529 30.9622 168.479 30.8945C168.428 30.8184 168.284 30.7803 168.047 30.7803ZM166.65 39.5908C166.65 39.43 166.672 39.2904 166.714 39.1719C166.765 39.0534 166.887 38.9941 167.082 38.9941C167.099 38.9941 167.137 38.9984 167.196 39.0068C167.264 39.0068 167.311 39.0111 167.336 39.0195C167.327 39.4173 167.391 39.7178 167.526 39.9209C167.662 40.1156 167.916 40.2129 168.288 40.2129C168.593 40.2129 168.893 40.1663 169.189 40.0732C169.486 39.9801 169.752 39.8447 169.989 39.667C170.235 39.4808 170.429 39.2565 170.573 38.9941C170.726 38.7318 170.802 38.4355 170.802 38.1055C170.802 37.9023 170.73 37.7585 170.586 37.6738C170.451 37.5892 170.298 37.5215 170.129 37.4707C169.96 37.4199 169.803 37.3649 169.659 37.3057C169.524 37.238 169.456 37.1237 169.456 36.9629C169.456 36.7682 169.575 36.582 169.812 36.4043C170.049 36.2266 170.328 36.07 170.649 35.9346C170.971 35.7907 171.288 35.6807 171.602 35.6045C171.923 35.5199 172.169 35.4775 172.338 35.4775C172.338 35.723 172.283 35.8965 172.173 35.998C172.071 36.0996 171.944 36.18 171.792 36.2393C171.64 36.2985 171.483 36.3577 171.322 36.417C171.17 36.4678 171.043 36.5693 170.941 36.7217C171.077 36.8317 171.187 36.9333 171.271 37.0264C171.365 37.111 171.437 37.2041 171.487 37.3057C171.538 37.4072 171.572 37.5215 171.589 37.6484C171.606 37.7669 171.614 37.9108 171.614 38.0801C171.614 38.5202 171.517 38.9222 171.322 39.2861C171.136 39.6416 170.891 39.9505 170.586 40.2129C170.281 40.4668 169.934 40.6657 169.545 40.8096C169.156 40.945 168.758 41.0127 168.352 41.0127C168.132 41.0127 167.916 40.9873 167.704 40.9365C167.501 40.8773 167.319 40.7884 167.158 40.6699C167.006 40.5514 166.883 40.4033 166.79 40.2256C166.697 40.0479 166.65 39.8363 166.65 39.5908ZM172.731 40.2002C172.731 40.1748 172.731 40.141 172.731 40.0986C172.74 40.0479 172.744 40.0182 172.744 40.0098C172.77 39.7559 172.799 39.4342 172.833 39.0449C172.867 38.6471 172.901 38.2663 172.935 37.9023C172.977 37.5384 173.011 37.2253 173.036 36.9629C173.062 36.6921 173.074 36.5566 173.074 36.5566L173.417 36.2266C173.561 36.2689 173.667 36.3281 173.734 36.4043C173.802 36.472 173.849 36.5482 173.874 36.6328C173.899 36.7174 173.912 36.8105 173.912 36.9121C173.912 37.0137 173.912 37.1152 173.912 37.2168C173.912 37.5723 173.878 37.9193 173.811 38.2578C173.751 38.5879 173.722 38.9264 173.722 39.2734C173.722 39.2904 173.722 39.3327 173.722 39.4004C173.73 39.4596 173.734 39.4977 173.734 39.5146L176.857 36.2266C176.866 36.2181 176.887 36.2139 176.921 36.2139C176.963 36.2139 176.993 36.2139 177.01 36.2139C177.094 36.2139 177.175 36.2308 177.251 36.2646C177.327 36.2985 177.365 36.3704 177.365 36.4805C177.365 36.4889 177.361 36.4974 177.353 36.5059C177.353 36.5059 177.353 36.5101 177.353 36.5186V36.5566C177.31 36.6243 177.234 36.7344 177.124 36.8867C177.022 37.0391 176.908 37.2041 176.781 37.3818C176.663 37.5596 176.549 37.7288 176.438 37.8896C176.328 38.042 176.252 38.1478 176.21 38.207C176.066 38.3848 175.897 38.5964 175.702 38.8418C175.516 39.0872 175.313 39.3369 175.093 39.5908C174.881 39.8363 174.657 40.0732 174.42 40.3018C174.191 40.5218 173.963 40.6995 173.734 40.835C173.692 40.8604 173.629 40.8942 173.544 40.9365C173.468 40.9788 173.425 41 173.417 41C173.324 41 173.235 40.9746 173.15 40.9238C173.074 40.8646 173.002 40.7926 172.935 40.708C172.875 40.6234 172.825 40.5387 172.782 40.4541C172.748 40.361 172.731 40.2764 172.731 40.2002ZM175.436 47.7412C175.436 47.2588 175.52 46.8271 175.689 46.4463C175.85 46.0654 176.066 45.71 176.337 45.3799C176.608 45.0583 176.917 44.7578 177.264 44.4785C177.611 44.2077 177.966 43.9411 178.33 43.6787C178.694 43.4248 179.049 43.1667 179.396 42.9043C179.743 42.6419 180.052 42.3626 180.323 42.0664C180.594 41.7702 180.81 41.4486 180.971 41.1016C181.14 40.7546 181.225 40.3695 181.225 39.9463C181.225 39.9294 181.225 39.8913 181.225 39.832C181.225 39.7643 181.22 39.722 181.212 39.7051C181.153 39.7559 181.038 39.832 180.869 39.9336C180.7 40.0267 180.518 40.1283 180.323 40.2383C180.137 40.3398 179.955 40.4329 179.777 40.5176C179.6 40.6022 179.473 40.6572 179.396 40.6826C179.388 40.6826 179.354 40.6868 179.295 40.6953C179.244 40.7038 179.181 40.7122 179.104 40.7207C179.037 40.7292 178.969 40.7376 178.901 40.7461C178.834 40.7461 178.779 40.7461 178.736 40.7461C178.355 40.6784 178.102 40.5472 177.975 40.3525C177.848 40.1494 177.814 39.9124 177.873 39.6416C177.932 39.3708 178.063 39.083 178.267 38.7783C178.478 38.4652 178.728 38.1689 179.016 37.8896C179.312 37.6019 179.629 37.348 179.968 37.1279C180.315 36.8994 180.649 36.7386 180.971 36.6455C181.301 36.5439 181.601 36.5228 181.872 36.582C182.151 36.6328 182.367 36.7979 182.52 37.0771C182.57 37.4326 182.57 37.7669 182.52 38.0801C182.469 38.3848 182.401 38.6852 182.316 38.9814C182.232 39.2777 182.147 39.5781 182.062 39.8828C181.978 40.179 181.927 40.5049 181.91 40.8604H182.024C182.075 40.8096 182.16 40.7207 182.278 40.5938C182.405 40.4668 182.536 40.3356 182.672 40.2002C182.816 40.0563 182.951 39.9251 183.078 39.8066C183.205 39.6797 183.294 39.5908 183.345 39.54C183.37 39.5146 183.421 39.4808 183.497 39.4385C183.582 39.3962 183.641 39.375 183.675 39.375V39.4131V39.4385C183.675 39.4469 183.679 39.4512 183.688 39.4512C183.688 39.7559 183.599 40.0352 183.421 40.2891C183.252 40.543 183.044 40.7799 182.799 41C182.553 41.2201 182.299 41.4232 182.037 41.6094C181.775 41.804 181.555 41.9902 181.377 42.168C181.233 42.4642 181.076 42.8324 180.907 43.2725C180.738 43.721 180.552 44.195 180.349 44.6943C180.146 45.2021 179.917 45.7142 179.663 46.2305C179.418 46.7552 179.138 47.2376 178.825 47.6777C178.521 48.1178 178.182 48.4945 177.81 48.8076C177.437 49.1292 177.022 49.3366 176.565 49.4297C176.345 49.4297 176.163 49.3747 176.02 49.2646C175.867 49.1546 175.749 49.015 175.664 48.8457C175.579 48.6849 175.52 48.5029 175.486 48.2998C175.452 48.1051 175.436 47.9189 175.436 47.7412ZM176.108 48.4268C176.176 48.5876 176.257 48.6849 176.35 48.7188C176.443 48.7526 176.549 48.7695 176.667 48.7695C176.887 48.7695 177.128 48.6553 177.391 48.4268C177.653 48.1982 177.915 47.902 178.178 47.5381C178.449 47.1826 178.707 46.7848 178.952 46.3447C179.198 45.9046 179.413 45.4772 179.6 45.0625C179.794 44.6478 179.947 44.2669 180.057 43.9199C180.175 43.5814 180.234 43.3275 180.234 43.1582C180.234 43.1413 180.23 43.1117 180.222 43.0693C180.222 43.0355 180.222 43.0101 180.222 42.9932C180.196 43.0101 180.137 43.0355 180.044 43.0693C179.959 43.1117 179.909 43.1413 179.892 43.1582C179.536 43.4206 179.134 43.7083 178.686 44.0215C178.245 44.3431 177.835 44.6943 177.454 45.0752C177.065 45.4561 176.739 45.8665 176.477 46.3066C176.214 46.7552 176.083 47.2376 176.083 47.7539C176.083 47.7793 176.083 47.8258 176.083 47.8936C176.083 47.9613 176.087 48.029 176.096 48.0967C176.096 48.1644 176.1 48.2279 176.108 48.2871C176.108 48.3548 176.108 48.4014 176.108 48.4268ZM181.707 37.2295C181.572 37.2295 181.394 37.276 181.174 37.3691C180.954 37.4538 180.717 37.5723 180.463 37.7246C180.217 37.877 179.968 38.0505 179.714 38.2451C179.46 38.4398 179.227 38.6429 179.016 38.8545C178.812 39.0661 178.647 39.2777 178.521 39.4893C178.394 39.7008 178.33 39.8955 178.33 40.0732C178.508 40.0732 178.724 40.0394 178.978 39.9717C179.231 39.8955 179.494 39.7982 179.765 39.6797C180.044 39.5527 180.319 39.4089 180.59 39.248C180.861 39.0788 181.102 38.901 181.313 38.7148C181.534 38.5286 181.711 38.3382 181.847 38.1436C181.982 37.9489 182.05 37.7585 182.05 37.5723C182.05 37.3438 181.936 37.2295 181.707 37.2295ZM193.019 40.416C193.019 39.9251 193.082 39.43 193.209 38.9307C193.344 38.4229 193.509 37.9235 193.704 37.4326C193.907 36.9417 194.123 36.4678 194.352 36.0107C194.58 35.5452 194.796 35.1094 194.999 34.7031V34.5381C194.906 34.6396 194.758 34.8005 194.555 35.0205C194.36 35.2321 194.136 35.4733 193.882 35.7441C193.636 36.015 193.374 36.3027 193.095 36.6074C192.824 36.9036 192.562 37.1872 192.308 37.458C192.062 37.7288 191.842 37.9743 191.647 38.1943C191.453 38.4059 191.309 38.5625 191.216 38.6641C191.123 38.7656 191.034 38.918 190.949 39.1211C190.865 39.3158 190.771 39.5146 190.67 39.7178C190.568 39.9209 190.454 40.0986 190.327 40.251C190.209 40.4033 190.073 40.4795 189.921 40.4795C189.794 40.4795 189.692 40.4668 189.616 40.4414C189.549 40.416 189.498 40.3779 189.464 40.3271C189.43 40.2679 189.409 40.196 189.4 40.1113C189.392 40.0267 189.388 39.9251 189.388 39.8066C189.388 39.1803 189.477 38.5752 189.654 37.9912C189.84 37.3988 190.035 36.7979 190.238 36.1885V36.0234C190.221 36.0404 190.192 36.07 190.149 36.1123C190.107 36.1462 190.082 36.1715 190.073 36.1885C189.87 36.4932 189.663 36.8232 189.451 37.1787C189.24 37.5257 189.02 37.8727 188.791 38.2197C188.562 38.5583 188.317 38.8841 188.055 39.1973C187.792 39.5104 187.509 39.7897 187.204 40.0352C186.899 40.2721 186.565 40.4626 186.201 40.6064C185.846 40.7503 185.452 40.8223 185.021 40.8223C184.927 40.8223 184.8 40.818 184.64 40.8096C184.487 40.8011 184.335 40.7757 184.183 40.7334C184.039 40.6911 183.912 40.6234 183.802 40.5303C183.7 40.4372 183.649 40.306 183.649 40.1367C183.649 40.069 183.688 39.9844 183.764 39.8828C183.848 39.7728 183.92 39.6966 183.979 39.6543C184.098 39.849 184.195 39.9801 184.271 40.0479C184.356 40.1071 184.475 40.1367 184.627 40.1367C184.881 40.1367 185.147 40.0986 185.427 40.0225C185.715 39.9378 185.99 39.8278 186.252 39.6924C186.523 39.557 186.777 39.4004 187.014 39.2227C187.251 39.0449 187.45 38.8587 187.61 38.6641C187.737 38.4948 187.89 38.279 188.067 38.0166C188.254 37.7458 188.448 37.4538 188.651 37.1406C188.863 36.819 189.079 36.4932 189.299 36.1631C189.519 35.833 189.73 35.5199 189.934 35.2236C190.145 34.9189 190.34 34.6481 190.518 34.4111C190.695 34.1742 190.848 33.9964 190.975 33.8779C191.093 33.8779 191.182 33.8991 191.241 33.9414C191.3 33.9753 191.343 34.026 191.368 34.0938C191.394 34.1615 191.406 34.2419 191.406 34.335C191.406 34.4281 191.406 34.5254 191.406 34.627C191.406 34.9824 191.351 35.3294 191.241 35.668C191.14 36.0065 191.025 36.3366 190.898 36.6582C190.771 36.9714 190.653 37.2803 190.543 37.585C190.441 37.8896 190.391 38.1901 190.391 38.4863C190.391 38.5033 190.391 38.5329 190.391 38.5752C190.399 38.6175 190.403 38.6471 190.403 38.6641C191.199 37.7839 191.884 37.0221 192.46 36.3789C193.035 35.7357 193.522 35.1898 193.92 34.7412C194.326 34.2842 194.656 33.916 194.91 33.6367C195.164 33.349 195.367 33.1289 195.52 32.9766C195.672 32.8158 195.786 32.7057 195.862 32.6465C195.947 32.5872 196.015 32.5576 196.065 32.5576C196.15 32.5576 196.214 32.583 196.256 32.6338C196.298 32.6846 196.324 32.7438 196.332 32.8115C196.349 32.8792 196.353 32.9512 196.345 33.0273C196.345 33.1035 196.345 33.167 196.345 33.2178C196.345 33.5732 196.277 33.9372 196.142 34.3096C196.015 34.6735 195.85 35.0501 195.646 35.4395C195.452 35.8203 195.236 36.2096 194.999 36.6074C194.771 36.9967 194.555 37.3988 194.352 37.8135C194.157 38.2282 193.992 38.6514 193.856 39.083C193.729 39.5062 193.666 39.9421 193.666 40.3906C193.666 40.6191 193.67 40.7884 193.679 40.8984C193.687 41 193.713 41.0846 193.755 41.1523C193.797 41.2285 193.865 41.3047 193.958 41.3809C194.051 41.4655 194.182 41.5967 194.352 41.7744C194.157 41.8844 193.966 41.9268 193.78 41.9014C193.603 41.8844 193.446 41.8125 193.311 41.6855C193.184 41.5586 193.09 41.3851 193.031 41.165C192.972 40.945 192.968 40.6953 193.019 40.416ZM195.659 39.7432C195.659 39.32 195.778 38.9053 196.015 38.499C196.26 38.0928 196.569 37.7331 196.941 37.4199C197.314 37.1068 197.724 36.8571 198.173 36.6709C198.621 36.4762 199.049 36.3789 199.455 36.3789C199.616 36.3789 199.768 36.4085 199.912 36.4678C200.056 36.527 200.208 36.5566 200.369 36.5566H200.445C200.488 36.4635 200.568 36.2985 200.687 36.0615C200.813 35.8245 200.945 35.5749 201.08 35.3125C201.224 35.0501 201.359 34.8047 201.486 34.5762C201.613 34.3392 201.706 34.1742 201.766 34.0811C201.859 33.9202 201.986 33.7214 202.146 33.4844C202.307 33.2389 202.464 33.002 202.616 32.7734C202.777 32.5449 202.917 32.3503 203.035 32.1895C203.154 32.0286 203.221 31.9482 203.238 31.9482L203.733 32.4434C203.733 32.4603 203.7 32.5365 203.632 32.6719C203.573 32.8073 203.492 32.985 203.391 33.2051C203.289 33.4167 203.171 33.6536 203.035 33.916C202.908 34.1784 202.777 34.4408 202.642 34.7031C202.506 34.9655 202.375 35.2194 202.248 35.4648C202.13 35.7018 202.024 35.9007 201.931 36.0615C201.668 36.4593 201.402 36.8656 201.131 37.2803C200.868 37.6865 200.657 38.0674 200.496 38.4229C200.344 38.7699 200.268 39.0745 200.268 39.3369C200.276 39.5993 200.42 39.7812 200.699 39.8828C201.207 39.7897 201.588 39.7516 201.842 39.7686C202.096 39.7855 202.252 39.832 202.312 39.9082C202.379 39.9759 202.371 40.0605 202.286 40.1621C202.201 40.2552 202.066 40.3398 201.88 40.416C201.702 40.4922 201.495 40.543 201.258 40.5684C201.021 40.5938 200.784 40.5684 200.547 40.4922C200.31 40.416 200.094 40.2764 199.899 40.0732C199.705 39.8701 199.557 39.5781 199.455 39.1973L197.487 40.835C197.487 40.835 197.453 40.8434 197.386 40.8604C197.326 40.8773 197.25 40.8942 197.157 40.9111C197.073 40.9281 196.984 40.945 196.891 40.9619C196.798 40.9788 196.721 40.9915 196.662 41H196.586C196.391 41 196.23 40.9661 196.104 40.8984C195.985 40.8223 195.892 40.7292 195.824 40.6191C195.757 40.5007 195.71 40.3652 195.685 40.2129C195.668 40.0605 195.659 39.904 195.659 39.7432ZM196.484 39.6035C196.484 39.6543 196.48 39.7135 196.472 39.7812C196.472 39.849 196.476 39.9124 196.484 39.9717C196.501 40.0225 196.527 40.069 196.561 40.1113C196.603 40.1536 196.662 40.1748 196.738 40.1748C196.848 40.1748 196.979 40.1367 197.132 40.0605C197.293 39.9759 197.449 39.8786 197.602 39.7686C197.754 39.6585 197.894 39.5485 198.021 39.4385C198.156 39.3285 198.253 39.248 198.312 39.1973C198.372 39.138 198.482 39.0322 198.643 38.8799C198.803 38.7191 198.968 38.5498 199.138 38.3721C199.315 38.1943 199.48 38.0293 199.633 37.877C199.785 37.7246 199.891 37.6146 199.95 37.5469V37.5088C199.95 37.4919 199.95 37.4834 199.95 37.4834C199.959 37.4749 199.963 37.4665 199.963 37.458C199.963 37.3818 199.938 37.3268 199.887 37.293C199.844 37.2507 199.789 37.2253 199.722 37.2168C199.662 37.1999 199.599 37.1956 199.531 37.2041C199.464 37.2041 199.409 37.2041 199.366 37.2041C199.062 37.2041 198.74 37.2676 198.401 37.3945C198.063 37.5215 197.75 37.695 197.462 37.915C197.183 38.1266 196.95 38.3805 196.764 38.6768C196.577 38.9645 196.484 39.2734 196.484 39.6035ZM202.337 40.1748C202.413 39.6924 202.557 39.248 202.769 38.8418C202.98 38.4355 203.221 38.0843 203.492 37.7881C203.771 37.4834 204.072 37.2337 204.394 37.0391C204.715 36.8444 205.028 36.7217 205.333 36.6709C205.638 36.6117 205.917 36.6243 206.171 36.709C206.433 36.7936 206.645 36.9629 206.806 37.2168C206.806 37.4115 206.759 37.5977 206.666 37.7754C206.581 37.9531 206.484 38.1309 206.374 38.3086C206.272 38.4863 206.175 38.6683 206.082 38.8545C205.997 39.0407 205.955 39.2396 205.955 39.4512C205.955 39.6712 206.002 39.849 206.095 39.9844C206.196 40.1113 206.37 40.1748 206.615 40.1748C206.818 40.1748 207.013 40.1452 207.199 40.0859C207.394 40.0267 207.589 39.9971 207.783 39.9971C207.817 39.9971 207.872 40.0013 207.948 40.0098C208.033 40.0098 208.088 40.0098 208.113 40.0098C208.012 40.1536 207.881 40.2764 207.72 40.3779C207.559 40.4795 207.39 40.5684 207.212 40.6445C207.034 40.7122 206.848 40.763 206.653 40.7969C206.467 40.8307 206.294 40.8477 206.133 40.8477C205.98 40.8477 205.845 40.8138 205.727 40.7461C205.608 40.6784 205.507 40.5895 205.422 40.4795C205.337 40.3695 205.27 40.2467 205.219 40.1113C205.176 39.9674 205.155 39.8278 205.155 39.6924C205.028 39.8363 204.889 39.9886 204.736 40.1494C204.592 40.3018 204.436 40.4414 204.267 40.5684C204.106 40.6953 203.928 40.8011 203.733 40.8857C203.547 40.9704 203.353 41.0127 203.149 41.0127C202.929 41.0127 202.739 40.9323 202.578 40.7715C202.417 40.6022 202.337 40.4033 202.337 40.1748ZM203.175 39.7812C203.175 39.849 203.175 39.9251 203.175 40.0098C203.183 40.0944 203.238 40.1494 203.34 40.1748C203.551 40.124 203.793 40.014 204.063 39.8447C204.334 39.667 204.588 39.4639 204.825 39.2354C205.062 38.9984 205.261 38.7487 205.422 38.4863C205.583 38.2155 205.663 37.9574 205.663 37.7119C205.663 37.695 205.659 37.6696 205.65 37.6357C205.65 37.5934 205.65 37.5638 205.65 37.5469C205.363 37.5469 205.071 37.6061 204.774 37.7246C204.478 37.8431 204.212 38.0081 203.975 38.2197C203.738 38.4229 203.543 38.6598 203.391 38.9307C203.247 39.2015 203.175 39.485 203.175 39.7812ZM207.745 40.2002C207.745 40.1748 207.745 40.141 207.745 40.0986C207.754 40.0479 207.758 40.0182 207.758 40.0098C207.783 39.7559 207.813 39.4342 207.847 39.0449C207.881 38.6471 207.914 38.2663 207.948 37.9023C207.991 37.5384 208.024 37.2253 208.05 36.9629C208.075 36.6921 208.088 36.5566 208.088 36.5566L208.431 36.2266C208.575 36.2689 208.68 36.3281 208.748 36.4043C208.816 36.472 208.862 36.5482 208.888 36.6328C208.913 36.7174 208.926 36.8105 208.926 36.9121C208.926 37.0137 208.926 37.1152 208.926 37.2168C208.926 37.5723 208.892 37.9193 208.824 38.2578C208.765 38.5879 208.735 38.9264 208.735 39.2734C208.735 39.2904 208.735 39.3327 208.735 39.4004C208.744 39.4596 208.748 39.4977 208.748 39.5146L211.871 36.2266C211.88 36.2181 211.901 36.2139 211.935 36.2139C211.977 36.2139 212.007 36.2139 212.023 36.2139C212.108 36.2139 212.188 36.2308 212.265 36.2646C212.341 36.2985 212.379 36.3704 212.379 36.4805C212.379 36.4889 212.375 36.4974 212.366 36.5059C212.366 36.5059 212.366 36.5101 212.366 36.5186V36.5566C212.324 36.6243 212.248 36.7344 212.138 36.8867C212.036 37.0391 211.922 37.2041 211.795 37.3818C211.676 37.5596 211.562 37.7288 211.452 37.8896C211.342 38.042 211.266 38.1478 211.224 38.207C211.08 38.3848 210.91 38.5964 210.716 38.8418C210.53 39.0872 210.326 39.3369 210.106 39.5908C209.895 39.8363 209.671 40.0732 209.434 40.3018C209.205 40.5218 208.977 40.6995 208.748 40.835C208.706 40.8604 208.642 40.8942 208.558 40.9365C208.481 40.9788 208.439 41 208.431 41C208.338 41 208.249 40.9746 208.164 40.9238C208.088 40.8646 208.016 40.7926 207.948 40.708C207.889 40.6234 207.838 40.5387 207.796 40.4541C207.762 40.361 207.745 40.2764 207.745 40.2002ZM212.912 39.6543C212.912 39.3496 212.984 39.0365 213.128 38.7148C213.28 38.3848 213.458 38.0716 213.661 37.7754C213.873 37.4707 214.093 37.1872 214.321 36.9248C214.55 36.654 214.744 36.4212 214.905 36.2266C214.888 36.125 214.854 35.9515 214.804 35.7061C214.753 35.4521 214.702 35.1855 214.651 34.9062C214.601 34.627 214.55 34.3646 214.499 34.1191C214.457 33.8652 214.427 33.6875 214.41 33.5859C214.402 33.5775 214.397 33.5648 214.397 33.5479V33.4971C214.397 33.3193 214.461 33.1458 214.588 32.9766C214.715 32.7988 214.88 32.6338 215.083 32.4814C215.286 32.3291 215.51 32.1895 215.756 32.0625C216.01 31.9355 216.259 31.8255 216.505 31.7324C216.75 31.6393 216.979 31.5674 217.19 31.5166C217.402 31.4658 217.576 31.4404 217.711 31.4404C217.745 31.4404 217.829 31.4658 217.965 31.5166C218.109 31.5674 218.257 31.6266 218.409 31.6943C218.57 31.762 218.71 31.834 218.828 31.9102C218.955 31.9863 219.019 32.054 219.019 32.1133C219.002 32.4518 218.976 32.7269 218.942 32.9385C218.917 33.1501 218.883 33.3151 218.841 33.4336C218.807 33.5521 218.773 33.6367 218.739 33.6875C218.714 33.7298 218.697 33.7552 218.688 33.7637C218.604 33.9329 218.443 34.1445 218.206 34.3984C217.978 34.6523 217.728 34.9147 217.457 35.1855C217.186 35.4479 216.92 35.7061 216.657 35.96C216.395 36.2054 216.196 36.4043 216.061 36.5566C216.145 36.7513 216.213 36.9248 216.264 37.0771C216.314 37.2295 216.348 37.3818 216.365 37.5342C216.382 37.6781 216.391 37.8304 216.391 37.9912C216.399 38.1436 216.403 38.3128 216.403 38.499C216.403 38.8122 216.378 39.1211 216.327 39.4258C216.276 39.722 216.183 39.9886 216.048 40.2256C215.912 40.4626 215.726 40.653 215.489 40.7969C215.252 40.9408 214.952 41.0127 214.588 41.0127C214.342 41.0127 214.114 40.9915 213.902 40.9492C213.699 40.8984 213.521 40.8223 213.369 40.7207C213.225 40.6107 213.111 40.471 213.026 40.3018C212.95 40.124 212.912 39.9082 212.912 39.6543ZM213.75 39.4385C213.75 39.7432 213.809 39.9463 213.928 40.0479C214.055 40.1494 214.249 40.2002 214.512 40.2002C214.689 40.2002 214.854 40.1452 215.007 40.0352C215.159 39.9251 215.29 39.7855 215.4 39.6162C215.519 39.4469 215.604 39.265 215.654 39.0703C215.714 38.8757 215.739 38.6937 215.73 38.5244C215.73 38.4736 215.709 38.3848 215.667 38.2578C215.625 38.1309 215.578 37.9997 215.527 37.8643C215.477 37.7204 215.422 37.5892 215.362 37.4707C215.312 37.3438 215.269 37.2591 215.235 37.2168C215.083 37.3184 214.918 37.4538 214.74 37.623C214.571 37.7923 214.41 37.9785 214.258 38.1816C214.114 38.3763 213.991 38.5837 213.89 38.8037C213.797 39.0238 213.75 39.2354 213.75 39.4385ZM215.4 33.4336C215.4 33.7891 215.405 34.1488 215.413 34.5127C215.422 34.8682 215.527 35.2194 215.73 35.5664L218.028 33.5859C217.918 33.5352 217.863 33.4548 217.863 33.3447C217.863 33.2601 217.889 33.1924 217.939 33.1416C217.999 33.0824 218.058 33.0316 218.117 32.9893C218.185 32.9385 218.244 32.8877 218.295 32.8369C218.354 32.7861 218.384 32.7142 218.384 32.6211C218.384 32.4264 218.32 32.3206 218.193 32.3037C218.075 32.2783 217.931 32.2656 217.762 32.2656C217.559 32.2656 217.339 32.291 217.102 32.3418C216.873 32.3926 216.649 32.4688 216.429 32.5703C216.217 32.6634 216.018 32.7861 215.832 32.9385C215.654 33.0824 215.51 33.2474 215.4 33.4336ZM219.425 39.7686C219.425 39.5231 219.471 39.2777 219.564 39.0322C219.658 38.7868 219.768 38.5456 219.895 38.3086C220.021 38.0632 220.148 37.8219 220.275 37.585C220.411 37.348 220.512 37.1152 220.58 36.8867C220.419 36.9798 220.28 37.0348 220.161 37.0518C220.051 37.0602 219.916 37.0645 219.755 37.0645C219.738 37.0645 219.683 37.0645 219.59 37.0645C219.505 37.056 219.45 37.0518 219.425 37.0518C219.476 36.8656 219.569 36.7005 219.704 36.5566C219.84 36.4043 219.992 36.2773 220.161 36.1758C220.339 36.0658 220.521 35.9769 220.707 35.9092C220.902 35.833 221.075 35.7738 221.228 35.7314C221.481 35.3337 221.689 34.9359 221.85 34.5381C222.01 34.1318 222.171 33.7383 222.332 33.3574C222.501 32.9681 222.696 32.5999 222.916 32.2529C223.145 31.8975 223.449 31.5716 223.83 31.2754L223.894 31.7578L222.307 35.4775C222.4 35.4521 222.514 35.4268 222.649 35.4014C222.785 35.376 222.92 35.3506 223.056 35.3252C223.2 35.2998 223.335 35.2786 223.462 35.2617C223.597 35.2363 223.712 35.2109 223.805 35.1855C223.813 35.1855 223.839 35.1855 223.881 35.1855C223.923 35.1771 223.957 35.1729 223.982 35.1729C224.101 35.1729 224.198 35.194 224.274 35.2363C224.351 35.2786 224.414 35.3717 224.465 35.5156C223.889 35.6849 223.369 35.8626 222.903 36.0488C222.438 36.235 222.032 36.4805 221.685 36.7852C221.346 37.0814 221.067 37.4622 220.847 37.9277C220.635 38.3848 220.487 38.973 220.402 39.6924C220.402 39.8447 220.411 39.9844 220.428 40.1113C220.445 40.2383 220.55 40.3145 220.745 40.3398C220.94 40.3398 221.122 40.3018 221.291 40.2256C221.46 40.1494 221.625 40.069 221.786 39.9844C221.947 39.8913 222.108 39.8066 222.269 39.7305C222.438 39.6543 222.62 39.6162 222.814 39.6162C222.814 39.8193 222.726 40.0055 222.548 40.1748C222.37 40.3441 222.154 40.4922 221.9 40.6191C221.655 40.7461 221.401 40.8434 221.139 40.9111C220.876 40.9788 220.66 41.0127 220.491 41.0127C220.322 41.0127 220.17 40.9788 220.034 40.9111C219.899 40.8434 219.785 40.7546 219.691 40.6445C219.607 40.526 219.539 40.3906 219.488 40.2383C219.446 40.0859 219.425 39.9294 219.425 39.7686Z" fill="#48CDD6"/>
<defs>
<clipPath id="clip0">
<rect width="53" height="46" fill="white"/>
</clipPath>
</defs>
</svg>
