<svg width="260" height="60" viewBox="0 0 260 60" fill="none" xmlns="http://www.w3.org/2000/svg">
<g clip-path="url(#clip0)">
<path d="M29.6616 7.87764C32.5295 7.87764 34.8544 6.11421 34.8544 3.93883C34.8544 1.76347 32.5295 0 29.6616 0C26.7936 0 24.4688 1.76347 24.4688 3.93883C24.4688 6.11421 26.7936 7.87764 29.6616 7.87764Z" fill="#48CDD6"/>
<path d="M29.6811 59.4168C32.5491 59.4168 34.8739 57.6533 34.8739 55.4779C34.8739 53.3026 32.5491 51.5391 29.6811 51.5391C26.8132 51.5391 24.4883 53.3026 24.4883 55.4779C24.4883 57.6533 26.8132 59.4168 29.6811 59.4168Z" fill="#48CDD6"/>
<path d="M5.19281 48.4714C8.0607 48.4714 10.3856 46.7079 10.3856 44.5326C10.3856 42.3572 8.0607 40.5938 5.19281 40.5938C2.3249 40.5938 0 42.3572 0 44.5326C0 46.7079 2.3249 48.4714 5.19281 48.4714Z" fill="#48CDD6"/>
<path d="M11.2967 23.0891C13.8305 23.0891 15.8845 21.2917 15.8845 19.0744C15.8845 16.857 13.8305 15.0596 11.2967 15.0596C8.76299 15.0596 6.70898 16.857 6.70898 19.0744C6.70898 21.2917 8.76299 23.0891 11.2967 23.0891Z" fill="#48CDD6"/>
<path d="M15.168 16.2225L22.9791 6.07812L25.1311 8.92222L15.168 16.2225Z" fill="#4A5568"/>
<path d="M6.00977 39.925L7.10207 23.5312L9.83287 24.4234L6.00977 39.925Z" fill="#4A5568"/>
<path d="M26.8703 49.2935L12.7793 24.7586L15.1824 23.1973L26.8703 49.2935Z" fill="#4A5568"/>
<path d="M10.4883 46.8398L23.8146 51.7469L22.5038 54.4234L10.4883 46.8398Z" fill="#4A5568"/>
<path d="M54.1676 48.3591C51.3093 48.3591 48.9922 46.5957 48.9922 44.4203C48.9922 42.2449 51.3093 40.4814 54.1676 40.4814C57.0258 40.4814 59.343 42.2449 59.343 44.4203C59.343 46.5957 57.0258 48.3591 54.1676 48.3591Z" fill="#48CDD6"/>
<path d="M48.0138 23.0891C45.4885 23.0891 43.4414 21.2917 43.4414 19.0744C43.4414 16.857 45.4885 15.0596 48.0138 15.0596C50.539 15.0596 52.5861 16.857 52.5861 19.0744C52.5861 21.2917 50.539 23.0891 48.0138 23.0891Z" fill="#48CDD6"/>
<path d="M43.732 16.2897L35.8891 6.20605L33.8672 8.92146L43.732 16.2897Z" fill="#4A5568"/>
<path d="M53.3552 39.8137L52.2665 23.4199L49.5449 24.3121L53.3552 39.8137Z" fill="#4A5568"/>
<path d="M32.5625 49.1811L46.6061 24.6463L44.2111 23.085L32.5625 49.1811Z" fill="#4A5568"/>
<path d="M48.891 46.7275L35.6094 51.6346L36.9157 54.3111L48.891 46.7275Z" fill="#4A5568"/>
</g>
<path d="M69.44 22.2C68.52 22.2 67.6733 22.06 66.9 21.78C66.1267 21.4867 65.5133 21.0933 65.06 20.6C64.6067 20.1067 64.38 19.5667 64.38 18.98C64.38 18.7133 64.4733 18.5 64.66 18.34C64.86 18.1667 65.12 18.0733 65.44 18.06C65.6533 19.0067 66.1067 19.7267 66.8 20.22C67.4933 20.7133 68.3867 20.96 69.48 20.96C70.6 20.96 71.5 20.7 72.18 20.18C72.8733 19.66 73.22 18.98 73.22 18.14C73.22 17.6467 73.0933 17.2267 72.84 16.88C72.6 16.5333 72.2 16.2267 71.64 15.96C71.08 15.68 70.3067 15.4133 69.32 15.16C68.1733 14.8533 67.2733 14.5333 66.62 14.2C65.9667 13.8533 65.4933 13.4667 65.2 13.04C64.92 12.6 64.78 12.06 64.78 11.42C64.78 10.3 65.1933 9.42 66.02 8.78C66.8467 8.12667 67.9867 7.8 69.44 7.8C70.7067 7.8 71.76 8.1 72.6 8.7C73.4533 9.28667 74.0267 10.12 74.32 11.2C74.1467 11.3733 73.88 11.46 73.52 11.46C73.1467 11.46 72.8733 11.28 72.7 10.92C72.4067 10.3333 71.96 9.86667 71.36 9.52C70.7733 9.17333 70.1333 9 69.44 9C68.3867 9 67.5867 9.20667 67.04 9.62C66.4933 10.0333 66.22 10.6333 66.22 11.42C66.22 11.82 66.32 12.16 66.52 12.44C66.72 12.7067 67.0533 12.9533 67.52 13.18C67.9867 13.4067 68.6467 13.64 69.5 13.88C70.9267 14.28 72 14.66 72.72 15.02C73.4533 15.38 73.9667 15.7867 74.26 16.24C74.5533 16.6933 74.7 17.2867 74.7 18.02C74.7 18.86 74.4867 19.6 74.06 20.24C73.6333 20.8667 73.02 21.3533 72.22 21.7C71.4333 22.0333 70.5067 22.2 69.44 22.2ZM89.052 10.8C89.9987 10.8 90.7654 11.1067 91.352 11.72C91.952 12.3333 92.252 13.1267 92.252 14.1V22H90.872V14.16C90.872 13.3867 90.6987 12.8133 90.352 12.44C90.0054 12.0667 89.4787 11.88 88.772 11.88C87.6387 11.88 86.5854 12.4 85.612 13.44C85.6387 13.6533 85.652 13.8133 85.652 13.92V22H84.292V13.96C84.292 13.3333 84.0987 12.8333 83.712 12.46C83.3387 12.0733 82.8387 11.88 82.212 11.88C81.6387 11.88 81.092 12.0067 80.572 12.26C80.0654 12.5133 79.552 12.92 79.032 13.48V22H77.672V14.74C77.672 12.7667 77.592 11.5933 77.432 11.22C77.8587 11.02 78.1987 10.92 78.452 10.92C78.8387 10.92 79.032 11.3067 79.032 12.08V12.16C79.5387 11.68 80.0587 11.3333 80.592 11.12C81.1387 10.9067 81.7587 10.8 82.452 10.8C83.0787 10.8 83.6387 10.9467 84.132 11.24C84.6254 11.52 85.0054 11.9067 85.272 12.4C85.8454 11.84 86.4254 11.4333 87.012 11.18C87.612 10.9267 88.292 10.8 89.052 10.8ZM103.594 19.26C103.594 19.8733 103.641 20.36 103.734 20.72C103.841 21.0667 104.021 21.38 104.274 21.66C104.141 21.7933 103.981 21.9 103.794 21.98C103.621 22.06 103.454 22.1 103.294 22.1C103.028 22.1 102.801 21.9467 102.614 21.64C102.441 21.3333 102.328 20.9133 102.274 20.38C101.861 20.94 101.308 21.3867 100.614 21.72C99.9209 22.04 99.1942 22.2 98.4342 22.2C97.4209 22.2 96.6076 21.94 95.9942 21.42C95.3809 20.8867 95.0742 20.1933 95.0742 19.34C95.0742 18.0867 95.6809 17.1067 96.8942 16.4C98.1209 15.6933 99.9009 15.2867 102.234 15.18V14.54C102.234 13.66 102.008 13.0067 101.554 12.58C101.114 12.14 100.441 11.92 99.5342 11.92C98.9476 11.92 98.4009 12.0467 97.8942 12.3C97.4009 12.54 96.8676 12.9467 96.2942 13.52C96.2142 13.6 96.1142 13.64 95.9942 13.64C95.8609 13.64 95.7142 13.5867 95.5542 13.48C95.3942 13.36 95.2409 13.1933 95.0942 12.98C95.6942 12.2733 96.3742 11.7333 97.1342 11.36C97.9076 10.9867 98.7276 10.8 99.5942 10.8C100.834 10.8 101.808 11.1333 102.514 11.8C103.234 12.4667 103.594 13.38 103.594 14.54V19.26ZM98.5342 21.08C99.2542 21.08 99.9342 20.88 100.574 20.48C101.214 20.08 101.768 19.5133 102.234 18.78V16.3C98.3942 16.46 96.4742 17.4667 96.4742 19.32C96.4742 20.4933 97.1609 21.08 98.5342 21.08ZM111.347 10.86C111.813 10.86 112.167 10.94 112.407 11.1C112.66 11.2467 112.787 11.4733 112.787 11.78C112.787 11.9933 112.713 12.1867 112.567 12.36C112.247 12.1867 111.807 12.1 111.247 12.1C110.353 12.1 109.633 12.4533 109.087 13.16C108.553 13.8667 108.287 14.7933 108.287 15.94V22H106.927V11H108.287V12.98C108.593 12.3667 109.027 11.86 109.587 11.46C110.147 11.06 110.733 10.86 111.347 10.86ZM120.074 20.66C120.168 20.7267 120.241 20.8267 120.294 20.96C120.361 21.08 120.394 21.2067 120.394 21.34C120.394 21.5933 120.288 21.7733 120.074 21.88C119.648 22.0933 119.094 22.2 118.414 22.2C117.548 22.2 116.854 21.9667 116.334 21.5C115.814 21.02 115.554 20.38 115.554 19.58V12.08H113.474V11H115.554V8H116.914V11H119.794V12.08H116.914V19.32C116.914 20.44 117.394 21 118.354 21C118.968 21 119.541 20.8867 120.074 20.66ZM156.159 22.2C155.239 22.2 154.392 22.06 153.619 21.78C152.845 21.4867 152.232 21.0933 151.779 20.6C151.325 20.1067 151.099 19.5667 151.099 18.98C151.099 18.7133 151.192 18.5 151.379 18.34C151.579 18.1667 151.839 18.0733 152.159 18.06C152.372 19.0067 152.825 19.7267 153.519 20.22C154.212 20.7133 155.105 20.96 156.199 20.96C157.319 20.96 158.219 20.7 158.899 20.18C159.592 19.66 159.939 18.98 159.939 18.14C159.939 17.6467 159.812 17.2267 159.559 16.88C159.319 16.5333 158.919 16.2267 158.359 15.96C157.799 15.68 157.025 15.4133 156.039 15.16C154.892 14.8533 153.992 14.5333 153.339 14.2C152.685 13.8533 152.212 13.4667 151.919 13.04C151.639 12.6 151.499 12.06 151.499 11.42C151.499 10.3 151.912 9.42 152.739 8.78C153.565 8.12667 154.705 7.8 156.159 7.8C157.425 7.8 158.479 8.1 159.319 8.7C160.172 9.28667 160.745 10.12 161.039 11.2C160.865 11.3733 160.599 11.46 160.239 11.46C159.865 11.46 159.592 11.28 159.419 10.92C159.125 10.3333 158.679 9.86667 158.079 9.52C157.492 9.17333 156.852 9 156.159 9C155.105 9 154.305 9.20667 153.759 9.62C153.212 10.0333 152.939 10.6333 152.939 11.42C152.939 11.82 153.039 12.16 153.239 12.44C153.439 12.7067 153.772 12.9533 154.239 13.18C154.705 13.4067 155.365 13.64 156.219 13.88C157.645 14.28 158.719 14.66 159.439 15.02C160.172 15.38 160.685 15.7867 160.979 16.24C161.272 16.6933 161.419 17.2867 161.419 18.02C161.419 18.86 161.205 19.6 160.779 20.24C160.352 20.8667 159.739 21.3533 158.939 21.7C158.152 22.0333 157.225 22.2 156.159 22.2ZM164.751 11H166.111V22H164.751V11ZM165.351 8.98C164.751 8.98 164.451 8.68 164.451 8.08V7.9C164.451 7.3 164.751 7 165.351 7H165.511C166.111 7 166.411 7.3 166.411 7.9V8.08C166.411 8.68 166.111 8.98 165.511 8.98H165.351ZM178.913 10.42C179.153 10.42 179.326 10.4867 179.433 10.62C179.553 10.74 179.612 10.94 179.612 11.22C179.612 11.3 179.599 11.46 179.573 11.7C178.586 11.7 177.899 11.8333 177.513 12.1C178.046 12.74 178.312 13.5333 178.312 14.48C178.312 17.04 176.839 18.32 173.893 18.32C172.986 18.32 172.319 18.3867 171.893 18.52C171.479 18.64 171.273 18.8333 171.273 19.1C171.273 19.7 172.346 20 174.493 20C175.999 20 177.166 20.2533 177.993 20.76C178.819 21.2667 179.233 21.9867 179.233 22.92C179.233 23.92 178.786 24.6867 177.893 25.22C177.013 25.7667 175.746 26.04 174.093 26.04C172.533 26.04 171.346 25.8 170.533 25.32C169.719 24.84 169.313 24.1333 169.313 23.2C169.313 22.6667 169.493 22.1933 169.853 21.78C170.226 21.3667 170.739 21.06 171.393 20.86V20.8C170.993 20.6933 170.673 20.5 170.433 20.22C170.193 19.9267 170.073 19.58 170.073 19.18C170.073 18.8467 170.206 18.5533 170.473 18.3C170.739 18.0333 171.099 17.8533 171.553 17.76C170.979 17.44 170.533 17.02 170.213 16.5C169.906 15.9667 169.753 15.3733 169.753 14.72C169.753 12.1067 171.259 10.8 174.273 10.8C175.219 10.8 176.026 11.0067 176.693 11.42C177.026 11.1133 177.386 10.8733 177.773 10.7C178.173 10.5133 178.553 10.42 178.913 10.42ZM174.013 17.2C175.039 17.2 175.773 17 176.213 16.6C176.666 16.1867 176.893 15.5067 176.893 14.56C176.893 13.6267 176.666 12.9467 176.213 12.52C175.759 12.0933 175.026 11.88 174.013 11.88C173.026 11.88 172.299 12.1 171.833 12.54C171.379 12.9667 171.153 13.64 171.153 14.56C171.153 16.32 172.106 17.2 174.013 17.2ZM174.173 21.24C173.039 21.24 172.179 21.3933 171.593 21.7C171.019 22.0067 170.733 22.4533 170.733 23.04C170.733 23.6533 171.019 24.12 171.593 24.44C172.166 24.76 172.999 24.92 174.093 24.92C175.319 24.92 176.246 24.76 176.873 24.44C177.499 24.1333 177.813 23.6667 177.813 23.04C177.813 22.4 177.526 21.94 176.953 21.66C176.393 21.38 175.466 21.24 174.173 21.24ZM190.412 19.44C190.412 20.2533 190.418 20.8067 190.432 21.1C190.458 21.38 190.512 21.6333 190.592 21.86C190.272 22.02 189.925 22.1 189.552 22.1C189.352 22.1 189.218 21.96 189.152 21.68C189.085 21.3867 189.052 20.8133 189.052 19.96V14.54C189.052 13.6067 188.878 12.9333 188.532 12.52C188.185 12.0933 187.625 11.88 186.852 11.88C185.652 11.88 184.425 12.4733 183.172 13.66V22H181.812V14.74C181.812 12.7667 181.732 11.5933 181.572 11.22C181.998 11.02 182.338 10.92 182.592 10.92C182.978 10.92 183.172 11.3067 183.172 12.08V12.26C183.785 11.7533 184.398 11.3867 185.012 11.16C185.638 10.92 186.298 10.8 186.992 10.8C188.138 10.8 188.992 11.1133 189.552 11.74C190.125 12.3533 190.412 13.2933 190.412 14.56V19.44Z" fill="#4A5568"/>
<path d="M133.355 14.92C133.355 16.5867 133.088 17.9867 132.555 19.12C132.035 20.2533 131.275 21.08 130.275 21.6C130.488 21.88 130.902 22.3933 131.515 23.14C131.382 23.2867 131.215 23.4067 131.015 23.5C130.828 23.5933 130.628 23.64 130.415 23.64C130.068 23.64 129.768 23.4467 129.515 23.06L128.875 22.08C128.462 22.16 128.008 22.2 127.515 22.2C125.635 22.2 124.188 21.5733 123.175 20.32C122.175 19.0667 121.675 17.2667 121.675 14.92C121.675 12.6267 122.175 10.8667 123.175 9.64C124.188 8.41333 125.635 7.8 127.515 7.8C129.395 7.8 130.835 8.41333 131.835 9.64C132.848 10.8667 133.355 12.6267 133.355 14.92ZM127.515 20.92C127.662 20.92 127.868 20.9067 128.135 20.88L126.995 19.02H128.515C128.822 19.5267 129.148 20.02 129.495 20.5C131.082 19.7133 131.875 17.8533 131.875 14.92C131.875 11.0267 130.422 9.08 127.515 9.08C124.608 9.08 123.155 11.0267 123.155 14.92C123.155 16.9067 123.522 18.4067 124.255 19.42C124.988 20.42 126.075 20.92 127.515 20.92ZM144.269 20.8V22H136.029V8H137.469V20.8H144.269Z" fill="#48CDD6"/>
<path d="M66.3516 47.4287C66.3516 47.3994 66.3564 47.3408 66.3662 47.2529C66.376 47.1553 66.3857 47.0869 66.3955 47.0479C66.9619 46.5693 67.4453 46.1201 67.8457 45.7002C68.2559 45.2803 68.6318 44.8555 68.9736 44.4258C69.3154 43.9863 69.6523 43.5225 69.9844 43.0342C70.3164 42.5361 70.6973 41.9746 71.127 41.3496C71.3613 40.8809 71.4688 40.5684 71.4492 40.4121C71.4395 40.2461 71.3467 40.1826 71.1709 40.2217C70.9951 40.2607 70.7559 40.3682 70.4531 40.5439C70.1602 40.7197 69.8428 40.9053 69.501 41.1006C69.1689 41.2861 68.8369 41.457 68.5049 41.6133C68.1729 41.7598 67.8896 41.8232 67.6553 41.8037C67.6553 41.6572 67.7285 41.4961 67.875 41.3203C68.0312 41.1348 68.2266 40.9492 68.4609 40.7637C68.7051 40.5781 68.9736 40.3975 69.2666 40.2217C69.5596 40.0361 69.8477 39.875 70.1309 39.7383C70.4238 39.5918 70.6924 39.4746 70.9365 39.3867C71.1807 39.2988 71.376 39.2549 71.5225 39.2549C71.6396 39.2549 71.752 39.2793 71.8594 39.3281C71.9766 39.3672 72.0791 39.4258 72.167 39.5039C72.2549 39.582 72.3281 39.6748 72.3867 39.7822C72.4453 39.8799 72.4746 39.9873 72.4746 40.1045C72.4746 40.4463 72.3867 40.8076 72.2109 41.1885C72.0449 41.5693 71.835 41.9453 71.5811 42.3164C71.3271 42.6875 71.0488 43.0537 70.7461 43.415C70.4531 43.7666 70.1797 44.0889 69.9258 44.3818C69.6719 44.6748 69.457 44.9336 69.2812 45.1582C69.1152 45.373 69.0322 45.5293 69.0322 45.627C69.3936 45.8711 69.7354 46.0859 70.0576 46.2715C70.3311 46.4375 70.5947 46.584 70.8486 46.7109C71.1025 46.8379 71.2832 46.9014 71.3906 46.9014C71.5859 46.9014 71.7617 46.8721 71.918 46.8135C72.084 46.7451 72.2402 46.6914 72.3867 46.6523C72.543 46.6035 72.6992 46.5889 72.8555 46.6084C73.0215 46.6182 73.207 46.7012 73.4121 46.8574C73.4121 46.8672 73.373 46.9014 73.2949 46.96C73.2266 47.0186 73.1436 47.0918 73.0459 47.1797C72.9482 47.2578 72.8408 47.3408 72.7236 47.4287C72.6162 47.5068 72.5283 47.5703 72.46 47.6191C72.0791 47.8633 71.7227 47.9707 71.3906 47.9414C71.0586 47.9023 70.7363 47.8047 70.4238 47.6484C70.1113 47.4922 69.7988 47.3115 69.4863 47.1064C69.1836 46.9014 68.8711 46.75 68.5488 46.6523C68.2852 46.6523 68.0898 46.7256 67.9629 46.8721C67.8457 47.0088 67.7383 47.165 67.6406 47.3408C67.5527 47.5068 67.4551 47.6631 67.3477 47.8096C67.2402 47.9463 67.0742 48.0146 66.8496 48.0146C66.6348 48.0146 66.498 47.9658 66.4395 47.8682C66.3809 47.7705 66.3516 47.624 66.3516 47.4287ZM73.9541 46.7256C73.9541 46.6768 73.9541 46.5889 73.9541 46.4619C73.9639 46.3252 73.9736 46.1885 73.9834 46.0518C74.0029 45.915 74.0273 45.793 74.0566 45.6855C74.0859 45.5781 74.125 45.5244 74.1738 45.5244H74.54C74.5889 45.8174 74.6475 46.0615 74.7158 46.2568C74.7939 46.4521 74.8965 46.6133 75.0234 46.7402C75.1504 46.8574 75.3115 46.9453 75.5068 47.0039C75.7021 47.0527 75.9463 47.0771 76.2393 47.0771C76.6982 47.0771 77.1377 46.999 77.5576 46.8428C77.9775 46.6768 78.3438 46.4521 78.6562 46.1689C78.9785 45.876 79.2324 45.5342 79.418 45.1436C79.6035 44.7432 79.6963 44.3037 79.6963 43.8252C79.6963 43.6299 79.6816 43.4346 79.6523 43.2393C79.6328 43.0342 79.584 42.8486 79.5059 42.6826C79.4375 42.5166 79.3301 42.3799 79.1836 42.2725C79.0469 42.165 78.8613 42.1113 78.627 42.1113C78.373 42.1113 78.1777 42.1846 78.041 42.3311C77.9043 42.4678 77.7773 42.6191 77.6602 42.7852C77.5527 42.9512 77.4404 43.1074 77.3232 43.2539C77.2061 43.3906 77.04 43.459 76.8252 43.459C76.6592 43.459 76.5176 43.4053 76.4004 43.2979C76.293 43.1807 76.2393 43.0391 76.2393 42.873C76.2393 42.8535 76.2393 42.8193 76.2393 42.7705C76.2393 42.7217 76.2441 42.6973 76.2539 42.6973L78.2314 39.123L82.6992 37.3652C82.9727 37.2578 83.1777 37.2627 83.3145 37.3799C83.4609 37.4971 83.5342 37.6533 83.5342 37.8486C83.5342 37.9561 83.4219 38.0635 83.1973 38.1709C82.9727 38.2686 82.6846 38.3809 82.333 38.5078C81.9912 38.625 81.6055 38.7617 81.1758 38.918C80.7559 39.0742 80.3457 39.2598 79.9453 39.4746C79.5449 39.6797 79.1787 39.9238 78.8467 40.207C78.5244 40.4805 78.29 40.7979 78.1436 41.1592C78.3877 41.1396 78.6465 41.1348 78.9199 41.1445C79.1934 41.1543 79.4424 41.2227 79.667 41.3496C79.8818 41.5449 80.043 41.7305 80.1504 41.9062C80.2578 42.0723 80.3311 42.2432 80.3701 42.4189C80.4189 42.5947 80.4434 42.7803 80.4434 42.9756C80.4531 43.1611 80.458 43.3711 80.458 43.6055C80.458 44.25 80.3604 44.8408 80.165 45.3779C79.9795 45.915 79.7012 46.3789 79.3301 46.7695C78.959 47.1602 78.5049 47.4678 77.9678 47.6924C77.4307 47.9072 76.8154 48.0146 76.1221 48.0146C75.9072 48.0146 75.6729 48.0049 75.4189 47.9854C75.1748 47.9561 74.9404 47.8975 74.7158 47.8096C74.501 47.7217 74.3203 47.5947 74.1738 47.4287C74.0273 47.2529 73.9541 47.0186 73.9541 46.7256ZM84.1934 47.2676C84.1934 47.1211 84.2373 46.916 84.3252 46.6523C84.4131 46.3789 84.5254 46.0859 84.6621 45.7734C84.8086 45.4609 84.9697 45.1436 85.1455 44.8213C85.3311 44.499 85.5166 44.2061 85.7021 43.9424C85.8877 43.6787 86.0635 43.4639 86.2295 43.2979C86.3955 43.1318 86.542 43.0488 86.6689 43.0488C86.9424 43.0488 87.0791 43.1807 87.0791 43.4443C87.0791 43.5615 87.0547 43.6592 87.0059 43.7373C86.9668 43.8154 86.918 43.8887 86.8594 43.957C86.8008 44.0254 86.7373 44.0938 86.6689 44.1621C86.6006 44.2207 86.542 44.2939 86.4932 44.3818C86.4053 44.5283 86.2979 44.7285 86.1709 44.9824C86.0439 45.2363 85.917 45.4854 85.79 45.7295C85.6729 45.9639 85.5703 46.1738 85.4824 46.3594C85.3945 46.5449 85.3506 46.6475 85.3506 46.667V46.8574C85.7314 46.7891 86.0977 46.6279 86.4492 46.374C86.8008 46.1104 87.1328 45.8027 87.4453 45.4512C87.7676 45.0996 88.0703 44.7334 88.3535 44.3525C88.6465 43.9619 88.9199 43.6055 89.1738 43.2832C89.4277 42.9512 89.667 42.6777 89.8916 42.4629C90.1162 42.248 90.3262 42.1406 90.5215 42.1406C90.5215 42.502 90.4482 42.8291 90.3018 43.1221C90.1553 43.415 89.9941 43.7031 89.8184 43.9863C89.6523 44.2695 89.4961 44.5625 89.3496 44.8652C89.2031 45.1582 89.1299 45.4902 89.1299 45.8613C89.1299 46.0176 89.2227 46.1592 89.4082 46.2861C89.6035 46.4033 89.8232 46.5059 90.0674 46.5938C90.3213 46.6719 90.5654 46.7354 90.7998 46.7842C91.0342 46.833 91.1953 46.8623 91.2832 46.8721V47.2529C91.0586 47.2627 90.7803 47.2676 90.4482 47.2676C90.1162 47.2578 89.7842 47.2188 89.4521 47.1504C89.1201 47.082 88.8174 46.9697 88.5439 46.8135C88.2803 46.6475 88.1045 46.4082 88.0166 46.0957C87.7627 46.2617 87.5186 46.457 87.2842 46.6816C87.0498 46.9062 86.8057 47.1162 86.5518 47.3115C86.3076 47.5068 86.0488 47.6729 85.7754 47.8096C85.502 47.9463 85.2041 48.0146 84.8818 48.0146C84.6865 48.0146 84.5205 47.9316 84.3838 47.7656C84.2568 47.5996 84.1934 47.4336 84.1934 47.2676ZM91.1367 46.5791C91.1367 46.2959 91.1904 46.0127 91.2979 45.7295C91.4053 45.4463 91.5322 45.168 91.6787 44.8945C91.8252 44.6113 91.9717 44.333 92.1182 44.0596C92.2744 43.7861 92.3916 43.5176 92.4697 43.2539C92.2842 43.3613 92.123 43.4248 91.9863 43.4443C91.8594 43.4541 91.7031 43.459 91.5176 43.459C91.498 43.459 91.4346 43.459 91.3271 43.459C91.2295 43.4492 91.166 43.4443 91.1367 43.4443C91.1953 43.2295 91.3027 43.0391 91.459 42.873C91.6152 42.6973 91.791 42.5508 91.9863 42.4336C92.1914 42.3066 92.4014 42.2041 92.6162 42.126C92.8408 42.0381 93.041 41.9697 93.2168 41.9209C93.5098 41.4619 93.749 41.0029 93.9346 40.5439C94.1201 40.0752 94.3057 39.6211 94.4912 39.1816C94.6865 38.7324 94.9111 38.3076 95.165 37.9072C95.4287 37.4971 95.7803 37.1211 96.2197 36.7793L96.293 37.3359L94.4619 41.6279C94.5693 41.5986 94.7012 41.5693 94.8574 41.54C95.0137 41.5107 95.1699 41.4814 95.3262 41.4521C95.4922 41.4229 95.6484 41.3984 95.7949 41.3789C95.9512 41.3496 96.083 41.3203 96.1904 41.291C96.2002 41.291 96.2295 41.291 96.2783 41.291C96.3271 41.2812 96.3662 41.2764 96.3955 41.2764C96.5322 41.2764 96.6445 41.3008 96.7324 41.3496C96.8203 41.3984 96.8936 41.5059 96.9521 41.6719C96.2881 41.8672 95.6875 42.0723 95.1504 42.2871C94.6133 42.502 94.1445 42.7852 93.7441 43.1367C93.3535 43.4785 93.0312 43.918 92.7773 44.4551C92.5332 44.9824 92.3623 45.6611 92.2646 46.4912C92.2646 46.667 92.2744 46.8281 92.2939 46.9746C92.3135 47.1211 92.4355 47.209 92.6602 47.2383C92.8848 47.2383 93.0947 47.1943 93.29 47.1064C93.4854 47.0186 93.6758 46.9258 93.8613 46.8281C94.0469 46.7207 94.2324 46.623 94.418 46.5352C94.6133 46.4473 94.8232 46.4033 95.0479 46.4033C95.0479 46.6377 94.9453 46.8525 94.7402 47.0479C94.5352 47.2432 94.2861 47.4141 93.9932 47.5605C93.71 47.707 93.417 47.8193 93.1143 47.8975C92.8115 47.9756 92.5625 48.0146 92.3672 48.0146C92.1719 48.0146 91.9961 47.9756 91.8398 47.8975C91.6836 47.8193 91.5518 47.7168 91.4443 47.5898C91.3467 47.4531 91.2686 47.2969 91.21 47.1211C91.1611 46.9453 91.1367 46.7646 91.1367 46.5791ZM95.0918 46.667C95.0918 46.6084 95.0918 46.5352 95.0918 46.4473C95.0918 46.3594 95.1016 46.2764 95.1211 46.1982C95.1406 46.1104 95.1699 46.0371 95.209 45.9785C95.248 45.9199 95.3066 45.8906 95.3848 45.8906C95.4629 45.8906 95.5459 45.9639 95.6338 46.1104C95.7314 46.2471 95.8535 46.4033 96 46.5791C96.1465 46.7451 96.3271 46.9014 96.542 47.0479C96.7666 47.1846 97.0449 47.2529 97.377 47.2529C97.6309 47.2529 97.9336 47.2139 98.2852 47.1357C98.6367 47.0576 98.998 46.9502 99.3691 46.8135C99.75 46.667 100.121 46.4961 100.482 46.3008C100.854 46.0957 101.186 45.876 101.479 45.6416C101.771 45.3975 102.006 45.1436 102.182 44.8799C102.367 44.6064 102.46 44.3232 102.46 44.0303C102.108 44.0303 101.771 44.0693 101.449 44.1475C101.127 44.2256 100.771 44.2646 100.38 44.2646C100.38 44.1768 100.395 44.0938 100.424 44.0156C100.453 43.9277 100.517 43.8643 100.614 43.8252L103.266 42.6973L103.661 42.3018C103.7 42.2041 103.773 42.0381 103.881 41.8037C103.988 41.5693 104.101 41.3252 104.218 41.0713C104.345 40.8076 104.462 40.5586 104.569 40.3242C104.677 40.0898 104.755 39.9287 104.804 39.8408C104.804 39.8311 104.823 39.7969 104.862 39.7383C104.901 39.6797 104.94 39.6211 104.979 39.5625C105.028 39.4941 105.067 39.4355 105.097 39.3867C105.136 39.3281 105.16 39.2891 105.17 39.2695C105.17 39.1914 105.165 39.123 105.155 39.0645C105.146 39.0059 105.087 38.9424 104.979 38.874C104.052 39.2158 103.158 39.5332 102.299 39.8262C101.439 40.1094 100.565 40.4268 99.6768 40.7783C99.667 40.7783 99.6475 40.7832 99.6182 40.793C99.5986 40.793 99.5791 40.793 99.5596 40.793C99.4814 40.793 99.4131 40.7637 99.3545 40.7051C99.3057 40.6465 99.2812 40.5781 99.2812 40.5C99.2812 40.4023 99.4424 40.2559 99.7646 40.0605C100.097 39.8555 100.512 39.6406 101.01 39.416C101.508 39.1816 102.055 38.9424 102.65 38.6982C103.256 38.4541 103.832 38.2344 104.379 38.0391C104.926 37.834 105.409 37.668 105.829 37.541C106.249 37.4141 106.532 37.3506 106.679 37.3506C106.884 37.3506 107.064 37.3994 107.221 37.4971C107.377 37.5947 107.455 37.7705 107.455 38.0244C107.455 38.1025 107.431 38.166 107.382 38.2148C107.343 38.2637 107.289 38.3076 107.221 38.3467C107.162 38.376 107.099 38.4053 107.03 38.4346C106.972 38.4541 106.923 38.4785 106.884 38.5078C106.825 38.5566 106.747 38.6299 106.649 38.7275C106.552 38.8252 106.449 38.9229 106.342 39.0205C106.244 39.1182 106.156 39.2109 106.078 39.2988C106 39.377 105.956 39.4258 105.946 39.4453C105.858 39.5918 105.746 39.7969 105.609 40.0605C105.482 40.3145 105.36 40.5732 105.243 40.8369C105.126 41.1006 105.023 41.3398 104.936 41.5547C104.848 41.7598 104.804 41.8818 104.804 41.9209V42.1992C104.843 42.1992 104.911 42.1895 105.009 42.1699C105.116 42.1406 105.224 42.1211 105.331 42.1113C105.438 42.1016 105.531 42.1162 105.609 42.1553C105.697 42.1943 105.741 42.2773 105.741 42.4043C105.741 42.5215 105.678 42.6191 105.551 42.6973C105.502 42.7168 105.414 42.7559 105.287 42.8145C105.17 42.8633 105.038 42.917 104.892 42.9756C104.755 43.0342 104.623 43.0928 104.496 43.1514C104.369 43.2002 104.281 43.2344 104.232 43.2539C103.803 43.957 103.349 44.6016 102.87 45.1875C102.401 45.7734 101.879 46.2764 101.303 46.6963C100.736 47.1064 100.102 47.4287 99.3984 47.6631C98.7051 47.8975 97.9287 48.0146 97.0693 48.0146C96.8838 48.0146 96.6738 47.9902 96.4395 47.9414C96.2148 47.8926 96 47.8145 95.7949 47.707C95.5996 47.5898 95.4336 47.4482 95.2969 47.2822C95.1602 47.1064 95.0918 46.9014 95.0918 46.667ZM105.478 46.0957C105.478 45.9102 105.487 45.7539 105.507 45.627C105.526 45.4902 105.59 45.3291 105.697 45.1436L109.491 38.3027H109.55C109.569 38.3027 109.584 38.3027 109.594 38.3027C109.613 38.293 109.633 38.2881 109.652 38.2881C109.789 38.2881 109.926 38.3125 110.062 38.3613C110.199 38.4102 110.268 38.5176 110.268 38.6836C110.268 38.7812 110.258 38.8545 110.238 38.9033C110.229 38.9521 110.204 39.001 110.165 39.0498C110.136 39.0889 110.092 39.1377 110.033 39.1963C109.984 39.2451 109.926 39.3281 109.857 39.4453C109.379 40.3242 108.915 41.1885 108.466 42.0381C108.026 42.8779 107.543 43.7275 107.016 44.5869C106.869 44.8115 106.737 45.0312 106.62 45.2461C106.503 45.4609 106.444 45.7197 106.444 46.0225C106.444 46.2471 106.483 46.4277 106.562 46.5645C106.64 46.6914 106.747 46.7891 106.884 46.8574C107.03 46.9258 107.196 46.9746 107.382 47.0039C107.567 47.0234 107.763 47.0381 107.968 47.0479C107.929 46.9795 107.899 46.8818 107.88 46.7549C107.86 46.6182 107.875 46.4033 107.924 46.1104C107.973 45.8174 108.065 45.5 108.202 45.1582C108.339 44.8066 108.529 44.4795 108.773 44.1768C109.027 43.8643 109.34 43.6006 109.711 43.3857C110.092 43.1709 110.551 43.0537 111.088 43.0342C111.439 43.0342 111.674 43.1074 111.791 43.2539C111.918 43.3906 111.981 43.6299 111.981 43.9717C111.981 44.46 111.854 44.9434 111.601 45.4219C111.347 45.9004 111.02 46.3301 110.619 46.7109C110.219 47.0918 109.77 47.4043 109.271 47.6484C108.773 47.8828 108.275 48 107.777 48C107.436 48 107.123 47.9707 106.84 47.9121C106.557 47.8438 106.312 47.7363 106.107 47.5898C105.912 47.4434 105.756 47.248 105.639 47.0039C105.531 46.7598 105.478 46.457 105.478 46.0957ZM110.634 43.8252C110.409 43.8643 110.189 43.9814 109.975 44.1768C109.77 44.3721 109.584 44.6016 109.418 44.8652C109.262 45.1191 109.135 45.3779 109.037 45.6416C108.939 45.8955 108.891 46.1104 108.891 46.2861C108.891 46.3154 108.891 46.3838 108.891 46.4912C108.9 46.5889 108.91 46.6475 108.92 46.667C109.154 46.5791 109.403 46.457 109.667 46.3008C109.94 46.1445 110.189 45.9639 110.414 45.7588C110.648 45.5537 110.839 45.3242 110.985 45.0703C111.142 44.8164 111.22 44.5479 111.22 44.2646C111.22 44.0986 111.19 43.9717 111.132 43.8838C111.073 43.7959 110.907 43.7764 110.634 43.8252ZM112.23 47.6191C112.23 47.4727 112.279 47.3115 112.377 47.1357C112.475 46.9502 112.587 46.7793 112.714 46.623C112.851 46.457 112.978 46.3105 113.095 46.1836C113.222 46.0566 113.314 45.9688 113.373 45.9199L116.596 40.0166C116.693 39.9385 116.781 39.8408 116.859 39.7236C116.938 39.5967 117.016 39.4795 117.094 39.3721C117.182 39.2549 117.274 39.1572 117.372 39.0791C117.479 39.001 117.606 38.9619 117.753 38.9619C117.753 39.1182 117.733 39.3086 117.694 39.5332C117.665 39.748 117.616 39.9092 117.548 40.0166L114.779 44.9531C115.072 44.8359 115.341 44.8018 115.585 44.8506C115.839 44.8896 116.073 44.9727 116.288 45.0996C116.503 45.2266 116.703 45.3828 116.889 45.5684C117.084 45.7441 117.265 45.915 117.431 46.0811C117.606 46.2471 117.772 46.3887 117.929 46.5059C118.085 46.623 118.241 46.6816 118.397 46.6816C118.739 46.6816 119.071 46.5107 119.394 46.1689C119.716 45.8271 120.023 45.3877 120.316 44.8506C120.609 44.3135 120.878 43.7178 121.122 43.0635C121.366 42.4092 121.576 41.7744 121.752 41.1592C121.928 40.5342 122.064 39.9678 122.162 39.46C122.26 38.9424 122.309 38.5566 122.309 38.3027C122.309 38.166 122.294 38.0195 122.265 37.8633C122.245 37.6973 122.201 37.5508 122.133 37.4238C122.064 37.2871 121.972 37.1748 121.854 37.0869C121.747 36.999 121.605 36.9551 121.43 36.9551C121.166 36.9551 120.927 37.0674 120.712 37.292C120.497 37.5166 120.302 37.8047 120.126 38.1562C119.95 38.5078 119.794 38.9033 119.657 39.3428C119.53 39.7725 119.418 40.1924 119.32 40.6025C119.232 41.0127 119.164 41.3887 119.115 41.7305C119.076 42.0723 119.057 42.3311 119.057 42.5068C119.057 42.7021 119.076 42.8877 119.115 43.0635C119.164 43.2393 119.218 43.4102 119.276 43.5762C119.335 43.7422 119.384 43.9131 119.423 44.0889C119.472 44.2549 119.496 44.4307 119.496 44.6162C119.223 44.6162 119.003 44.5479 118.837 44.4111C118.681 44.2744 118.563 44.1035 118.485 43.8984C118.407 43.6934 118.354 43.4736 118.324 43.2393C118.305 42.9951 118.295 42.7705 118.295 42.5654C118.295 42.3311 118.324 42.0039 118.383 41.584C118.451 41.1641 118.544 40.7148 118.661 40.2363C118.788 39.748 118.939 39.2549 119.115 38.7568C119.301 38.2588 119.511 37.8096 119.745 37.4092C119.989 36.999 120.258 36.667 120.551 36.4131C120.854 36.1494 121.181 36.0176 121.532 36.0176C121.562 36.0176 121.625 36.0225 121.723 36.0322C121.83 36.042 121.898 36.0469 121.928 36.0469C122.084 36.2422 122.221 36.4277 122.338 36.6035C122.455 36.7793 122.553 36.9551 122.631 37.1309C122.719 37.3066 122.782 37.4922 122.821 37.6875C122.86 37.8828 122.88 38.1025 122.88 38.3467C122.88 38.6494 122.831 39.0889 122.733 39.665C122.646 40.2412 122.514 40.876 122.338 41.5693C122.162 42.2529 121.947 42.9561 121.693 43.6787C121.439 44.3916 121.146 45.041 120.814 45.627C120.482 46.2129 120.116 46.6963 119.716 47.0771C119.315 47.4482 118.886 47.6338 118.427 47.6338C118.114 47.6338 117.846 47.585 117.621 47.4873C117.406 47.3896 117.216 47.2725 117.05 47.1357C116.884 46.9893 116.732 46.833 116.596 46.667C116.459 46.4912 116.317 46.335 116.171 46.1982C116.024 46.0518 115.863 45.9297 115.688 45.832C115.512 45.7344 115.297 45.6855 115.043 45.6855C114.779 45.6855 114.55 45.7686 114.354 45.9346C114.159 46.1006 113.988 46.3057 113.842 46.5498C113.695 46.7939 113.568 47.0479 113.461 47.3115C113.354 47.5752 113.261 47.8047 113.183 48C113.163 48 113.129 48 113.08 48C113.041 48.0098 113.012 48.0146 112.992 48.0146C112.943 48.0146 112.875 48.0049 112.787 47.9854C112.709 47.9658 112.626 47.9414 112.538 47.9121C112.46 47.873 112.387 47.8291 112.318 47.7803C112.26 47.7314 112.23 47.6777 112.23 47.6191ZM123.334 46.667C123.334 46.6084 123.334 46.5352 123.334 46.4473C123.334 46.3594 123.344 46.2764 123.363 46.1982C123.383 46.1104 123.412 46.0371 123.451 45.9785C123.49 45.9199 123.549 45.8906 123.627 45.8906C123.705 45.8906 123.788 45.9639 123.876 46.1104C123.974 46.2471 124.096 46.4033 124.242 46.5791C124.389 46.7451 124.569 46.9014 124.784 47.0479C125.009 47.1846 125.287 47.2529 125.619 47.2529C125.873 47.2529 126.176 47.2139 126.527 47.1357C126.879 47.0576 127.24 46.9502 127.611 46.8135C127.992 46.667 128.363 46.4961 128.725 46.3008C129.096 46.0957 129.428 45.876 129.721 45.6416C130.014 45.3975 130.248 45.1436 130.424 44.8799C130.609 44.6064 130.702 44.3232 130.702 44.0303C130.351 44.0303 130.014 44.0693 129.691 44.1475C129.369 44.2256 129.013 44.2646 128.622 44.2646C128.622 44.1768 128.637 44.0938 128.666 44.0156C128.695 43.9277 128.759 43.8643 128.856 43.8252L131.508 42.6973L131.903 42.3018C131.942 42.2041 132.016 42.0381 132.123 41.8037C132.23 41.5693 132.343 41.3252 132.46 41.0713C132.587 40.8076 132.704 40.5586 132.812 40.3242C132.919 40.0898 132.997 39.9287 133.046 39.8408C133.046 39.8311 133.065 39.7969 133.104 39.7383C133.144 39.6797 133.183 39.6211 133.222 39.5625C133.271 39.4941 133.31 39.4355 133.339 39.3867C133.378 39.3281 133.402 39.2891 133.412 39.2695C133.412 39.1914 133.407 39.123 133.397 39.0645C133.388 39.0059 133.329 38.9424 133.222 38.874C132.294 39.2158 131.4 39.5332 130.541 39.8262C129.682 40.1094 128.808 40.4268 127.919 40.7783C127.909 40.7783 127.89 40.7832 127.86 40.793C127.841 40.793 127.821 40.793 127.802 40.793C127.724 40.793 127.655 40.7637 127.597 40.7051C127.548 40.6465 127.523 40.5781 127.523 40.5C127.523 40.4023 127.685 40.2559 128.007 40.0605C128.339 39.8555 128.754 39.6406 129.252 39.416C129.75 39.1816 130.297 38.9424 130.893 38.6982C131.498 38.4541 132.074 38.2344 132.621 38.0391C133.168 37.834 133.651 37.668 134.071 37.541C134.491 37.4141 134.774 37.3506 134.921 37.3506C135.126 37.3506 135.307 37.3994 135.463 37.4971C135.619 37.5947 135.697 37.7705 135.697 38.0244C135.697 38.1025 135.673 38.166 135.624 38.2148C135.585 38.2637 135.531 38.3076 135.463 38.3467C135.404 38.376 135.341 38.4053 135.272 38.4346C135.214 38.4541 135.165 38.4785 135.126 38.5078C135.067 38.5566 134.989 38.6299 134.892 38.7275C134.794 38.8252 134.691 38.9229 134.584 39.0205C134.486 39.1182 134.398 39.2109 134.32 39.2988C134.242 39.377 134.198 39.4258 134.188 39.4453C134.101 39.5918 133.988 39.7969 133.852 40.0605C133.725 40.3145 133.603 40.5732 133.485 40.8369C133.368 41.1006 133.266 41.3398 133.178 41.5547C133.09 41.7598 133.046 41.8818 133.046 41.9209V42.1992C133.085 42.1992 133.153 42.1895 133.251 42.1699C133.358 42.1406 133.466 42.1211 133.573 42.1113C133.681 42.1016 133.773 42.1162 133.852 42.1553C133.939 42.1943 133.983 42.2773 133.983 42.4043C133.983 42.5215 133.92 42.6191 133.793 42.6973C133.744 42.7168 133.656 42.7559 133.529 42.8145C133.412 42.8633 133.28 42.917 133.134 42.9756C132.997 43.0342 132.865 43.0928 132.738 43.1514C132.611 43.2002 132.523 43.2344 132.475 43.2539C132.045 43.957 131.591 44.6016 131.112 45.1875C130.644 45.7734 130.121 46.2764 129.545 46.6963C128.979 47.1064 128.344 47.4287 127.641 47.6631C126.947 47.8975 126.171 48.0146 125.312 48.0146C125.126 48.0146 124.916 47.9902 124.682 47.9414C124.457 47.8926 124.242 47.8145 124.037 47.707C123.842 47.5898 123.676 47.4482 123.539 47.2822C123.402 47.1064 123.334 46.9014 123.334 46.667ZM133.632 56.9502C133.632 56.4131 133.69 55.8711 133.808 55.3242C133.925 54.7871 134.071 54.25 134.247 53.7129C134.433 53.1758 134.638 52.6484 134.862 52.1309C135.097 51.623 135.326 51.1348 135.551 50.666V50.2852H134.76C134.76 50.0996 134.804 49.9482 134.892 49.8311C134.979 49.7236 135.092 49.6357 135.229 49.5674C135.365 49.499 135.512 49.4453 135.668 49.4062C135.834 49.377 135.985 49.3525 136.122 49.333L137.074 47.6191V47.4727C136.908 47.4727 136.742 47.502 136.576 47.5605C136.42 47.6191 136.259 47.6826 136.093 47.751C135.937 47.8096 135.771 47.8682 135.595 47.9268C135.429 47.9854 135.253 48.0146 135.067 48.0146C134.628 48.0146 134.311 47.9121 134.115 47.707C133.92 47.4922 133.822 47.1748 133.822 46.7549C133.881 46.374 134.037 45.9736 134.291 45.5537C134.545 45.1338 134.857 44.7432 135.229 44.3818C135.609 44.0107 136.02 43.6982 136.459 43.4443C136.908 43.1904 137.348 43.0391 137.777 42.9902C138.217 42.9414 138.622 43.0244 138.993 43.2393C139.374 43.4443 139.687 43.835 139.931 44.4111C139.931 44.6357 139.892 44.8555 139.813 45.0703C139.735 45.2852 139.633 45.4951 139.506 45.7002C139.389 45.8955 139.247 46.0811 139.081 46.2568C138.925 46.4229 138.759 46.5645 138.583 46.6816L137.074 49.7139C137.074 49.7236 137.069 49.7383 137.06 49.7578C137.06 49.7773 137.06 49.7969 137.06 49.8164C137.06 49.9434 137.089 50.0654 137.147 50.1826C137.216 50.2998 137.289 50.417 137.367 50.5342C137.455 50.6514 137.538 50.7686 137.616 50.8857C137.704 51.0029 137.772 51.1201 137.821 51.2373C138.046 51.8818 138.134 52.5264 138.085 53.1709C138.036 53.8154 137.885 54.4355 137.631 55.0312C137.377 55.6367 137.035 56.1982 136.605 56.7158C136.176 57.2334 135.697 57.6826 135.17 58.0635C135.072 58.1514 134.979 58.2051 134.892 58.2246C134.804 58.2539 134.706 58.2686 134.599 58.2686C134.413 58.2686 134.257 58.2295 134.13 58.1514C134.013 58.0732 133.915 57.9707 133.837 57.8438C133.769 57.7168 133.715 57.5752 133.676 57.4189C133.646 57.2627 133.632 57.1064 133.632 56.9502ZM134.599 57.1992C134.872 57.1992 135.131 57.1162 135.375 56.9502C135.619 56.7842 135.849 56.5645 136.063 56.291C136.278 56.0176 136.469 55.71 136.635 55.3682C136.811 55.0361 136.957 54.6943 137.074 54.3428C137.201 54.001 137.294 53.6738 137.353 53.3613C137.421 53.0488 137.455 52.7803 137.455 52.5557C137.455 52.1846 137.367 51.833 137.191 51.501C137.016 51.1787 136.786 50.9004 136.503 50.666L134.599 57.1992ZM134.774 46.5938C134.774 46.7793 134.809 46.9062 134.877 46.9746C134.945 47.043 135.077 47.0771 135.272 47.0771C135.497 47.0771 135.805 46.9941 136.195 46.8281C136.596 46.6523 136.986 46.4375 137.367 46.1836C137.758 45.9199 138.095 45.6318 138.378 45.3193C138.661 45.0068 138.803 44.709 138.803 44.4258C138.803 44.1426 138.729 43.9424 138.583 43.8252C138.446 43.6982 138.222 43.6348 137.909 43.6348C137.753 43.6348 137.567 43.6836 137.353 43.7812C137.147 43.8789 136.928 44.0107 136.693 44.1768C136.459 44.3428 136.225 44.5332 135.99 44.748C135.766 44.9531 135.561 45.168 135.375 45.3926C135.199 45.6074 135.053 45.8223 134.936 46.0371C134.828 46.2422 134.774 46.4277 134.774 46.5938ZM140.561 47.6191C140.561 47.5996 140.561 47.5703 140.561 47.5312C140.57 47.4824 140.575 47.4482 140.575 47.4287C140.79 46.8428 141.02 46.1934 141.264 45.4805C141.508 44.7676 141.757 44.04 142.011 43.2979C142.265 42.5557 142.514 41.833 142.758 41.1299C143.002 40.417 143.236 39.7676 143.461 39.1816C143.539 39.0156 143.617 38.9082 143.695 38.8594C143.783 38.8105 143.896 38.7861 144.032 38.7861C144.296 38.7861 144.428 38.918 144.428 39.1816C144.408 39.4062 144.34 39.7627 144.223 40.251C144.105 40.7393 143.93 41.3447 143.695 42.0674C143.461 42.79 143.163 43.6201 142.802 44.5576C142.45 45.4854 142.025 46.5059 141.527 47.6191C141.488 47.7266 141.391 47.8193 141.234 47.8975C141.088 47.9756 140.966 48.0146 140.868 48.0146C140.761 48.0146 140.683 47.9756 140.634 47.8975C140.585 47.8096 140.561 47.7168 140.561 47.6191ZM150.595 44.9971C150.458 44.9971 150.321 45.0752 150.185 45.2314C150.048 45.3779 149.896 45.5635 149.73 45.7881C149.574 46.0127 149.398 46.2617 149.203 46.5352C149.008 46.7988 148.783 47.043 148.529 47.2676C148.285 47.4922 148.007 47.6826 147.694 47.8389C147.382 47.9854 147.025 48.0586 146.625 48.0586C146.439 48.0586 146.225 48.0488 145.98 48.0293C145.746 48.0195 145.521 47.9854 145.307 47.9268C145.102 47.8584 144.926 47.7559 144.779 47.6191C144.643 47.4727 144.574 47.2725 144.574 47.0186C144.574 46.6768 144.677 46.3691 144.882 46.0957C145.097 45.8125 145.37 45.5586 145.702 45.334C146.044 45.1094 146.42 44.9141 146.83 44.748C147.25 44.582 147.665 44.4404 148.075 44.3232C148.485 44.2061 148.871 44.1133 149.232 44.0449C149.594 43.9668 149.887 43.9082 150.111 43.8691L152.968 39.3135C153.095 39.1084 153.266 38.8936 153.48 38.6689C153.695 38.4443 153.93 38.2393 154.184 38.0537C154.438 37.8584 154.701 37.6973 154.975 37.5703C155.258 37.4434 155.526 37.3799 155.78 37.3799C155.829 37.3799 155.917 37.3896 156.044 37.4092C156.181 37.4287 156.312 37.4971 156.439 37.6143C156.576 37.7314 156.693 37.9219 156.791 38.1855C156.898 38.4492 156.952 38.8252 156.952 39.3135C156.884 39.333 156.82 39.3672 156.762 39.416C156.703 39.4551 156.635 39.499 156.557 39.5479C156.488 39.5869 156.405 39.626 156.308 39.665C156.22 39.6943 156.117 39.709 156 39.709C156.156 39.3867 156.21 39.1328 156.161 38.9473C156.122 38.752 156.024 38.6201 155.868 38.5518C155.712 38.4834 155.517 38.4688 155.282 38.5078C155.048 38.5469 154.813 38.6299 154.579 38.7568C154.345 38.874 154.13 39.0303 153.935 39.2256C153.749 39.4209 153.617 39.6406 153.539 39.8848L151.063 44.0742V44.2646C151.464 44.5479 151.767 44.8555 151.972 45.1875C152.187 45.5195 152.348 45.8564 152.455 46.1982C152.572 46.5303 152.66 46.8574 152.719 47.1797C152.777 47.502 152.851 47.79 152.938 48.0439C153.036 48.3076 153.168 48.5225 153.334 48.6885C153.51 48.8643 153.769 48.9717 154.11 49.0107C154.11 49.0205 154.11 49.0352 154.11 49.0547C154.12 49.0742 154.125 49.0889 154.125 49.0986C154.125 49.2158 154.076 49.3037 153.979 49.3623C153.891 49.4307 153.783 49.4795 153.656 49.5088C153.529 49.5479 153.397 49.5723 153.261 49.582C153.134 49.5918 153.031 49.5967 152.953 49.5967C152.748 49.4209 152.577 49.1865 152.44 48.8936C152.313 48.6006 152.201 48.2881 152.104 47.9561C152.006 47.6143 151.913 47.2725 151.825 46.9307C151.747 46.5791 151.654 46.2666 151.547 45.9932C151.439 45.71 151.312 45.4756 151.166 45.29C151.02 45.1045 150.829 45.0068 150.595 44.9971ZM145.365 46.8135C145.365 46.9307 145.404 47.0234 145.482 47.0918C145.57 47.1602 145.673 47.209 145.79 47.2383C145.907 47.2676 146.024 47.2871 146.142 47.2969C146.269 47.3066 146.366 47.3115 146.435 47.3115C146.698 47.3115 146.991 47.2432 147.313 47.1064C147.636 46.96 147.934 46.7744 148.207 46.5498C148.49 46.3252 148.725 46.0762 148.91 45.8027C149.105 45.5195 149.203 45.2363 149.203 44.9531C148.441 44.9531 147.729 45.0898 147.064 45.3633C146.41 45.627 145.849 46.0811 145.38 46.7256C145.38 46.7354 145.375 46.75 145.365 46.7695C145.365 46.7891 145.365 46.8037 145.365 46.8135ZM157.04 44.9531C157.147 44.8457 157.206 44.7285 157.216 44.6016C157.226 44.4746 157.23 44.3428 157.23 44.2061C157.23 43.6006 157.108 43.1855 156.864 42.9609C156.63 42.7266 156.22 42.6094 155.634 42.6094C155.634 42.5215 155.678 42.4531 155.766 42.4043C155.863 42.3555 155.971 42.3262 156.088 42.3164C156.215 42.2969 156.332 42.2871 156.439 42.2871C156.547 42.2871 156.615 42.2871 156.645 42.2871C156.879 42.2871 157.089 42.3408 157.274 42.4482C157.46 42.5459 157.616 42.6533 157.743 42.7705C157.88 42.8877 157.987 43 158.065 43.1074C158.153 43.2051 158.217 43.2539 158.256 43.2539C158.344 43.2539 158.427 43.2344 158.505 43.1953C158.593 43.1562 158.671 43.1123 158.739 43.0635C158.808 43.0049 158.935 42.9072 159.12 42.7705C159.306 42.624 159.496 42.4727 159.691 42.3164C159.896 42.1504 160.087 41.999 160.263 41.8623C160.448 41.7158 160.575 41.6133 160.644 41.5547C160.673 41.5449 160.722 41.5303 160.79 41.5107C160.868 41.4912 160.946 41.4717 161.024 41.4521C161.103 41.4229 161.176 41.3984 161.244 41.3789C161.322 41.3594 161.376 41.3496 161.405 41.3496H161.449C161.459 41.3496 161.469 41.3496 161.479 41.3496C161.488 41.3398 161.498 41.335 161.508 41.335C161.586 41.335 161.654 41.3691 161.713 41.4375C161.771 41.5059 161.801 41.5791 161.801 41.6572C161.801 41.7549 161.752 41.8232 161.654 41.8623C161.557 41.8916 161.439 41.916 161.303 41.9355C161.176 41.9551 161.049 41.9746 160.922 41.9941C160.795 42.0137 160.702 42.0576 160.644 42.126L158.563 44.5869V46.4912H160.512C160.512 46.6963 160.458 46.8525 160.351 46.96C160.243 47.0674 160.111 47.1455 159.955 47.1943C159.799 47.2334 159.628 47.2578 159.442 47.2676C159.257 47.2676 159.091 47.2676 158.944 47.2676C158.495 47.2676 158.129 47.1162 157.846 46.8135C157.562 46.5107 157.353 46.1445 157.216 45.7148C157.108 45.8906 156.962 46.1055 156.776 46.3594C156.601 46.6035 156.4 46.8428 156.176 47.0771C155.961 47.3018 155.727 47.4971 155.473 47.6631C155.229 47.8193 154.989 47.8975 154.755 47.8975V47.2383L157.04 44.9531ZM166.518 51.6035C166.518 50.8418 166.527 50.1191 166.547 49.4355C166.576 48.752 166.635 48.0195 166.723 47.2383C166.693 46.9453 166.659 46.6279 166.62 46.2861C166.581 45.9346 166.518 45.5928 166.43 45.2607C166.352 44.9189 166.239 44.6064 166.093 44.3232C165.956 44.04 165.775 43.8203 165.551 43.6641C165.102 44.2012 164.73 44.6943 164.438 45.1436C164.154 45.583 163.92 45.9736 163.734 46.3154C163.559 46.6475 163.417 46.9258 163.31 47.1504C163.202 47.3652 163.104 47.5166 163.017 47.6045C162.929 47.6924 162.836 47.707 162.738 47.6484C162.641 47.5898 162.514 47.4531 162.357 47.2383C162.533 46.9551 162.758 46.5889 163.031 46.1396C163.305 45.6807 163.603 45.1729 163.925 44.6162C164.257 44.0596 164.604 43.4736 164.965 42.8584C165.326 42.2334 165.683 41.623 166.034 41.0273C166.396 40.4219 166.737 39.8457 167.06 39.2988C167.382 38.752 167.67 38.2734 167.924 37.8633C168.012 37.8242 168.08 37.8047 168.129 37.8047C168.188 37.8047 168.227 37.8145 168.246 37.834C168.275 37.8535 168.29 37.8779 168.29 37.9072C168.3 37.9268 168.305 37.9414 168.305 37.9512C168.305 38.2148 168.236 38.5322 168.1 38.9033C167.973 39.2744 167.812 39.6553 167.616 40.0459C167.431 40.4268 167.235 40.7881 167.03 41.1299C166.835 41.4619 166.664 41.7207 166.518 41.9062C166.811 41.8379 167.123 41.7109 167.455 41.5254C167.797 41.3398 168.134 41.1299 168.466 40.8955C168.808 40.6611 169.14 40.4121 169.462 40.1484C169.794 39.8848 170.102 39.6455 170.385 39.4307C170.678 39.2158 170.941 39.04 171.176 38.9033C171.41 38.7568 171.605 38.6836 171.762 38.6836C171.811 38.6836 171.859 38.708 171.908 38.7568C171.957 38.8057 172.001 38.8691 172.04 38.9473C172.079 39.0156 172.108 39.0889 172.128 39.167C172.157 39.2354 172.172 39.2891 172.172 39.3281C172.006 39.3281 171.781 39.416 171.498 39.5918C171.215 39.7578 170.844 40.002 170.385 40.3242C169.926 40.6465 169.364 41.0371 168.7 41.4961C168.046 41.9453 167.265 42.4482 166.356 43.0049C166.464 43.1514 166.581 43.3271 166.708 43.5322C166.845 43.7373 166.967 43.9521 167.074 44.1768C167.191 44.4014 167.289 44.6309 167.367 44.8652C167.445 45.0996 167.484 45.3193 167.484 45.5244C167.533 46.5205 167.519 47.5117 167.44 48.498C167.362 49.4844 167.309 50.4512 167.279 51.3984C167.68 51.4863 167.958 51.5791 168.114 51.6768C168.28 51.7842 168.358 51.877 168.349 51.9551C168.339 52.043 168.261 52.1113 168.114 52.1602C167.978 52.209 167.812 52.2236 167.616 52.2041C167.431 52.1943 167.235 52.1406 167.03 52.043C166.825 51.9551 166.654 51.8086 166.518 51.6035ZM178.822 47.3408C178.822 47.0967 178.837 46.8525 178.866 46.6084C178.905 46.3643 178.944 46.125 178.983 45.8906C179.032 45.6465 179.071 45.4023 179.101 45.1582C179.14 44.9043 179.159 44.6504 179.159 44.3965C178.837 44.3965 178.559 44.4111 178.324 44.4404C178.09 44.4697 177.86 44.499 177.636 44.5283C177.411 44.5576 177.172 44.582 176.918 44.6016C176.664 44.6113 176.356 44.6064 175.995 44.5869C175.731 44.8799 175.429 45.1924 175.087 45.5244C174.755 45.8564 174.398 46.1641 174.018 46.4473C173.637 46.7305 173.236 46.9697 172.816 47.165C172.396 47.3506 171.972 47.4434 171.542 47.4434C171.249 47.4434 170.966 47.3945 170.692 47.2969C170.429 47.1992 170.194 47.0625 169.989 46.8867C169.784 46.7109 169.623 46.501 169.506 46.2568C169.389 46.0029 169.33 45.7246 169.33 45.4219C169.33 45.2656 169.354 45.1484 169.403 45.0703C169.462 44.9824 169.579 44.9385 169.755 44.9385C169.843 44.9385 169.921 45.0215 169.989 45.1875C170.058 45.3438 170.146 45.5244 170.253 45.7295C170.37 45.9248 170.517 46.1055 170.692 46.2715C170.868 46.4277 171.107 46.5059 171.41 46.5059C171.781 46.5059 172.143 46.4375 172.494 46.3008C172.855 46.1543 173.197 45.9736 173.52 45.7588C173.852 45.5342 174.159 45.2852 174.442 45.0117C174.735 44.7383 174.999 44.4697 175.233 44.2061C175.204 43.9619 175.116 43.7812 174.97 43.6641C174.823 43.5469 174.667 43.4297 174.501 43.3125C174.345 43.1953 174.203 43.0391 174.076 42.8438C173.949 42.6484 173.886 42.3408 173.886 41.9209C173.886 41.3252 174.066 40.8613 174.428 40.5293C174.789 40.1875 175.282 40.0166 175.907 40.0166C176.093 40.0166 176.273 40.0361 176.449 40.0752C176.635 40.1143 176.82 40.1631 177.006 40.2217C177.191 40.2705 177.372 40.3145 177.548 40.3535C177.733 40.3926 177.919 40.4121 178.104 40.4121C178.222 40.4121 178.314 40.3975 178.383 40.3682C178.461 40.3389 178.529 40.2949 178.588 40.2363C178.646 40.1777 178.71 40.0996 178.778 40.002C178.847 39.9043 178.935 39.7871 179.042 39.6504C179.101 39.5723 179.188 39.4502 179.306 39.2842C179.433 39.1084 179.569 38.918 179.716 38.7129C179.862 38.498 180.019 38.2734 180.185 38.0391C180.351 37.8047 180.507 37.5801 180.653 37.3652C180.8 37.1504 180.932 36.96 181.049 36.7939C181.166 36.6279 181.249 36.501 181.298 36.4131C181.405 36.3252 181.503 36.2715 181.591 36.252C181.679 36.2227 181.781 36.208 181.898 36.208C182.016 36.208 182.104 36.252 182.162 36.3398C182.221 36.418 182.255 36.5156 182.265 36.6328C182.284 36.75 182.289 36.8721 182.279 36.999C182.279 37.1162 182.279 37.209 182.279 37.2773C182.279 37.3066 182.279 37.3555 182.279 37.4238C182.279 37.4824 182.274 37.5459 182.265 37.6143C182.265 37.6826 182.265 37.751 182.265 37.8193C182.265 37.8779 182.265 37.917 182.265 37.9365C182.235 38.0342 182.187 38.1807 182.118 38.376C182.06 38.5713 181.991 38.7959 181.913 39.0498C181.835 39.2939 181.752 39.5527 181.664 39.8262C181.586 40.0996 181.508 40.3633 181.43 40.6172C181.361 40.8711 181.298 41.0957 181.239 41.291C181.181 41.4863 181.142 41.6328 181.122 41.7305C181.112 41.7793 181.098 41.8574 181.078 41.9648C181.059 42.0723 181.039 42.1895 181.02 42.3164C181 42.4336 180.98 42.5459 180.961 42.6533C180.941 42.7607 180.932 42.834 180.932 42.873C181.02 42.8926 181.107 42.9219 181.195 42.9609C181.283 43 181.327 43.0635 181.327 43.1514C181.327 43.249 181.288 43.3271 181.21 43.3857C181.142 43.4443 181.059 43.498 180.961 43.5469C180.863 43.5957 180.771 43.6543 180.683 43.7227C180.604 43.791 180.561 43.8887 180.551 44.0156C180.531 44.1328 180.497 44.3477 180.448 44.6602C180.399 44.9629 180.341 45.29 180.272 45.6416C180.214 45.9834 180.155 46.3057 180.097 46.6084C180.048 46.9111 180.009 47.1211 179.979 47.2383C179.97 47.2676 179.95 47.3213 179.921 47.3994C179.892 47.4775 179.857 47.5557 179.818 47.6338C179.779 47.7119 179.74 47.7852 179.701 47.8535C179.662 47.9219 179.633 47.9707 179.613 48C179.379 47.9512 179.188 47.8926 179.042 47.8242C178.896 47.7461 178.822 47.585 178.822 47.3408ZM178.573 41.7158C178.456 41.7158 178.29 41.7988 178.075 41.9648C177.87 42.1309 177.665 42.3262 177.46 42.5508C177.255 42.7656 177.074 42.9854 176.918 43.21C176.762 43.4248 176.684 43.5859 176.684 43.6934C176.742 43.6934 176.854 43.6934 177.021 43.6934C177.196 43.6836 177.377 43.6787 177.562 43.6787C177.758 43.6689 177.938 43.6592 178.104 43.6494C178.28 43.6396 178.402 43.6348 178.471 43.6348C178.51 43.6348 178.568 43.625 178.646 43.6055C178.734 43.5859 178.817 43.5664 178.896 43.5469C178.974 43.5273 179.042 43.5078 179.101 43.4883C179.169 43.4688 179.208 43.4541 179.218 43.4443C179.228 43.4443 179.232 43.415 179.232 43.3564C179.232 43.2881 179.232 43.2344 179.232 43.1953C179.232 43.1172 179.218 42.9951 179.188 42.8291C179.169 42.6631 179.13 42.4971 179.071 42.3311C179.022 42.165 178.954 42.0234 178.866 41.9062C178.788 41.7793 178.69 41.7158 178.573 41.7158ZM174.457 41.7305C174.457 41.8672 174.506 42.0234 174.604 42.1992C174.701 42.375 174.823 42.541 174.97 42.6973C175.116 42.8535 175.272 42.9854 175.438 43.0928C175.604 43.2002 175.761 43.2539 175.907 43.2539C176.044 43.2539 176.205 43.1709 176.391 43.0049C176.576 42.8389 176.752 42.6484 176.918 42.4336C177.094 42.209 177.24 41.9941 177.357 41.7891C177.475 41.584 177.533 41.4424 177.533 41.3643C177.533 41.1982 177.475 41.0762 177.357 40.998C177.25 40.9102 177.118 40.8516 176.962 40.8223C176.815 40.7832 176.659 40.7637 176.493 40.7637C176.327 40.7637 176.19 40.7637 176.083 40.7637C175.946 40.7637 175.78 40.7783 175.585 40.8076C175.399 40.8271 175.224 40.8711 175.058 40.9395C174.892 41.0078 174.75 41.1055 174.633 41.2324C174.516 41.3594 174.457 41.5254 174.457 41.7305ZM178.852 40.9834C179.066 41.2373 179.267 41.5107 179.452 41.8037C179.638 42.0967 179.813 42.3945 179.979 42.6973L181.283 38.0098L178.852 40.9834ZM182.089 47.6191C182.089 47.2578 182.187 46.8672 182.382 46.4473C182.587 46.0273 182.807 45.6074 183.041 45.1875C183.285 44.7578 183.505 44.3379 183.7 43.9277C183.905 43.5176 184.008 43.1367 184.008 42.7852C184.008 42.6484 183.974 42.5215 183.905 42.4043C183.847 42.2773 183.778 42.1553 183.7 42.0381C183.632 41.9111 183.568 41.7891 183.51 41.6719C183.451 41.5449 183.422 41.4082 183.422 41.2617C183.422 41.0957 183.485 40.9346 183.612 40.7783C183.749 40.6221 183.9 40.5439 184.066 40.5439C184.066 40.6318 184.071 40.7393 184.081 40.8662C184.091 40.9834 184.11 41.1006 184.14 41.2178C184.179 41.335 184.232 41.4424 184.301 41.54C184.369 41.6279 184.462 41.6914 184.579 41.7305C184.677 41.4668 184.823 41.125 185.019 40.7051C185.224 40.2754 185.463 39.8213 185.736 39.3428C186.02 38.8545 186.322 38.3711 186.645 37.8926C186.977 37.4043 187.313 36.9648 187.655 36.5742C188.007 36.1836 188.358 35.8662 188.71 35.6221C189.062 35.3779 189.394 35.2559 189.706 35.2559C189.94 35.2559 190.141 35.3047 190.307 35.4023C190.482 35.5 190.624 35.6318 190.731 35.7979C190.839 35.9541 190.917 36.1348 190.966 36.3398C191.015 36.5449 191.039 36.7549 191.039 36.9697C191.039 37.7607 190.868 38.5029 190.526 39.1963C190.194 39.8799 189.75 40.4854 189.193 41.0127C188.646 41.5303 188.021 41.9551 187.318 42.2871C186.615 42.6094 185.893 42.8047 185.15 42.873L184.755 43.4443L183.056 47.6191C182.978 47.7852 182.895 47.8926 182.807 47.9414C182.729 47.9902 182.626 48.0146 182.499 48.0146C182.226 48.0146 182.089 47.8828 182.089 47.6191ZM189.516 36.208C189.242 36.208 188.959 36.3105 188.666 36.5156C188.383 36.7109 188.1 36.9697 187.816 37.292C187.533 37.6143 187.265 37.9756 187.011 38.376C186.757 38.7764 186.532 39.1768 186.337 39.5771C186.142 39.9678 185.985 40.3389 185.868 40.6904C185.761 41.042 185.707 41.3301 185.707 41.5547C185.707 41.5742 185.707 41.6328 185.707 41.7305C185.717 41.8281 185.722 41.8916 185.722 41.9209C186.337 41.8916 186.913 41.7256 187.45 41.4229C187.987 41.1104 188.451 40.7148 188.842 40.2363C189.232 39.7578 189.54 39.2256 189.765 38.6396C189.989 38.0439 190.102 37.4531 190.102 36.8672C190.102 36.5938 190.072 36.418 190.014 36.3398C189.955 36.252 189.789 36.208 189.516 36.208ZM187.904 46.374C187.904 46.1885 187.929 46.0273 187.978 45.8906C188.036 45.7539 188.178 45.6855 188.402 45.6855C188.422 45.6855 188.466 45.6904 188.534 45.7002C188.612 45.7002 188.666 45.7051 188.695 45.7148C188.686 46.1738 188.759 46.5205 188.915 46.7549C189.071 46.9795 189.364 47.0918 189.794 47.0918C190.146 47.0918 190.492 47.0381 190.834 46.9307C191.176 46.8232 191.483 46.667 191.757 46.4619C192.04 46.2471 192.265 45.9883 192.431 45.6855C192.606 45.3828 192.694 45.041 192.694 44.6602C192.694 44.4258 192.611 44.2598 192.445 44.1621C192.289 44.0645 192.113 43.9863 191.918 43.9277C191.723 43.8691 191.542 43.8057 191.376 43.7373C191.22 43.6592 191.142 43.5273 191.142 43.3418C191.142 43.1172 191.278 42.9023 191.552 42.6973C191.825 42.4922 192.147 42.3115 192.519 42.1553C192.89 41.9893 193.256 41.8623 193.617 41.7744C193.988 41.6768 194.271 41.6279 194.467 41.6279C194.467 41.9111 194.403 42.1113 194.276 42.2285C194.159 42.3457 194.013 42.4385 193.837 42.5068C193.661 42.5752 193.48 42.6436 193.295 42.7119C193.119 42.7705 192.973 42.8877 192.855 43.0635C193.012 43.1904 193.139 43.3076 193.236 43.415C193.344 43.5127 193.427 43.6201 193.485 43.7373C193.544 43.8545 193.583 43.9863 193.603 44.1328C193.622 44.2695 193.632 44.4355 193.632 44.6309C193.632 45.1387 193.52 45.6025 193.295 46.0225C193.08 46.4326 192.797 46.7891 192.445 47.0918C192.094 47.3848 191.693 47.6143 191.244 47.7803C190.795 47.9365 190.336 48.0146 189.867 48.0146C189.613 48.0146 189.364 47.9854 189.12 47.9268C188.886 47.8584 188.676 47.7559 188.49 47.6191C188.314 47.4824 188.173 47.3115 188.065 47.1064C187.958 46.9014 187.904 46.6572 187.904 46.374ZM194.921 47.0771C194.921 47.0479 194.921 47.0088 194.921 46.96C194.931 46.9014 194.936 46.8672 194.936 46.8574C194.965 46.5645 194.999 46.1934 195.038 45.7441C195.077 45.2852 195.116 44.8457 195.155 44.4258C195.204 44.0059 195.243 43.6445 195.272 43.3418C195.302 43.0293 195.316 42.873 195.316 42.873L195.712 42.4922C195.878 42.541 196 42.6094 196.078 42.6973C196.156 42.7754 196.21 42.8633 196.239 42.9609C196.269 43.0586 196.283 43.166 196.283 43.2832C196.283 43.4004 196.283 43.5176 196.283 43.6348C196.283 44.0449 196.244 44.4453 196.166 44.8359C196.098 45.2168 196.063 45.6074 196.063 46.0078C196.063 46.0273 196.063 46.0762 196.063 46.1543C196.073 46.2227 196.078 46.2666 196.078 46.2861L199.682 42.4922C199.691 42.4824 199.716 42.4775 199.755 42.4775C199.804 42.4775 199.838 42.4775 199.857 42.4775C199.955 42.4775 200.048 42.4971 200.136 42.5361C200.224 42.5752 200.268 42.6582 200.268 42.7852C200.268 42.7949 200.263 42.8047 200.253 42.8145C200.253 42.8145 200.253 42.8193 200.253 42.8291V42.873C200.204 42.9512 200.116 43.0781 199.989 43.2539C199.872 43.4297 199.74 43.6201 199.594 43.8252C199.457 44.0303 199.325 44.2256 199.198 44.4111C199.071 44.5869 198.983 44.709 198.935 44.7773C198.769 44.9824 198.573 45.2266 198.349 45.5098C198.134 45.793 197.899 46.0811 197.646 46.374C197.401 46.6572 197.143 46.9307 196.869 47.1943C196.605 47.4482 196.342 47.6533 196.078 47.8096C196.029 47.8389 195.956 47.8779 195.858 47.9268C195.771 47.9756 195.722 48 195.712 48C195.604 48 195.502 47.9707 195.404 47.9121C195.316 47.8438 195.233 47.7607 195.155 47.6631C195.087 47.5654 195.028 47.4678 194.979 47.3701C194.94 47.2627 194.921 47.165 194.921 47.0771ZM198.041 55.7783C198.041 55.2217 198.139 54.7236 198.334 54.2842C198.52 53.8447 198.769 53.4346 199.081 53.0537C199.394 52.6826 199.75 52.3359 200.15 52.0137C200.551 51.7012 200.961 51.3936 201.381 51.0908C201.801 50.7979 202.211 50.5 202.611 50.1973C203.012 49.8945 203.368 49.5723 203.681 49.2305C203.993 48.8887 204.242 48.5176 204.428 48.1172C204.623 47.7168 204.721 47.2725 204.721 46.7842C204.721 46.7646 204.721 46.7207 204.721 46.6523C204.721 46.5742 204.716 46.5254 204.706 46.5059C204.638 46.5645 204.506 46.6523 204.311 46.7695C204.115 46.877 203.905 46.9941 203.681 47.1211C203.466 47.2383 203.256 47.3457 203.051 47.4434C202.846 47.541 202.699 47.6045 202.611 47.6338C202.602 47.6338 202.562 47.6387 202.494 47.6484C202.436 47.6582 202.362 47.668 202.274 47.6777C202.196 47.6875 202.118 47.6973 202.04 47.707C201.962 47.707 201.898 47.707 201.85 47.707C201.41 47.6289 201.117 47.4775 200.971 47.2529C200.824 47.0186 200.785 46.7451 200.854 46.4326C200.922 46.1201 201.073 45.7881 201.308 45.4365C201.552 45.0752 201.84 44.7334 202.172 44.4111C202.514 44.0791 202.88 43.7861 203.271 43.5322C203.671 43.2686 204.057 43.083 204.428 42.9756C204.809 42.8584 205.155 42.834 205.468 42.9023C205.79 42.9609 206.039 43.1514 206.215 43.4736C206.273 43.8838 206.273 44.2695 206.215 44.6309C206.156 44.9824 206.078 45.3291 205.98 45.6709C205.883 46.0127 205.785 46.3594 205.688 46.7109C205.59 47.0527 205.531 47.4287 205.512 47.8389H205.644C205.702 47.7803 205.8 47.6777 205.937 47.5312C206.083 47.3848 206.234 47.2334 206.391 47.0771C206.557 46.9111 206.713 46.7598 206.859 46.623C207.006 46.4766 207.108 46.374 207.167 46.3154C207.196 46.2861 207.255 46.2471 207.343 46.1982C207.44 46.1494 207.509 46.125 207.548 46.125V46.1689V46.1982C207.548 46.208 207.553 46.2129 207.562 46.2129C207.562 46.5645 207.46 46.8867 207.255 47.1797C207.06 47.4727 206.82 47.7461 206.537 48C206.254 48.2539 205.961 48.4883 205.658 48.7031C205.355 48.9277 205.102 49.1426 204.896 49.3477C204.73 49.6895 204.55 50.1143 204.354 50.6221C204.159 51.1396 203.944 51.6865 203.71 52.2627C203.476 52.8486 203.212 53.4395 202.919 54.0352C202.636 54.6406 202.313 55.1973 201.952 55.7051C201.601 56.2129 201.21 56.6475 200.78 57.0088C200.351 57.3799 199.872 57.6191 199.345 57.7266C199.091 57.7266 198.881 57.6631 198.715 57.5361C198.539 57.4092 198.402 57.248 198.305 57.0527C198.207 56.8672 198.139 56.6572 198.1 56.4229C198.061 56.1982 198.041 55.9834 198.041 55.7783ZM198.817 56.5693C198.896 56.7549 198.988 56.8672 199.096 56.9062C199.203 56.9453 199.325 56.9648 199.462 56.9648C199.716 56.9648 199.994 56.833 200.297 56.5693C200.6 56.3057 200.902 55.9639 201.205 55.5439C201.518 55.1338 201.815 54.6748 202.099 54.167C202.382 53.6592 202.631 53.166 202.846 52.6875C203.07 52.209 203.246 51.7695 203.373 51.3691C203.51 50.9785 203.578 50.6855 203.578 50.4902C203.578 50.4707 203.573 50.4365 203.563 50.3877C203.563 50.3486 203.563 50.3193 203.563 50.2998C203.534 50.3193 203.466 50.3486 203.358 50.3877C203.261 50.4365 203.202 50.4707 203.183 50.4902C202.772 50.793 202.309 51.125 201.791 51.4863C201.283 51.8574 200.81 52.2627 200.37 52.7021C199.921 53.1416 199.545 53.6152 199.242 54.123C198.939 54.6406 198.788 55.1973 198.788 55.793C198.788 55.8223 198.788 55.876 198.788 55.9541C198.788 56.0322 198.793 56.1104 198.803 56.1885C198.803 56.2666 198.808 56.3398 198.817 56.4082C198.817 56.4863 198.817 56.54 198.817 56.5693ZM205.277 43.6494C205.121 43.6494 204.916 43.7031 204.662 43.8105C204.408 43.9082 204.135 44.0449 203.842 44.2207C203.559 44.3965 203.271 44.5967 202.978 44.8213C202.685 45.0459 202.416 45.2803 202.172 45.5244C201.938 45.7686 201.747 46.0127 201.601 46.2568C201.454 46.501 201.381 46.7256 201.381 46.9307C201.586 46.9307 201.835 46.8916 202.128 46.8135C202.421 46.7256 202.724 46.6133 203.036 46.4766C203.358 46.3301 203.676 46.1641 203.988 45.9785C204.301 45.7832 204.579 45.5781 204.823 45.3633C205.077 45.1484 205.282 44.9287 205.438 44.7041C205.595 44.4795 205.673 44.2598 205.673 44.0449C205.673 43.7812 205.541 43.6494 205.277 43.6494ZM218.329 47.3262C218.329 46.7598 218.402 46.1885 218.549 45.6123C218.705 45.0264 218.896 44.4502 219.12 43.8838C219.354 43.3174 219.604 42.7705 219.867 42.2432C220.131 41.7061 220.38 41.2031 220.614 40.7344V40.5439C220.507 40.6611 220.336 40.8467 220.102 41.1006C219.877 41.3447 219.618 41.623 219.325 41.9355C219.042 42.248 218.739 42.5801 218.417 42.9316C218.104 43.2734 217.802 43.6006 217.509 43.9131C217.226 44.2256 216.972 44.5088 216.747 44.7627C216.522 45.0068 216.356 45.1875 216.249 45.3047C216.142 45.4219 216.039 45.5977 215.941 45.832C215.844 46.0566 215.736 46.2861 215.619 46.5205C215.502 46.7549 215.37 46.96 215.224 47.1357C215.087 47.3115 214.931 47.3994 214.755 47.3994C214.608 47.3994 214.491 47.3848 214.403 47.3555C214.325 47.3262 214.267 47.2822 214.228 47.2236C214.188 47.1553 214.164 47.0723 214.154 46.9746C214.145 46.877 214.14 46.7598 214.14 46.623C214.14 45.9004 214.242 45.2021 214.447 44.5283C214.662 43.8447 214.887 43.1514 215.121 42.4482V42.2578C215.102 42.2773 215.067 42.3115 215.019 42.3604C214.97 42.3994 214.94 42.4287 214.931 42.4482C214.696 42.7998 214.457 43.1807 214.213 43.5908C213.969 43.9912 213.715 44.3916 213.451 44.792C213.188 45.1826 212.904 45.5586 212.602 45.9199C212.299 46.2812 211.972 46.6035 211.62 46.8867C211.269 47.1602 210.883 47.3799 210.463 47.5459C210.053 47.7119 209.599 47.7949 209.101 47.7949C208.993 47.7949 208.847 47.79 208.661 47.7803C208.485 47.7705 208.31 47.7412 208.134 47.6924C207.968 47.6436 207.821 47.5654 207.694 47.458C207.577 47.3506 207.519 47.1992 207.519 47.0039C207.519 46.9258 207.562 46.8281 207.65 46.7109C207.748 46.584 207.831 46.4961 207.899 46.4473C208.036 46.6719 208.148 46.8232 208.236 46.9014C208.334 46.9697 208.471 47.0039 208.646 47.0039C208.939 47.0039 209.247 46.96 209.569 46.8721C209.901 46.7744 210.219 46.6475 210.521 46.4912C210.834 46.335 211.127 46.1543 211.4 45.9492C211.674 45.7441 211.903 45.5293 212.089 45.3047C212.235 45.1094 212.411 44.8604 212.616 44.5576C212.831 44.2451 213.056 43.9082 213.29 43.5469C213.534 43.1758 213.783 42.7998 214.037 42.4189C214.291 42.0381 214.535 41.6768 214.77 41.335C215.014 40.9834 215.238 40.6709 215.443 40.3975C215.648 40.124 215.824 39.9189 215.971 39.7822C216.107 39.7822 216.21 39.8066 216.278 39.8555C216.347 39.8945 216.396 39.9531 216.425 40.0312C216.454 40.1094 216.469 40.2021 216.469 40.3096C216.469 40.417 216.469 40.5293 216.469 40.6465C216.469 41.0566 216.405 41.457 216.278 41.8477C216.161 42.2383 216.029 42.6191 215.883 42.9902C215.736 43.3516 215.6 43.708 215.473 44.0596C215.355 44.4111 215.297 44.7578 215.297 45.0996C215.297 45.1191 215.297 45.1533 215.297 45.2021C215.307 45.251 215.312 45.2852 215.312 45.3047C216.229 44.2891 217.021 43.4102 217.685 42.668C218.349 41.9258 218.91 41.2959 219.369 40.7783C219.838 40.251 220.219 39.8262 220.512 39.5039C220.805 39.1719 221.039 38.918 221.215 38.7422C221.391 38.5566 221.522 38.4297 221.61 38.3613C221.708 38.293 221.786 38.2588 221.845 38.2588C221.942 38.2588 222.016 38.2881 222.064 38.3467C222.113 38.4053 222.143 38.4736 222.152 38.5518C222.172 38.6299 222.177 38.7129 222.167 38.8008C222.167 38.8887 222.167 38.9619 222.167 39.0205C222.167 39.4307 222.089 39.8506 221.933 40.2803C221.786 40.7002 221.596 41.1348 221.361 41.584C221.137 42.0234 220.888 42.4727 220.614 42.9316C220.351 43.3809 220.102 43.8447 219.867 44.3232C219.643 44.8018 219.452 45.29 219.296 45.7881C219.149 46.2764 219.076 46.7793 219.076 47.2969C219.076 47.5605 219.081 47.7559 219.091 47.8828C219.101 48 219.13 48.0977 219.179 48.1758C219.228 48.2637 219.306 48.3516 219.413 48.4395C219.521 48.5371 219.672 48.6885 219.867 48.8936C219.643 49.0205 219.423 49.0693 219.208 49.04C219.003 49.0205 218.822 48.9375 218.666 48.791C218.52 48.6445 218.412 48.4443 218.344 48.1904C218.275 47.9365 218.271 47.6484 218.329 47.3262ZM221.376 46.5498C221.376 46.0615 221.513 45.583 221.786 45.1143C222.069 44.6455 222.426 44.2305 222.855 43.8691C223.285 43.5078 223.759 43.2197 224.276 43.0049C224.794 42.7803 225.287 42.668 225.756 42.668C225.941 42.668 226.117 42.7021 226.283 42.7705C226.449 42.8389 226.625 42.873 226.811 42.873H226.898C226.947 42.7656 227.04 42.5752 227.177 42.3018C227.323 42.0283 227.475 41.7402 227.631 41.4375C227.797 41.1348 227.953 40.8516 228.1 40.5879C228.246 40.3145 228.354 40.124 228.422 40.0166C228.529 39.8311 228.676 39.6016 228.861 39.3281C229.047 39.0449 229.228 38.7715 229.403 38.5078C229.589 38.2441 229.75 38.0195 229.887 37.834C230.023 37.6484 230.102 37.5557 230.121 37.5557L230.692 38.127C230.692 38.1465 230.653 38.2344 230.575 38.3906C230.507 38.5469 230.414 38.752 230.297 39.0059C230.18 39.25 230.043 39.5234 229.887 39.8262C229.74 40.1289 229.589 40.4316 229.433 40.7344C229.276 41.0371 229.125 41.3301 228.979 41.6133C228.842 41.8867 228.72 42.1162 228.612 42.3018C228.31 42.7607 228.002 43.2295 227.689 43.708C227.387 44.1768 227.143 44.6162 226.957 45.0264C226.781 45.4268 226.693 45.7783 226.693 46.0811C226.703 46.3838 226.869 46.5938 227.191 46.7109C227.777 46.6035 228.217 46.5596 228.51 46.5791C228.803 46.5986 228.983 46.6523 229.052 46.7402C229.13 46.8184 229.12 46.916 229.022 47.0332C228.925 47.1406 228.769 47.2383 228.554 47.3262C228.349 47.4141 228.109 47.4727 227.836 47.502C227.562 47.5312 227.289 47.502 227.016 47.4141C226.742 47.3262 226.493 47.165 226.269 46.9307C226.044 46.6963 225.873 46.3594 225.756 45.9199L223.485 47.8096C223.485 47.8096 223.446 47.8193 223.368 47.8389C223.3 47.8584 223.212 47.8779 223.104 47.8975C223.007 47.917 222.904 47.9365 222.797 47.9561C222.689 47.9756 222.602 47.9902 222.533 48H222.445C222.221 48 222.035 47.9609 221.889 47.8828C221.752 47.7949 221.645 47.6875 221.566 47.5605C221.488 47.4238 221.435 47.2676 221.405 47.0918C221.386 46.916 221.376 46.7354 221.376 46.5498ZM222.328 46.3887C222.328 46.4473 222.323 46.5156 222.313 46.5938C222.313 46.6719 222.318 46.7451 222.328 46.8135C222.348 46.8721 222.377 46.9258 222.416 46.9746C222.465 47.0234 222.533 47.0479 222.621 47.0479C222.748 47.0479 222.899 47.0039 223.075 46.916C223.261 46.8184 223.441 46.7061 223.617 46.5791C223.793 46.4521 223.954 46.3252 224.101 46.1982C224.257 46.0713 224.369 45.9785 224.438 45.9199C224.506 45.8516 224.633 45.7295 224.818 45.5537C225.004 45.3682 225.194 45.1729 225.39 44.9678C225.595 44.7627 225.785 44.5723 225.961 44.3965C226.137 44.2207 226.259 44.0938 226.327 44.0156V43.9717C226.327 43.9521 226.327 43.9424 226.327 43.9424C226.337 43.9326 226.342 43.9229 226.342 43.9131C226.342 43.8252 226.312 43.7617 226.254 43.7227C226.205 43.6738 226.142 43.6445 226.063 43.6348C225.995 43.6152 225.922 43.6104 225.844 43.6201C225.766 43.6201 225.702 43.6201 225.653 43.6201C225.302 43.6201 224.931 43.6934 224.54 43.8398C224.149 43.9863 223.788 44.1865 223.456 44.4404C223.134 44.6846 222.865 44.9775 222.65 45.3193C222.436 45.6514 222.328 46.0078 222.328 46.3887ZM229.081 47.0479C229.169 46.4912 229.335 45.9785 229.579 45.5098C229.823 45.041 230.102 44.6357 230.414 44.2939C230.736 43.9424 231.083 43.6543 231.454 43.4297C231.825 43.2051 232.187 43.0635 232.538 43.0049C232.89 42.9365 233.212 42.9512 233.505 43.0488C233.808 43.1465 234.052 43.3418 234.237 43.6348C234.237 43.8594 234.184 44.0742 234.076 44.2793C233.979 44.4844 233.866 44.6895 233.739 44.8945C233.622 45.0996 233.51 45.3096 233.402 45.5244C233.305 45.7393 233.256 45.9688 233.256 46.2129C233.256 46.4668 233.31 46.6719 233.417 46.8281C233.534 46.9746 233.734 47.0479 234.018 47.0479C234.252 47.0479 234.477 47.0137 234.691 46.9453C234.916 46.877 235.141 46.8428 235.365 46.8428C235.404 46.8428 235.468 46.8477 235.556 46.8574C235.653 46.8574 235.717 46.8574 235.746 46.8574C235.629 47.0234 235.478 47.165 235.292 47.2822C235.106 47.3994 234.911 47.502 234.706 47.5898C234.501 47.668 234.286 47.7266 234.062 47.7656C233.847 47.8047 233.646 47.8242 233.461 47.8242C233.285 47.8242 233.129 47.7852 232.992 47.707C232.855 47.6289 232.738 47.5264 232.641 47.3994C232.543 47.2725 232.465 47.1309 232.406 46.9746C232.357 46.8086 232.333 46.6475 232.333 46.4912C232.187 46.6572 232.025 46.833 231.85 47.0186C231.684 47.1943 231.503 47.3555 231.308 47.502C231.122 47.6484 230.917 47.7705 230.692 47.8682C230.478 47.9658 230.253 48.0146 230.019 48.0146C229.765 48.0146 229.545 47.9219 229.359 47.7363C229.174 47.541 229.081 47.3115 229.081 47.0479ZM230.048 46.5938C230.048 46.6719 230.048 46.7598 230.048 46.8574C230.058 46.9551 230.121 47.0186 230.238 47.0479C230.482 46.9893 230.761 46.8623 231.073 46.667C231.386 46.4619 231.679 46.2275 231.952 45.9639C232.226 45.6904 232.455 45.4023 232.641 45.0996C232.826 44.7871 232.919 44.4893 232.919 44.2061C232.919 44.1865 232.914 44.1572 232.904 44.1182C232.904 44.0693 232.904 44.0352 232.904 44.0156C232.572 44.0156 232.235 44.084 231.894 44.2207C231.552 44.3574 231.244 44.5479 230.971 44.792C230.697 45.0264 230.473 45.2998 230.297 45.6123C230.131 45.9248 230.048 46.252 230.048 46.5938ZM235.321 47.0771C235.321 47.0479 235.321 47.0088 235.321 46.96C235.331 46.9014 235.336 46.8672 235.336 46.8574C235.365 46.5645 235.399 46.1934 235.438 45.7441C235.478 45.2852 235.517 44.8457 235.556 44.4258C235.604 44.0059 235.644 43.6445 235.673 43.3418C235.702 43.0293 235.717 42.873 235.717 42.873L236.112 42.4922C236.278 42.541 236.4 42.6094 236.479 42.6973C236.557 42.7754 236.61 42.8633 236.64 42.9609C236.669 43.0586 236.684 43.166 236.684 43.2832C236.684 43.4004 236.684 43.5176 236.684 43.6348C236.684 44.0449 236.645 44.4453 236.566 44.8359C236.498 45.2168 236.464 45.6074 236.464 46.0078C236.464 46.0273 236.464 46.0762 236.464 46.1543C236.474 46.2227 236.479 46.2666 236.479 46.2861L240.082 42.4922C240.092 42.4824 240.116 42.4775 240.155 42.4775C240.204 42.4775 240.238 42.4775 240.258 42.4775C240.355 42.4775 240.448 42.4971 240.536 42.5361C240.624 42.5752 240.668 42.6582 240.668 42.7852C240.668 42.7949 240.663 42.8047 240.653 42.8145C240.653 42.8145 240.653 42.8193 240.653 42.8291V42.873C240.604 42.9512 240.517 43.0781 240.39 43.2539C240.272 43.4297 240.141 43.6201 239.994 43.8252C239.857 44.0303 239.726 44.2256 239.599 44.4111C239.472 44.5869 239.384 44.709 239.335 44.7773C239.169 44.9824 238.974 45.2266 238.749 45.5098C238.534 45.793 238.3 46.0811 238.046 46.374C237.802 46.6572 237.543 46.9307 237.27 47.1943C237.006 47.4482 236.742 47.6533 236.479 47.8096C236.43 47.8389 236.356 47.8779 236.259 47.9268C236.171 47.9756 236.122 48 236.112 48C236.005 48 235.902 47.9707 235.805 47.9121C235.717 47.8438 235.634 47.7607 235.556 47.6631C235.487 47.5654 235.429 47.4678 235.38 47.3701C235.341 47.2627 235.321 47.165 235.321 47.0771ZM241.283 46.4473C241.283 46.0957 241.366 45.7344 241.532 45.3633C241.708 44.9824 241.913 44.6211 242.147 44.2793C242.392 43.9277 242.646 43.6006 242.909 43.2979C243.173 42.9854 243.397 42.7168 243.583 42.4922C243.563 42.375 243.524 42.1748 243.466 41.8916C243.407 41.5986 243.349 41.291 243.29 40.9688C243.231 40.6465 243.173 40.3438 243.114 40.0605C243.065 39.7676 243.031 39.5625 243.012 39.4453C243.002 39.4355 242.997 39.4209 242.997 39.4014V39.3428C242.997 39.1377 243.07 38.9375 243.217 38.7422C243.363 38.5371 243.554 38.3467 243.788 38.1709C244.022 37.9951 244.281 37.834 244.564 37.6875C244.857 37.541 245.146 37.4141 245.429 37.3066C245.712 37.1992 245.976 37.1162 246.22 37.0576C246.464 36.999 246.664 36.9697 246.82 36.9697C246.859 36.9697 246.957 36.999 247.113 37.0576C247.279 37.1162 247.45 37.1846 247.626 37.2627C247.812 37.3408 247.973 37.4238 248.109 37.5117C248.256 37.5996 248.329 37.6777 248.329 37.7461C248.31 38.1367 248.28 38.4541 248.241 38.6982C248.212 38.9424 248.173 39.1328 248.124 39.2695C248.085 39.4062 248.046 39.5039 248.007 39.5625C247.978 39.6113 247.958 39.6406 247.948 39.6504C247.851 39.8457 247.665 40.0898 247.392 40.3828C247.128 40.6758 246.84 40.9785 246.527 41.291C246.215 41.5938 245.907 41.8916 245.604 42.1846C245.302 42.4678 245.072 42.6973 244.916 42.873C245.014 43.0977 245.092 43.2979 245.15 43.4736C245.209 43.6494 245.248 43.8252 245.268 44.001C245.287 44.167 245.297 44.3428 245.297 44.5283C245.307 44.7041 245.312 44.8994 245.312 45.1143C245.312 45.4756 245.282 45.832 245.224 46.1836C245.165 46.5254 245.058 46.833 244.901 47.1064C244.745 47.3799 244.53 47.5996 244.257 47.7656C243.983 47.9316 243.637 48.0146 243.217 48.0146C242.934 48.0146 242.67 47.9902 242.426 47.9414C242.191 47.8828 241.986 47.7949 241.811 47.6777C241.645 47.5508 241.513 47.3896 241.415 47.1943C241.327 46.9893 241.283 46.7402 241.283 46.4473ZM242.25 46.1982C242.25 46.5498 242.318 46.7842 242.455 46.9014C242.602 47.0186 242.826 47.0771 243.129 47.0771C243.334 47.0771 243.524 47.0137 243.7 46.8867C243.876 46.7598 244.027 46.5986 244.154 46.4033C244.291 46.208 244.389 45.998 244.447 45.7734C244.516 45.5488 244.545 45.3389 244.535 45.1436C244.535 45.085 244.511 44.9824 244.462 44.8359C244.413 44.6895 244.359 44.5381 244.301 44.3818C244.242 44.2158 244.179 44.0645 244.11 43.9277C244.052 43.7812 244.003 43.6836 243.964 43.6348C243.788 43.752 243.598 43.9082 243.393 44.1035C243.197 44.2988 243.012 44.5137 242.836 44.748C242.67 44.9727 242.528 45.2119 242.411 45.4658C242.304 45.7197 242.25 45.9639 242.25 46.1982ZM244.154 39.2695C244.154 39.6797 244.159 40.0947 244.169 40.5146C244.179 40.9248 244.301 41.3301 244.535 41.7305L247.187 39.4453C247.06 39.3867 246.996 39.2939 246.996 39.167C246.996 39.0693 247.025 38.9912 247.084 38.9326C247.152 38.8643 247.221 38.8057 247.289 38.7568C247.367 38.6982 247.436 38.6396 247.494 38.5811C247.562 38.5225 247.597 38.4395 247.597 38.332C247.597 38.1074 247.523 37.9854 247.377 37.9658C247.24 37.9365 247.074 37.9219 246.879 37.9219C246.645 37.9219 246.391 37.9512 246.117 38.0098C245.854 38.0684 245.595 38.1562 245.341 38.2734C245.097 38.3809 244.867 38.5225 244.652 38.6982C244.447 38.8643 244.281 39.0547 244.154 39.2695ZM248.798 46.5791C248.798 46.2959 248.852 46.0127 248.959 45.7295C249.066 45.4463 249.193 45.168 249.34 44.8945C249.486 44.6113 249.633 44.333 249.779 44.0596C249.936 43.7861 250.053 43.5176 250.131 43.2539C249.945 43.3613 249.784 43.4248 249.647 43.4443C249.521 43.4541 249.364 43.459 249.179 43.459C249.159 43.459 249.096 43.459 248.988 43.459C248.891 43.4492 248.827 43.4443 248.798 43.4443C248.856 43.2295 248.964 43.0391 249.12 42.873C249.276 42.6973 249.452 42.5508 249.647 42.4336C249.853 42.3066 250.062 42.2041 250.277 42.126C250.502 42.0381 250.702 41.9697 250.878 41.9209C251.171 41.4619 251.41 41.0029 251.596 40.5439C251.781 40.0752 251.967 39.6211 252.152 39.1816C252.348 38.7324 252.572 38.3076 252.826 37.9072C253.09 37.4971 253.441 37.1211 253.881 36.7793L253.954 37.3359L252.123 41.6279C252.23 41.5986 252.362 41.5693 252.519 41.54C252.675 41.5107 252.831 41.4814 252.987 41.4521C253.153 41.4229 253.31 41.3984 253.456 41.3789C253.612 41.3496 253.744 41.3203 253.852 41.291C253.861 41.291 253.891 41.291 253.939 41.291C253.988 41.2812 254.027 41.2764 254.057 41.2764C254.193 41.2764 254.306 41.3008 254.394 41.3496C254.481 41.3984 254.555 41.5059 254.613 41.6719C253.949 41.8672 253.349 42.0723 252.812 42.2871C252.274 42.502 251.806 42.7852 251.405 43.1367C251.015 43.4785 250.692 43.918 250.438 44.4551C250.194 44.9824 250.023 45.6611 249.926 46.4912C249.926 46.667 249.936 46.8281 249.955 46.9746C249.975 47.1211 250.097 47.209 250.321 47.2383C250.546 47.2383 250.756 47.1943 250.951 47.1064C251.146 47.0186 251.337 46.9258 251.522 46.8281C251.708 46.7207 251.894 46.623 252.079 46.5352C252.274 46.4473 252.484 46.4033 252.709 46.4033C252.709 46.6377 252.606 46.8525 252.401 47.0479C252.196 47.2432 251.947 47.4141 251.654 47.5605C251.371 47.707 251.078 47.8193 250.775 47.8975C250.473 47.9756 250.224 48.0146 250.028 48.0146C249.833 48.0146 249.657 47.9756 249.501 47.8975C249.345 47.8193 249.213 47.7168 249.105 47.5898C249.008 47.4531 248.93 47.2969 248.871 47.1211C248.822 46.9453 248.798 46.7646 248.798 46.5791Z" fill="#48CDD6"/>
<defs>
<clipPath id="clip0">
<rect width="59.3419" height="59.4167" fill="white"/>
</clipPath>
</defs>
</svg>
