<svg width="134" height="184" viewBox="0 0 134 184" fill="none" xmlns="http://www.w3.org/2000/svg">
<g clip-path="url(#clip0)">
<path d="M112.31 11.8945C112.37 102.244 51.2376 66.3631 51.8919 97.4778C52.5463 128.593 112.199 97.0477 112.254 178.523" stroke="#48DCE6" stroke-width="3"/>
<path d="M12.1488 174.905L14.2773 169.069H15.9497L12.2755 178.056C11.7068 179.352 10.803 180 9.5642 180L9.26859 179.978L8.68578 179.884V178.805L9.10811 178.834C9.63741 178.834 10.0485 178.742 10.3413 178.56C10.6397 178.378 10.8846 178.045 11.0761 177.56L11.4224 176.768L8.16211 169.069H9.86827L12.1488 174.905ZM28.7881 170.997H21.7439V169.839H28.7881V170.997ZM28.7881 173.984H21.7439V172.833H28.7881V173.984ZM38.4929 171.911L40.52 169.069H42.3444L39.3545 172.919L42.4374 176.855H40.6298L38.5183 173.941L36.4067 176.855H34.5907L37.6737 172.919L34.6837 169.069H36.4912L38.4929 171.911ZM52.7758 171.235H56.2049V172.495H52.7758V175.805H51.2048V172.495H47.7755V171.235H51.2048V168.177H52.7758V171.235ZM70.1837 167.127L65.0905 176.855H63.4519L68.5281 167.471H61.8724V166.378H70.1837V167.127Z" fill="#4B6973"/>
<path d="M45.9778 163.104H46.3692C46.6151 163.101 46.8085 163.046 46.9492 162.938C47.09 162.831 47.1603 162.687 47.1603 162.505C47.1603 162.095 46.921 161.891 46.4425 161.891C46.2172 161.891 46.037 161.946 45.9018 162.056C45.7686 162.165 45.702 162.309 45.702 162.49H45.1811C45.1811 162.213 45.2994 161.984 45.5358 161.801C45.7743 161.618 46.0764 161.525 46.4425 161.525C46.8291 161.525 47.1322 161.613 47.3519 161.788C47.5715 161.962 47.6812 162.204 47.6812 162.514C47.6812 162.666 47.623 162.813 47.5066 162.956C47.3921 163.097 47.2354 163.204 47.0365 163.274C47.2617 163.335 47.4354 163.436 47.5574 163.577C47.6812 163.717 47.7432 163.889 47.7432 164.093C47.7432 164.406 47.623 164.655 47.3828 164.838C47.1426 165.022 46.8301 165.114 46.4452 165.114C46.0605 165.114 45.7471 165.025 45.5049 164.848C45.2647 164.67 45.1445 164.436 45.1445 164.145H45.6682C45.6682 164.329 45.7385 164.476 45.8794 164.587C46.0202 164.697 46.2087 164.752 46.4452 164.752C46.6967 164.752 46.8892 164.696 47.0224 164.584C47.1557 164.472 47.2223 164.312 47.2223 164.102C47.2223 163.899 47.1492 163.743 47.0027 163.634C46.8564 163.526 46.6452 163.47 46.3692 163.467H45.9778V163.104Z" fill="#4B6973"/>
<path d="M19.0752 165.066H16.3893V164.747L17.8083 163.404C18.0186 163.2 18.1631 163.036 18.2419 162.91C18.3225 162.782 18.3629 162.65 18.3629 162.514C18.3629 162.332 18.2982 162.183 18.1687 162.066C18.0392 161.949 17.8665 161.891 17.6507 161.891C17.3917 161.891 17.1899 161.954 17.0454 162.08C16.9027 162.204 16.8313 162.379 16.8313 162.603H16.3105C16.3105 162.282 16.4315 162.022 16.6737 161.823C16.9177 161.625 17.2434 161.525 17.6507 161.525C18.0317 161.525 18.3329 161.612 18.5545 161.783C18.7759 161.952 18.8866 162.179 18.8866 162.462C18.8866 162.806 18.6295 163.214 18.1152 163.69L17.0171 164.704H19.0752V165.066Z" fill="#4B6973"/>
<path d="M0.623047 150.006L154 0.670898" stroke="#4B6973"/>
<path d="M71.403 83.5208C73.3137 83.5208 74.8626 82.2012 74.8626 80.5734C74.8626 78.9456 73.3137 77.626 71.403 77.626C69.4923 77.626 67.9434 78.9456 67.9434 80.5734C67.9434 82.2012 69.4923 83.5208 71.403 83.5208Z" fill="#4B6973"/>
<path d="M108.305 48.1526C110.216 48.1526 111.765 46.833 111.765 45.2052C111.765 43.5774 110.216 42.2578 108.305 42.2578C106.395 42.2578 104.846 43.5774 104.846 45.2052C104.846 46.833 106.395 48.1526 108.305 48.1526Z" fill="#4B6973"/>
<path d="M51.7995 102.188C53.7102 102.188 55.2591 100.868 55.2591 99.2404C55.2591 97.6126 53.7102 96.293 51.7995 96.293C49.8888 96.293 48.3398 97.6126 48.3398 99.2404C48.3398 100.868 49.8888 102.188 51.7995 102.188Z" fill="#4B6973"/>
<g clip-path="url(#clip1)">
<path d="M47.2535 23.0884C49.936 23.0884 52.1105 21.6614 52.1105 19.9011C52.1105 18.1409 49.936 16.7139 47.2535 16.7139C44.571 16.7139 42.3965 18.1409 42.3965 19.9011C42.3965 21.6614 44.571 23.0884 47.2535 23.0884Z" fill="#48CDD6"/>
<path d="M47.2711 64.7935C49.9536 64.7935 52.1281 63.3665 52.1281 61.6062C52.1281 59.8459 49.9536 58.4189 47.2711 58.4189C44.5887 58.4189 42.4141 59.8459 42.4141 61.6062C42.4141 63.3665 44.5887 64.7935 47.2711 64.7935Z" fill="#48CDD6"/>
<path d="M24.3668 55.937C27.0492 55.937 29.2238 54.51 29.2238 52.7498C29.2238 50.9895 27.0492 49.5625 24.3668 49.5625C21.6843 49.5625 19.5098 50.9895 19.5098 52.7498C19.5098 54.51 21.6843 55.937 24.3668 55.937Z" fill="#48CDD6"/>
<path d="M30.0762 35.3978C32.4461 35.3978 34.3673 33.9433 34.3673 32.1491C34.3673 30.3549 32.4461 28.9004 30.0762 28.9004C27.7063 28.9004 25.7852 30.3549 25.7852 32.1491C25.7852 33.9433 27.7063 35.3978 30.0762 35.3978Z" fill="#48CDD6"/>
<path d="M33.6973 29.8405L41.0033 21.6318L43.0161 23.9332L33.6973 29.8405Z" fill="#4A5568"/>
<path d="M25.1309 49.0205L26.1525 35.7549L28.7067 36.4768L25.1309 49.0205Z" fill="#4A5568"/>
<path d="M44.6426 56.6011L31.4629 36.7478L33.7106 35.4844L44.6426 56.6011Z" fill="#4A5568"/>
<path d="M29.3184 54.6162L41.7829 58.5869L40.5569 60.7527L29.3184 54.6162Z" fill="#4A5568"/>
<path d="M70.1747 55.8462C67.5013 55.8462 65.334 54.4192 65.334 52.659C65.334 50.8987 67.5013 49.4717 70.1747 49.4717C72.8481 49.4717 75.0154 50.8987 75.0154 52.659C75.0154 54.4192 72.8481 55.8462 70.1747 55.8462Z" fill="#48CDD6"/>
<path d="M64.4193 35.3978C62.0573 35.3978 60.1426 33.9433 60.1426 32.1491C60.1426 30.3549 62.0573 28.9004 64.4193 28.9004C66.7812 28.9004 68.6959 30.3549 68.6959 32.1491C68.6959 33.9433 66.7812 35.3978 64.4193 35.3978Z" fill="#48CDD6"/>
<path d="M60.4144 29.8959L53.0787 21.7363L51.1875 23.9336L60.4144 29.8959Z" fill="#4A5568"/>
<path d="M69.4135 48.9307L68.3952 35.665L65.8496 36.3869L69.4135 48.9307Z" fill="#4A5568"/>
<path d="M49.9668 56.5112L63.1023 36.658L60.8621 35.3945L49.9668 56.5112Z" fill="#4A5568"/>
<path d="M65.2391 54.5254L52.8164 58.4961L54.0383 60.6619L65.2391 54.5254Z" fill="#4A5568"/>
</g>
</g>
<defs>
<clipPath id="clip0">
<rect width="134" height="184" fill="white"/>
</clipPath>
<clipPath id="clip1">
<rect width="55.5044" height="48.0793" fill="white" transform="translate(19.5098 16.7139)"/>
</clipPath>
</defs>
</svg>
